<svg xmlns="http://www.w3.org/2000/svg" xmlns:xlink="http://www.w3.org/1999/xlink" width="158.266" height="109.255" viewBox="0 0 158.266 109.255"><defs><style>.a,.b{fill:#2e5aa9;}.a,.l,.n{opacity:0.1;}.c{fill:#444053;}.d{fill:#3f3d56;}.e{fill:#fff;}.f{fill:#fa5959;}.f,.g,.h{opacity:0.8;}.g{fill:#fed253;}.h{fill:#8ccf4d;}.i{opacity:0.05;}.j{fill:url(#a);}.k{fill:#fbbebe;}.m{fill:#33313f;}</style><linearGradient id="a" y1="0.5" x2="1" y2="0.5" gradientUnits="objectBoundingBox"><stop offset="0" stop-color="gray" stop-opacity="0.251"/><stop offset="0.54" stop-color="gray" stop-opacity="0.122"/><stop offset="1" stop-color="gray" stop-opacity="0.102"/></linearGradient></defs><g transform="translate(0 0.006)"><path class="a" d="M106.43,62.33c-10.145.014-19.909-2.862-29.249-6.057S58.573,49.5,48.617,47.986c-6.4-.974-13.684-.885-18.689,2.653-4.818,3.4-6.213,9.037-6.886,14.242-.506,3.915-.74,8.025,1.156,11.606,1.316,2.486,3.569,4.536,5.157,6.905,5.543,8.243,2.209,18.773-3.177,27.208-2.526,3.957-5.484,7.751-7.394,11.935s-2.693,8.929-.745,13.058c1.93,4.093,6.289,7.064,10.967,9.093,9.5,4.128,20.561,5.013,31.324,5.354,23.826.756,47.7-.786,71.506-2.327,8.811-.57,17.66-1.144,26.289-2.8,4.791-.916,9.724-2.276,13.121-5.256a10.845,10.845,0,0,0,2.056-14.4c-5.262-7.448-19.136-8.853-22.908-16.911-2.08-4.437-.286-9.524,2.356-13.8,5.667-9.176,15.423-17.394,15.587-27.657.113-7.048-4.96-13.923-12.537-16.986-7.942-3.208-18.771-2.383-24.335,3.6C125.743,59.66,115.387,62.321,106.43,62.33Z" transform="translate(-16.91 -47.46)"/><path class="b" d="M988.291,689.006a3.689,3.689,0,0,0-3.321-.318s.509.98,2.6.888Z" transform="translate(-853.591 -601.427)"/><path class="b" d="M1003.959,693.25a3.688,3.688,0,0,1-.765,3.248s-.765-.8,0-2.748Z" transform="translate(-869.047 -605.612)"/><path class="b" d="M1001.855,671.881s-.124-1.643-3.835-1.1a1.771,1.771,0,0,0,1.285,1.562A2.143,2.143,0,0,0,1001.855,671.881Z" transform="translate(-864.87 -586.099)"/><path class="b" d="M1021.069,679.5s1.569.5.17,3.984a1.775,1.775,0,0,1-1.221-1.616A2.128,2.128,0,0,1,1021.069,679.5Z" transform="translate(-883.851 -593.729)"/><path class="b" d="M1020.6,646.731s.213-2.7-3.58-2.428c0,0-.271,2.443,2.911,3.078Z" transform="translate(-881.289 -563.292)"/><path class="b" d="M1034.452,625.03s-.52-3.066-4.312-2.152c0,0-.013,2.651,3.693,2.883Z" transform="translate(-892.631 -544.644)"/><path class="b" d="M1045.938,602.171s-.871-2.986-4.628-2.093a4.341,4.341,0,0,0,4.378,2.644Z" transform="translate(-902.285 -524.942)"/><path class="b" d="M1059.708,578.909s-.851-3.1-4.479-2.171a4.423,4.423,0,0,0,4.238,2.7Z" transform="translate(-914.316 -504.763)"/><path class="b" d="M1070.786,552.7s-.654-3.789-4.036-2.95c0,0,.983,3.447,3.788,3.5Z" transform="translate(-924.272 -481.481)"/><path class="b" d="M1077.447,527.627s-.786-3.819-4.207-2.714c0,0,1.341,3.61,3.964,3.237Z" transform="translate(-929.881 -459.948)"/><path class="b" d="M1084.212,498.244s-1.247-3.82-3.892-3.717c0,0,1.274,4.035,3.671,4.479Z" transform="translate(-936.001 -433.857)"/><path class="b" d="M1089.729,471.1s-1.357-4.6-3.51-4.244c0,0,.939,3.515,3.434,4.96Z" transform="translate(-941.1 -409.927)"/><path class="b" d="M1092.213,444.625s-1.273-3.831-3.393-3.985c0,0,.866,3.77,3.351,4.981Z" transform="translate(-943.347 -387.285)"/><path class="b" d="M1096.7,418.662s-1.586-3.835-2.986-3.922c0,0,.689,3.777,2.85,4.552Z" transform="translate(-947.573 -364.9)"/><path class="b" d="M1101.858,390.391s-.976-4.165-2.378-4.511c0,0,.191,3.408,2.237,4.823Z" transform="translate(-952.56 -339.957)"/><path class="b" d="M1107.132,362.627s-1.026-3.321-2.162-3.827c0,0,.224,3.915,1.9,4.639Z" transform="translate(-957.305 -316.552)"/><path class="b" d="M1118.691,328.715l.206-5.855s-2.124,4.413-.36,6.882Z" transform="translate(-968.426 -285.49)"/><path class="b" d="M1130.948,294.344s1.529-4.275,1.9-4.514c0,0-3,2.774-2.706,6.342Z" transform="translate(-979.043 -256.942)"/><path class="b" d="M1040.285,662.115s2.69-.352,2.609,3.45c0,0-2.431.4-3.224-2.748Z" transform="translate(-900.867 -578.696)"/><path class="b" d="M1058.9,639.06s3.108-.009,2.85,3.881c0,0-2.61.467-3.47-3.146Z" transform="translate(-916.952 -558.777)"/><path class="b" d="M1074.04,616.8s2.822-1.323,4.626,2.093a4.342,4.342,0,0,1-4.876-1.54Z" transform="translate(-930.357 -539.324)"/><path class="b" d="M1087.169,592.173s2.889-1.407,4.586,1.929a4.424,4.424,0,0,1-4.825-1.4Z" transform="translate(-941.713 -517.998)"/><path class="b" d="M1095.407,565.409s2.781-2.656,5,.03c0,0-2.841,2.186-5.127.562Z" transform="translate(-948.93 -494.108)"/><path class="b" d="M1102.44,538.068s2.8-2.714,5,.125c0,0-3.139,2.23-5.1.445Z" transform="translate(-955.032 -470.479)"/><path class="b" d="M1106.93,503.644s2.155-3.393,4.693-2.636c0,0-2.237,3.592-4.668,3.432Z" transform="translate(-958.999 -439.365)"/><path class="b" d="M1111.255,475.065s2.171-4.272,4.226-3.529c0,0-1.566,3.284-4.282,4.249Z" transform="translate(-962.69 -413.913)"/><path class="b" d="M1111.337,449.34s2.232-3.363,4.324-2.952c0,0-1.825,3.41-4.541,3.925Z" transform="translate(-962.621 -392.223)"/><path class="b" d="M1114,418.89s1.73-3.774,3.136-3.8c0,0-.831,3.747-3.02,4.441Z" transform="translate(-965.11 -365.203)"/><path class="b" d="M1116.5,394.13s1.923-3.822,3.369-3.83c0,0-.984,3.268-3.3,4.165Z" transform="translate(-967.27 -343.777)"/><path class="b" d="M1118.63,366.34s1.439-3.162,2.63-3.52c0,0-.719,3.854-2.471,4.359Z" transform="translate(-969.111 -320.026)"/><path class="b" d="M1122.4,333.958l3.215-4.9s-.824,4.831-3.685,5.836Z" transform="translate(-971.963 -290.848)"/><path class="b" d="M1131.737,306.925s3.736-2.579,3.872-3c0,0-1.9,3.611-5.429,4.249Z" transform="translate(-979.094 -269.129)"/><path class="b" d="M1142.643,291.21s4.29-4.124,5.385-4.12a7,7,0,0,0-5.488,3.9Z" transform="translate(-989.776 -254.574)"/><path class="c" d="M1118.94,325.579l.156.02c.806-6.309,1.981-10.043,3.309-10.5l-.052-.149C1120.946,315.439,1119.762,319.115,1118.94,325.579Z" transform="translate(-969.379 -278.653)"/><path class="c" d="M1110.2,405.377l.236.019c.05-.589.089-1.192.114-1.793.225-5.222.574-10.018,1.033-13.613l-.136-.17c-.46,3.6-.908,8.543-1.133,13.774C1110.288,404.191,1110.25,404.791,1110.2,405.377Z" transform="translate(-961.825 -343.362)"/><path class="c" d="M976.187,530.155a30.739,30.739,0,0,0,8.512-6.3,34.23,34.23,0,0,0,6.222-8.821,39.957,39.957,0,0,0,3.618-13.9l-.246.115a36.3,36.3,0,0,1-9.811,22.372,30.419,30.419,0,0,1-8.424,6.243Z" transform="translate(-845.89 -439.566)"/><path class="d" d="M218.436,132.69H88.032a1.162,1.162,0,0,0-1.162,1.162v3.385H219.6v-3.385A1.162,1.162,0,0,0,218.436,132.69Z" transform="translate(-77.375 -121.128)"/><path class="e" d="M86.87,166.19v76.168a2.342,2.342,0,0,0,2.342,2.342H217.256a2.342,2.342,0,0,0,2.342-2.342V166.19Z" transform="translate(-77.375 -150.082)"/><circle class="f" cx="0.543" cy="0.543" r="0.543" transform="translate(11.054 13.258)"/><circle class="g" cx="0.543" cy="0.543" r="0.543" transform="translate(12.547 13.258)"/><circle class="h" cx="0.543" cy="0.543" r="0.543" transform="translate(14.04 13.258)"/><rect class="i" width="106.671" height="46.905" transform="translate(21.832 28.808)"/><rect class="d" width="105.042" height="45.871" transform="translate(22.647 29.164)"/><path class="b" d="M328.23,349.38a10.45,10.45,0,1,0,10.45,10.45,10.45,10.45,0,0,0-10.45-10.45Zm1.874,10.7v4.948H326.41v-4.948a3.06,3.06,0,1,1,3.694,0Z" transform="translate(-276.948 -308.41)"/><path class="i" d="M328.23,349.38a10.45,10.45,0,1,0,10.45,10.45,10.45,10.45,0,0,0-10.45-10.45Zm1.874,10.7v4.948H326.41v-4.948a3.06,3.06,0,1,1,3.694,0Z" transform="translate(-276.948 -308.41)"/><path class="b" d="M309.216,327.38a13.436,13.436,0,1,0,13.436,13.436A13.436,13.436,0,0,0,309.216,327.38Zm2.409,13.759V347.5h-4.75v-6.361a3.936,3.936,0,1,1,4.75,0Z" transform="translate(-257.933 -289.396)"/><rect class="e" width="43.428" height="4.614" transform="translate(70.282 49.657)"/><rect class="b" width="9.364" height="4.614" transform="translate(104.346 58.071)"/><path class="b" d="M553.748,423.83h-.786l.7-.7a.069.069,0,0,0,0-.1.068.068,0,0,0-.1,0l-.7.7v-.787a.068.068,0,0,0-.068-.068.069.069,0,0,0-.068.068v.787l-.7-.7a.068.068,0,0,0-.1,0,.069.069,0,0,0,0,.1l.7.7h-.787a.069.069,0,0,0-.068.068.068.068,0,0,0,.068.068h.787l-.7.7a.069.069,0,0,0,0,.1.07.07,0,0,0,.1,0l.7-.7v.786a.068.068,0,1,0,.136,0v-.786l.7.7a.071.071,0,0,0,.1,0,.069.069,0,0,0,0-.1l-.7-.7h.786a.066.066,0,1,0,0-.132Z" transform="translate(-479.191 -371.935)"/><path class="b" d="M574.748,423.83h-.786l.7-.7a.069.069,0,0,0,0-.1.068.068,0,0,0-.1,0l-.7.7v-.787a.068.068,0,0,0-.068-.068.069.069,0,0,0-.068.068v.787l-.7-.7a.068.068,0,0,0-.1,0,.069.069,0,0,0,0,.1l.7.7h-.787a.069.069,0,0,0-.068.068.068.068,0,0,0,.068.068h.787l-.7.7a.069.069,0,0,0,0,.1.07.07,0,0,0,.1,0l.7-.7v.786a.068.068,0,1,0,.136,0v-.786l.7.7a.07.07,0,0,0,.1,0,.069.069,0,0,0,0-.1l-.7-.7h.786a.066.066,0,1,0,0-.132Z" transform="translate(-497.341 -371.935)"/><path class="b" d="M595.748,423.83h-.786l.7-.7a.069.069,0,0,0,0-.1.068.068,0,0,0-.1,0l-.7.7v-.787a.068.068,0,0,0-.068-.068.069.069,0,0,0-.068.068v.787l-.7-.7a.068.068,0,0,0-.1,0,.069.069,0,0,0,0,.1l.7.7h-.787a.069.069,0,0,0-.068.068.068.068,0,0,0,.068.068h.787l-.7.7a.069.069,0,0,0,0,.1.071.071,0,0,0,.1,0l.7-.7v.786a.068.068,0,1,0,.136,0v-.786l.7.7a.07.07,0,0,0,.1,0,.069.069,0,0,0,0-.1l-.7-.7h.786a.066.066,0,1,0,0-.132Z" transform="translate(-515.491 -371.935)"/><path class="b" d="M616.748,423.83h-.786l.7-.7a.069.069,0,0,0,0-.1.068.068,0,0,0-.1,0l-.7.7v-.787a.068.068,0,0,0-.068-.068.069.069,0,0,0-.068.068v.787l-.7-.7a.068.068,0,0,0-.1,0,.069.069,0,0,0,0,.1l.7.7h-.787a.069.069,0,0,0-.068.068.068.068,0,0,0,.068.068h.787l-.7.7a.069.069,0,0,0,0,.1.07.07,0,0,0,.1,0l.7-.7v.786a.068.068,0,1,0,.136,0v-.786l.7.7a.07.07,0,0,0,.1,0,.069.069,0,0,0,0-.1l-.7-.7h.786a.066.066,0,1,0,0-.132Z" transform="translate(-533.641 -371.935)"/><path class="b" d="M637.748,423.83h-.786l.7-.7a.069.069,0,0,0,0-.1.068.068,0,0,0-.1,0l-.7.7v-.787a.068.068,0,0,0-.068-.068.069.069,0,0,0-.068.068v.787l-.7-.7a.068.068,0,0,0-.1,0,.069.069,0,0,0,0,.1l.7.7h-.787a.069.069,0,0,0-.068.068.068.068,0,0,0,.068.068h.787l-.7.7a.069.069,0,0,0,0,.1.07.07,0,0,0,.1,0l.7-.7v.786a.068.068,0,1,0,.136,0v-.786l.7.7a.07.07,0,0,0,.1,0,.069.069,0,0,0,0-.1l-.7-.7h.786a.066.066,0,1,0,0-.132Z" transform="translate(-551.791 -371.935)"/><path class="b" d="M658.748,423.83h-.786l.7-.7a.069.069,0,0,0,0-.1.068.068,0,0,0-.1,0l-.7.7v-.787a.068.068,0,0,0-.068-.068.069.069,0,0,0-.068.068v.787l-.7-.7a.068.068,0,0,0-.1,0,.069.069,0,0,0,0,.1l.7.7h-.787a.069.069,0,0,0-.068.068.068.068,0,0,0,.068.068h.787l-.7.7a.069.069,0,0,0,0,.1.07.07,0,0,0,.1,0l.7-.7v.786a.068.068,0,1,0,.136,0v-.786l.7.7a.07.07,0,0,0,.1,0,.069.069,0,0,0,0-.1l-.7-.7h.786a.066.066,0,1,0,0-.132Z" transform="translate(-569.941 -371.935)"/><path class="b" d="M679.748,423.83h-.786l.7-.7a.069.069,0,0,0,0-.1.068.068,0,0,0-.1,0l-.7.7v-.787a.068.068,0,0,0-.068-.068.069.069,0,0,0-.068.068v.787l-.7-.7a.068.068,0,0,0-.1,0,.069.069,0,0,0,0,.1l.7.7h-.787a.069.069,0,0,0-.068.068.068.068,0,0,0,.068.068h.787l-.7.7a.069.069,0,0,0,0,.1.07.07,0,0,0,.1,0l.7-.7v.786a.068.068,0,1,0,.136,0v-.786l.7.7a.07.07,0,0,0,.1,0,.069.069,0,0,0,0-.1l-.7-.7h.786a.066.066,0,1,0,0-.132Z" transform="translate(-588.091 -371.935)"/><path class="b" d="M700.748,423.83h-.786l.7-.7a.069.069,0,0,0,0-.1.068.068,0,0,0-.1,0l-.7.7v-.787a.068.068,0,0,0-.068-.068.069.069,0,0,0-.068.068v.787l-.7-.7a.068.068,0,0,0-.1,0,.069.069,0,0,0,0,.1l.7.7h-.787a.069.069,0,0,0-.068.068.068.068,0,0,0,.068.068h.787l-.7.7a.069.069,0,0,0,0,.1.07.07,0,0,0,.1,0l.7-.7v.786a.068.068,0,1,0,.136,0v-.786l.7.7a.07.07,0,0,0,.1,0,.069.069,0,0,0,0-.1l-.7-.7h.786a.066.066,0,1,0,0-.132Z" transform="translate(-606.241 -371.935)"/><path class="b" d="M721.748,423.83h-.786l.7-.7a.069.069,0,0,0,0-.1.068.068,0,0,0-.1,0l-.7.7v-.787a.068.068,0,0,0-.068-.068.069.069,0,0,0-.068.068v.787l-.7-.7a.068.068,0,0,0-.1,0,.069.069,0,0,0,0,.1l.7.7h-.787a.069.069,0,0,0-.068.068.068.068,0,0,0,.068.068h.787l-.7.7a.069.069,0,0,0,0,.1.071.071,0,0,0,.1,0l.7-.7v.786a.068.068,0,1,0,.136,0v-.786l.7.7a.07.07,0,0,0,.1,0,.069.069,0,0,0,0-.1l-.7-.7h.786a.066.066,0,1,0,0-.132Z" transform="translate(-624.391 -371.935)"/><path class="b" d="M742.748,423.83h-.786l.7-.7a.069.069,0,0,0,0-.1.068.068,0,0,0-.1,0l-.7.7v-.787a.068.068,0,0,0-.068-.068.069.069,0,0,0-.068.068v.787l-.7-.7a.068.068,0,0,0-.1,0,.069.069,0,0,0,0,.1l.7.7h-.787a.069.069,0,0,0-.068.068.068.068,0,0,0,.068.068h.787l-.7.7a.069.069,0,0,0,0,.1.071.071,0,0,0,.1,0l.7-.7v.786a.068.068,0,1,0,.136,0v-.786l.7.7a.07.07,0,0,0,.1,0,.069.069,0,0,0,0-.1l-.7-.7h.786a.066.066,0,1,0,0-.132Z" transform="translate(-642.541 -371.935)"/><path class="b" d="M763.748,423.83h-.786l.7-.7a.069.069,0,0,0,0-.1.068.068,0,0,0-.1,0l-.7.7v-.787a.068.068,0,0,0-.068-.068.069.069,0,0,0-.068.068v.787l-.7-.7a.068.068,0,0,0-.1,0,.069.069,0,0,0,0,.1l.7.7h-.787a.069.069,0,0,0-.068.068.068.068,0,0,0,.068.068h.787l-.7.7a.069.069,0,0,0,0,.1.07.07,0,0,0,.1,0l.7-.7v.786a.068.068,0,1,0,.136,0v-.786l.7.7a.07.07,0,0,0,.1,0,.069.069,0,0,0,0-.1l-.7-.7h.786a.066.066,0,1,0,0-.132Z" transform="translate(-660.691 -371.935)"/><path class="j" d="M806.049,478.778a2.425,2.425,0,0,0-.061-.487,1.582,1.582,0,0,0-.851-1.152,7.146,7.146,0,0,1-1.349-.57c-.081-1.455.252-2.944-.111-4.354a11.087,11.087,0,0,1-.419-1.538,6.806,6.806,0,0,0-.157-1.962,1.936,1.936,0,0,0-1.147-.991,6.109,6.109,0,0,0-1.529-.271c-.651-.053-2.76-.3-3.5.28h0a.768.768,0,0,0-.136.136h0a.55.55,0,0,0-.043.071l-.007.011a.56.56,0,0,0-.037.088h0a.69.69,0,0,0-.023.1v.244c.01.122.027.244.027.365a.788.788,0,0,1-.016.179,1.251,1.251,0,0,1-.225.44h0l-.024.035c-.015.022-.03.042-.043.064s-.024.038-.035.057-.022.031-.031.049a.641.641,0,0,0-.035.069c0,.014-.015.026-.02.039a.686.686,0,0,0-.041.114.757.757,0,0,0-.008.361,1.347,1.347,0,0,0,.186.427c.034.056.071.11.109.164l.095.129a2.953,2.953,0,0,0-.028.38,2.808,2.808,0,0,0,1.072,2.206,8.315,8.315,0,0,1-.017,1.723c-.012.119-.027.24-.043.36s-.028.2-.045.3a1.378,1.378,0,0,1-.593-.045,2.8,2.8,0,0,0-.271-.1c-.395-.1-.8.294-1.189.175a.161.161,0,0,1-.018.054.533.533,0,0,0-.271-.08.99.99,0,0,1-.589-.338l-.517-.487a.575.575,0,0,1-.09-.1.7.7,0,0,1-.062-.167,1.923,1.923,0,0,0-.5-.718.34.34,0,0,0-.148-.107.232.232,0,0,0-.068,0,.619.619,0,0,0-.045-.054,1.281,1.281,0,0,0-.113-.114c-.247-.228-.271-.423-.486-.679a6.514,6.514,0,0,1-.508-.767c-.018-.142-.042-.289-.072-.437a5.641,5.641,0,0,0-.3-.991l-.271-.6-.031.031c-.2-.293-.407-.453-.6-.415-.316.065-.472.679-.422,1.481l.109.814a.247.247,0,0,0,.015.061,1.507,1.507,0,0,0-.03.293c0,.114.106.2.162.3a.848.848,0,0,1,.136.463c-.007.058-.024.114-.027.171a.658.658,0,0,0,.128.353l.679,1.14.136.239.008.011a.58.58,0,0,0,.182.209,2.484,2.484,0,0,0,.224.824c.023.052.049.1.076.149a4.807,4.807,0,0,0,.641.832l.323.362c.319.356.638.712.984,1.041a1.318,1.318,0,0,0,.44.308.5.5,0,0,0,.494-.072v.5a.284.284,0,0,1,.214.446,11.184,11.184,0,0,1-1,2.125,4.523,4.523,0,0,1,.841.642,3.772,3.772,0,0,1,.438.593c.012.1.022.2.027.3a12.162,12.162,0,0,1-1.086,4.765,3.71,3.71,0,0,0-.324,1.349,2.647,2.647,0,0,0-.3.219,2.01,2.01,0,0,1,.056.86,1.526,1.526,0,0,1-.113.543,3.811,3.811,0,0,1-.2.349,5.179,5.179,0,0,0-.5,2.066c-.042.428.124.95-.071,1.333a5.45,5.45,0,0,0-.678,2.087,2.1,2.1,0,0,1-.062.487c-.042.136-.117.251-.155.384a1.645,1.645,0,0,0-.027.543,5.2,5.2,0,0,1-.285,1.915,2.6,2.6,0,0,0-.224,1.5,2.115,2.115,0,0,0-.574,1.261,1.991,1.991,0,0,1-.043.36,1.743,1.743,0,0,1-.163.346,3.029,3.029,0,0,0-.369,1.629,4.532,4.532,0,0,0-.732,1.911c-.121.677-.174,1.367-.328,2.036a18.966,18.966,0,0,0-.653,2.686,1.891,1.891,0,0,0-.714,1.339,5.964,5.964,0,0,1-.314,1.53c-.111.247-.271.468-.377.721a3.317,3.317,0,0,0-.163.62,2.421,2.421,0,0,0-.042,1.018,1.533,1.533,0,0,1-.4.3c.022-.084.039-.168.054-.254-.35.318-.985.206-1.265.588a.572.572,0,0,0,.136.786,1.084,1.084,0,0,0,.281.121,4.491,4.491,0,0,0,2.074.32.622.622,0,0,0,.235-.075.756.756,0,0,0,.219-.252q.157-.248.312-.5a6.446,6.446,0,0,0,.761.178c.026.217.045.434.054.651.136.027.318.035.381-.091a.33.33,0,0,0,.023-.151c0-.1.014-.224.022-.354h.027a2.58,2.58,0,0,0,1.2-.243,7.766,7.766,0,0,1,.749-3.515c.438-1.2.814-2.416,1.193-3.634.272-.858.571-1.688.837-2.547q.5-1.629,1.008-3.257c.146-.478.295-.95.463-1.425a22.2,22.2,0,0,1,1.258-2.8c.136-.257.271-.51.383-.776.136-.324.232-.664.341-1a15.48,15.48,0,0,1,.852-2.006c.009-.018.016-.034.026-.05.11.449.22.905.293,1.357a5.161,5.161,0,0,1,.023,1.677,5.515,5.515,0,0,0-.174,1.137,7.024,7.024,0,0,0,.444,1.524,5.8,5.8,0,0,1,.152,1.167c.038.611.369,1.3.136,1.862-.726,1.793-.375,3.818-.789,5.7-.213.966-.866,1.874-.814,2.862q.054,1.052.185,2.1a2,2,0,0,0,.17.637,2.339,2.339,0,0,0,.186.3c-.06.023-.11.084-.153.213a.837.837,0,0,0,.3.95,1.316,1.316,0,0,0,.392.136,2.064,2.064,0,0,0,.567.079,1.363,1.363,0,0,0,.178-.022,6.476,6.476,0,0,0,.642.231,1.378,1.378,0,0,0,.018.167.207.207,0,0,0,.071.153.211.211,0,0,0,.109.019h.737v-.185a.607.607,0,0,0,.468-.152.725.725,0,0,0,.136-.282q.3-1.022.6-2.045a6.534,6.534,0,0,0,.292-2.334c-.262-2.5.314-5.011.126-7.519a18,18,0,0,1,.231-4.511c.061-.337.136-.679.163-1.014.06-.632-.013-1.272.031-1.9.015-.22.045-.438.072-.657a31.535,31.535,0,0,0,.292-4.092,12.9,12.9,0,0,0-.084-1.357.775.775,0,0,0,.37-.217.922.922,0,0,0,.088-.579,4.2,4.2,0,0,1,.365-1.387,16.513,16.513,0,0,0,.513-1.908,6.66,6.66,0,0,0,.228-1.595q0-.081-.008-.163a.423.423,0,0,0,.125-.136.792.792,0,0,0,.065-.251c.049-.346.1-.693.148-1.041q.054-.373.107-.745l.432-3.012c.036-.262.075-.522.111-.783l.113-.779c.012-.092.026-.185.035-.271C806.4,480.146,806.085,479.408,806.049,478.778Zm-3.6,11.275a2.481,2.481,0,0,1-.271-1.179h-.015a.605.605,0,0,0-.018-.383c-.042-.1-.115-.183-.16-.282a1.036,1.036,0,0,1-.073-.38,10.362,10.362,0,0,1,.194-2.462c.018-.095.037-.191.054-.286a.71.71,0,0,0,.155-.121,1.1,1.1,0,0,0,.175-.271c.153-.308.293-.622.422-.941.042-.1.1-.223.208-.248a5.959,5.959,0,0,1-.263,2.321,1.471,1.471,0,0,0-.136.366c-.03.2.054.407.025.608-.015.1-.06.2-.078.3a.3.3,0,0,0,.079.288.239.239,0,0,0,.058.03c-.008.054-.015.11-.02.163-.011.111-.016.216-.023.281a8.773,8.773,0,0,0-.037,1c0,.36.014.719.008,1.086a.734.734,0,0,1-.051.308.537.537,0,0,1-.1.136A3.557,3.557,0,0,0,802.449,490.053Z" transform="translate(-681.144 -410.374)"/><ellipse class="k" cx="0.765" cy="2.167" rx="0.765" ry="2.167" transform="matrix(0.98, -0.201, 0.201, 0.98, 108.973, 59.839)"/><path class="d" d="M878.131,836.2a.822.822,0,0,0,.3.94,1.345,1.345,0,0,0,.39.136,2.057,2.057,0,0,0,.566.077c.235-.011.46-.1.695-.136a.108.108,0,0,1,.08.011.115.115,0,0,1,.03.095,3.544,3.544,0,0,0,.03.4.2.2,0,0,0,.07.153.211.211,0,0,0,.109.019h.736a7.168,7.168,0,0,0-.21-1.919.433.433,0,0,0-.054-.136.45.45,0,0,0-.235-.136,1.311,1.311,0,0,0-.569-.1,1.667,1.667,0,0,0-.638.312.971.971,0,0,1-.723.175C878.462,836.032,878.257,835.827,878.131,836.2Z" transform="translate(-761.215 -728.651)"/><path class="k" d="M793.018,833.834a2.037,2.037,0,0,1-.742.5l-.125.06a.088.088,0,0,0-.042.034.074.074,0,0,0,.014.061.878.878,0,0,0,1,.362.529.529,0,0,0,.218-.114.716.716,0,0,0,.168-.437.892.892,0,0,0-.02-.5C793.3,833.379,793.227,833.572,793.018,833.834Z" transform="translate(-686.902 -726.876)"/><path class="d" d="M790.545,836a.33.33,0,0,1-.023.151c-.064.125-.242.118-.38.091a9.145,9.145,0,0,0-.167-1.371c-.263-.012-.453.237-.594.461l-.364.577a.753.753,0,0,1-.217.252.646.646,0,0,1-.235.075,4.451,4.451,0,0,1-2.067-.32,1.092,1.092,0,0,1-.281-.12.574.574,0,0,1-.136-.784c.281-.38.912-.271,1.262-.586a3.155,3.155,0,0,1-.179.647c.468-.071.783-.5,1.16-.786a.716.716,0,0,1,.331-.157.731.731,0,0,1,.271.029,3.186,3.186,0,0,1,1.194.588,1.289,1.289,0,0,1,.427.445A3.3,3.3,0,0,1,790.545,836Z" transform="translate(-681.609 -727.374)"/><circle class="k" cx="2.804" cy="2.804" r="2.804" transform="translate(115.468 58.245)"/><path class="d" d="M910.575,613.682a6.648,6.648,0,0,1-.227,1.586,16.374,16.374,0,0,1-.513,1.9,4.179,4.179,0,0,0-.362,1.384.921.921,0,0,1-.089.578.845.845,0,0,1-.4.227.5.5,0,0,0-.334.3,2.1,2.1,0,0,1-.282-.622q-.365-1.118-.679-2.249a.292.292,0,0,1,.019-.271.337.337,0,0,1,.118-.067,1.219,1.219,0,0,0,.376-.242.551.551,0,0,0,.125-.161.731.731,0,0,0,.053-.307c0-.36,0-.718-.01-1.078a8.974,8.974,0,0,1,.038-.995c0-.065.012-.17.023-.281.02-.213.061-.46.177-.543.172-.115.688.039.883.067.337.046.679.1,1.007.164A2.684,2.684,0,0,1,910.575,613.682Z" transform="translate(-786.779 -536.08)"/><path class="d" d="M826.116,502.572c-.109.217-.369.322-.57.459l-.688.472a.458.458,0,0,1-.341.117.448.448,0,0,1-.254-.237.047.047,0,0,0,0-.011l-.142-.239L823.442,502a.648.648,0,0,1-.126-.35c0-.058.02-.113.026-.171a.821.821,0,0,0-.136-.461c-.054-.1-.163-.186-.16-.3a1.086,1.086,0,0,1,.076-.438.886.886,0,0,1,.3-.318c.064-.046.129-.09.2-.136a.39.39,0,0,1,.118-.054c.113-.023.224.071.338.075.49.328.679.95,1.064,1.4.217.255.239.451.484.679.039.035.077.073.114.113a.791.791,0,0,1,.122.176C825.9,502.323,826.171,502.461,826.116,502.572Z" transform="translate(-713.641 -438.384)"/><path class="k" d="M873.081,504.859a2.527,2.527,0,0,1,.3,1.367.855.855,0,0,1-.118.36,1.162,1.162,0,0,1-.962.372.567.567,0,0,0-.418.136.38.38,0,0,0,.026.464,1.047,1.047,0,0,0,.415.271,3.676,3.676,0,0,0,1.787.4c.285-.027.562-.11.845-.152a8.834,8.834,0,0,1,.931-.052c.369-.014.737-.05,1.1-.087l.974-.1a.218.218,0,0,0,.145-.053c.072-.084-.02-.208-.11-.271-.517-.383-1.175-.646-1.47-1.221a7.185,7.185,0,0,1-.278-.888,7.445,7.445,0,0,1-.323-.856,5.666,5.666,0,0,1-.045-.79,1.06,1.06,0,0,0-.271-.722,1.131,1.131,0,0,0-.738-.238,2.39,2.39,0,0,0-1.8.584c-.123.123-.229.271-.357.383s-.3.144-.217.29.25.237.339.366A3.11,3.11,0,0,1,873.081,504.859Z" transform="translate(-755.794 -441.006)"/><path class="d" d="M859.9,524.872a15.421,15.421,0,0,1-.831,3.057,11.532,11.532,0,0,0-.489,1.371c-.1.421-.084.871-.18,1.293-.119.525-.239,1.052-.335,1.581a10.367,10.367,0,0,0-.193,2.456,1.023,1.023,0,0,0,.073.379c.045.1.117.182.159.282a.679.679,0,0,1-.038.543,1.571,1.571,0,0,1-.28.423,17.35,17.35,0,0,1-3.936.334,15.822,15.822,0,0,1-3.64.115,2.886,2.886,0,0,1,.285-1.641,12.056,12.056,0,0,0,1.086-4.75,4.957,4.957,0,0,0-.064-.561,7.43,7.43,0,0,1,.361-3.429,5.884,5.884,0,0,0,.155-2.141,3.911,3.911,0,0,1-.009-.7,1.234,1.234,0,0,1,.255-.655c0-.009.012-.019.019-.029a.188.188,0,0,1,.1,0h0a.087.087,0,0,0,.068,0l.015-.009a.034.034,0,0,1,.039,0c.031.019.049.084.117.1a2.733,2.733,0,0,0,.3.029,1.626,1.626,0,0,1,.361.052h.016a1.058,1.058,0,0,0,.527-.045,1.4,1.4,0,0,0,.323-.125,2.075,2.075,0,0,1,.255-.085c.123-.075.1-.425.122-.569a1.561,1.561,0,0,1,.1-.421.716.716,0,0,1,.581-.338,3.1,3.1,0,0,1,.7.062c.506.072,1.025.06,1.521.176a1.134,1.134,0,0,0,.752.033c.062.015.072.069.072.136a.871.871,0,0,1-.038.186c-.087.375.208.719.479.991a1.536,1.536,0,0,0,.4.319c.136.062.271.088.407.156a.74.74,0,0,1,.272.248,1.038,1.038,0,0,1,.155.395,2.361,2.361,0,0,1-.045.786Z" transform="translate(-737.082 -457.071)"/><path class="l" d="M868.029,533.789a15.417,15.417,0,0,1-.831,3.058,11.538,11.538,0,0,0-.489,1.371c-.1.421-.084.871-.18,1.293-.119.525-.239,1.052-.335,1.581-.029.016-.058.031-.088.045a2.085,2.085,0,0,1-.532.171,3.26,3.26,0,0,1-.993-.033l-1.937-.259a3.9,3.9,0,0,1-2.171-.755,4.631,4.631,0,0,1-.757-1.034,4.953,4.953,0,0,0-.064-.561,7.43,7.43,0,0,1,.361-3.429,5.887,5.887,0,0,0,.155-2.142,3.916,3.916,0,0,1-.01-.7,1.234,1.234,0,0,1,.255-.656.965.965,0,0,1,.121-.027h0a.631.631,0,0,1,.083-.011h.039a.593.593,0,0,1,.136.016,2.418,2.418,0,0,1,.271.1h.016a1.039,1.039,0,0,0,.361.052c.179,0,.364-.029.543-.041a1,1,0,0,1,.643.115,3.866,3.866,0,0,1,.358.327,1.536,1.536,0,0,0,.452.246,4.8,4.8,0,0,0,3.613-.076.707.707,0,0,1,.362-.092.678.678,0,0,1,.26.111c.081.048.162.094.244.136a1.037,1.037,0,0,1,.155.395A2.359,2.359,0,0,1,868.029,533.789Z" transform="translate(-745.215 -465.987)"/><path class="b" d="M861.747,531.231a7.242,7.242,0,0,1-1.547-.678.694.694,0,0,0-.26-.111.731.731,0,0,0-.364.092,4.8,4.8,0,0,1-3.611.076,1.57,1.57,0,0,1-.452-.246,4.055,4.055,0,0,0-.358-.327c-.447-.289-1.064.05-1.564-.136a2.752,2.752,0,0,0-.271-.1c-.395-.1-.8.294-1.185.175a6.608,6.608,0,0,0-.319,1.211,13.176,13.176,0,0,0-.088,1.428c0,.286-.014.573,0,.859a.282.282,0,0,1,.214.445,11.128,11.128,0,0,1-1,2.118,4.6,4.6,0,0,1,.839.641c.475.5.708,1.206,1.221,1.671a3.923,3.923,0,0,0,2.171.753l1.937.259a3.308,3.308,0,0,0,.995.034,2.089,2.089,0,0,0,.531-.172.948.948,0,0,0,.3-.2,1.085,1.085,0,0,0,.175-.271c.153-.307.293-.62.422-.938.045-.113.113-.244.235-.254.719-.649,1.4-1.314,2.117-1.962a4.7,4.7,0,0,0,.772-.814c.357-.528.033-1.276,0-1.914a2.414,2.414,0,0,0-.061-.484A1.555,1.555,0,0,0,861.747,531.231Z" transform="translate(-737.751 -464.328)"/><path class="l" d="M833.866,516.853c-.109.217-.369.322-.57.459l-.688.472a.459.459,0,0,1-.341.117.448.448,0,0,1-.254-.237v-.1a.907.907,0,0,1,.043-.324,1.012,1.012,0,0,1,.3-.391,2.492,2.492,0,0,1,.892-.543.3.3,0,0,1,.163-.016.22.22,0,0,1,.06.026.794.794,0,0,1,.122.177C833.651,516.6,833.922,516.742,833.866,516.853Z" transform="translate(-721.392 -452.666)"/><path class="b" d="M836.558,518.843a.988.988,0,0,1-.588-.336l-.514-.478a.481.481,0,0,1-.09-.1.7.7,0,0,1-.062-.167,1.914,1.914,0,0,0-.5-.717.326.326,0,0,0-.148-.106.3.3,0,0,0-.164.016,2.481,2.481,0,0,0-.892.543,1.014,1.014,0,0,0-.3.391.9.9,0,0,0-.043.324,2.492,2.492,0,0,0,.236,1.037c.023.05.049.1.076.149a4.7,4.7,0,0,0,.638.829l.323.361c.318.356.635.711.98,1.038a1.294,1.294,0,0,0,.44.307.491.491,0,0,0,.5-.081.732.732,0,0,0,.144-.258,5.078,5.078,0,0,0,.419-1.692,6.382,6.382,0,0,0-.03-.7C836.963,518.954,836.788,518.857,836.558,518.843Z" transform="translate(-722.463 -453.225)"/><path class="m" d="M814.461,631.173a31.367,31.367,0,0,1-.29,4.081c-.027.219-.057.437-.072.656-.045.634.029,1.27-.031,1.9-.031.341-.1.679-.161,1.011a17.978,17.978,0,0,0-.231,4.5c.187,2.5-.387,5-.126,7.5a6.052,6.052,0,0,1-.08,1.451,6.165,6.165,0,0,1-.21.877q-.3,1.019-.6,2.036a.7.7,0,0,1-.136.282.644.644,0,0,1-.509.151,5.872,5.872,0,0,1-2.231-.692.778.778,0,0,1-.224-.136c-.148-.153-.136-.395-.2-.6a5.677,5.677,0,0,0-.342-.6,1.963,1.963,0,0,1-.148-.617q-.136-1.042-.185-2.093c-.052-.985.6-1.892.814-2.85.407-1.884.062-3.9.786-5.69.228-.565-.1-1.249-.136-1.857a5.885,5.885,0,0,0-.152-1.164,7.218,7.218,0,0,1-.442-1.52,5.582,5.582,0,0,1,.172-1.133,5.094,5.094,0,0,0-.023-1.673c-.072-.456-.182-.912-.292-1.357l-.024.05a15.321,15.321,0,0,0-.851,2c-.109.332-.2.672-.339.995-.111.271-.248.52-.383.775a22.257,22.257,0,0,0-1.255,2.789c-.168.47-.316.95-.463,1.421l-1.006,3.257c-.271.856-.569,1.684-.835,2.539-.376,1.221-.752,2.432-1.189,3.626a7.833,7.833,0,0,0-.746,3.5,2.579,2.579,0,0,1-1.2.243,7.02,7.02,0,0,1-2.036-.494,1.583,1.583,0,0,1-.7-.418,1.663,1.663,0,0,1-.136-1.375,3.328,3.328,0,0,1,.163-.619c.1-.25.272-.471.377-.718a6.03,6.03,0,0,0,.311-1.524,1.88,1.88,0,0,1,.711-1.337,19.3,19.3,0,0,1,.651-2.679c.155-.669.206-1.357.329-2.036a4.471,4.471,0,0,1,.729-1.907,3.023,3.023,0,0,1,.369-1.629,1.777,1.777,0,0,0,.161-.346,1.976,1.976,0,0,0,.044-.358,2.118,2.118,0,0,1,.573-1.258,2.552,2.552,0,0,1,.223-1.493,5.185,5.185,0,0,0,.285-1.91,1.673,1.673,0,0,1,.026-.543c.038-.136.113-.251.156-.381a2.17,2.17,0,0,0,.061-.487,5.635,5.635,0,0,1,.679-2.082c.2-.383.03-.9.071-1.329a5.137,5.137,0,0,1,.5-2.059c.065-.117.136-.228.194-.349a1.511,1.511,0,0,0,.113-.543,2,2,0,0,0-.056-.858,4.4,4.4,0,0,1,2.661-.814,16.592,16.592,0,0,0,2.824-.156c.271-.061.543-.145.829-.186a5.367,5.367,0,0,1,1.952.2,2.324,2.324,0,0,0,.271,1.177A12.631,12.631,0,0,1,814.461,631.173Z" transform="translate(-692.142 -546.555)"/><path class="l" d="M882.715,673.29l-1.559,3.507c-.072-.456-.182-.912-.292-1.357l-.024.05v-.073l.85-1.869Z" transform="translate(-763.593 -588.361)"/><path class="l" d="M915.4,613.683a.587.587,0,0,1-.309.115,1.506,1.506,0,0,1-.508-.069l-1.221-.305a.6.6,0,0,1-.111-.039c.02-.213.061-.46.176-.543.172-.115.688.039.883.067.337.046.679.1,1.007.164a2.688,2.688,0,0,1,.083.611Z" transform="translate(-791.604 -536.08)"/><path class="b" d="M915.626,557.051c.026.113.062.224.084.338a2.581,2.581,0,0,1-.029.84l-.111.776-.111.78-.43,3-.106.744-.149,1.038a.745.745,0,0,1-.065.25.52.52,0,0,1-.425.251,1.541,1.541,0,0,1-.508-.069l-1.221-.307a.381.381,0,0,1-.149-.061.294.294,0,0,1-.079-.286c.018-.1.062-.2.077-.3.03-.2-.054-.407-.024-.607a1.51,1.51,0,0,1,.136-.365c.407-.9.171-1.95.31-2.927a4.437,4.437,0,0,1,.942-2.1,6.011,6.011,0,0,1,1.04-1.021,2.092,2.092,0,0,1,.585-.407C915.637,556.572,915.585,556.88,915.626,557.051Z" transform="translate(-790.798 -487.523)"/><path class="m" d="M860.526,469.283c-.09.285.05.6-.014.889-.069.32-.37.543-.456.865-.136.49.279.936.583,1.344,1.127,1.512.979,3.6.593,5.449a28.132,28.132,0,0,1-1.282,4.343,3.328,3.328,0,0,1-.691,1.212,3.572,3.572,0,0,1,1.914-.186c.793.22,1.477.989,2.28.814.483-.107.823-.536,1.257-.774a4.3,4.3,0,0,1,2.7-.022,1.061,1.061,0,0,0,.59-.03.983.983,0,0,0,.358-.33,3.347,3.347,0,0,0,.7-1.8,2.315,2.315,0,0,0-.666-1.782,3.812,3.812,0,0,1-.571-.543,1.686,1.686,0,0,1-.224-.823c-.107-1.493.257-3.017-.118-4.461a11.02,11.02,0,0,1-.417-1.534,6.8,6.8,0,0,0-.157-1.957,1.919,1.919,0,0,0-1.144-.988,6.269,6.269,0,0,0-1.525-.271C863.493,468.631,860.837,468.312,860.526,469.283Z" transform="translate(-744.941 -411.445)"/><g class="n" transform="translate(114.319 57.527)"><path d="M865.676,490.677A28.069,28.069,0,0,1,864.4,495c.094-.186.172-.381.247-.575a27.979,27.979,0,0,0,1.282-4.343c.387-1.846.535-3.936-.592-5.449a2.129,2.129,0,0,1-.608-1.175,1.444,1.444,0,0,0-.231.426c-.136.49.28.936.584,1.344C866.209,486.74,866.061,488.833,865.676,490.677Z" transform="translate(-863.702 -481.821)"/><path d="M868.383,472.443a1.319,1.319,0,0,0,.239-.457,2.323,2.323,0,0,0-.016-.605.652.652,0,0,0-.225.311A2.685,2.685,0,0,0,868.383,472.443Z" transform="translate(-867.114 -471.38)"/><path d="M868.617,566.256a.976.976,0,0,1-.358.328,1.037,1.037,0,0,1-.59.03,4.343,4.343,0,0,0-2.7.023c-.436.236-.774.665-1.258.774-.8.179-1.486-.59-2.279-.814a3.182,3.182,0,0,0-1.719.136,2.372,2.372,0,0,1-.449.649,3.571,3.571,0,0,1,1.914-.186c.793.22,1.477.989,2.28.814.483-.107.822-.536,1.257-.774a4.3,4.3,0,0,1,2.7-.022,1.064,1.064,0,0,0,.59-.03.982.982,0,0,0,.358-.33,3.648,3.648,0,0,0,.562-1.075,3.935,3.935,0,0,1-.307.476Z" transform="translate(-859.26 -552.969)"/></g></g></svg>