<svg xmlns="http://www.w3.org/2000/svg" width="165.363" height="122.578" viewBox="0 0 165.363 122.578"><defs><style>.a{fill:#f2f2f2;}.b{fill:#3f3d56;}.c{fill:none;stroke:#3f3d56;stroke-miterlimit:10;stroke-width:4px;}.d{fill:#57b793;}.e{opacity:0.1;}.f{fill:#656380;}.g{opacity:0.2;}.h{fill:#2e5aa9;}.i{opacity:0.05;}.j{fill:#ffc0c6;}.k{fill:#605d82;}.l{fill:#535070;}</style></defs><g transform="translate(0 0.098)"><path class="a" d="M738.1,170.806l1.3-.8c.124-.078.246-.162.371-.24a12.428,12.428,0,0,1-10.308-11.67,12.3,12.3,0,0,1,1.073-5.661,12.448,12.448,0,0,1,7.979-6.884l-.065,5.121,2.813-5.574a.111.111,0,0,1,.035,0,12.426,12.426,0,0,1,12.992,11.834c.01.237,0,.47,0,.7A14.856,14.856,0,0,0,756.743,154c1.191-2.656,1.219-5.664,1.12-9.32-.188-7.246-.5-14.546-.907-21.825A12.419,12.419,0,0,1,745.922,111.1c-.017-.381-.012-.756,0-1.129a1.87,1.87,0,0,1,.014-.279c.024-.361.057-.718.113-1.069a1.018,1.018,0,0,1,.031-.174q.077-.448.183-.885c.028-.108.054-.218.084-.326a9.418,9.418,0,0,1,.294-.937c.036-.1.08-.2.118-.3.089-.226.185-.449.286-.671.054-.117.106-.232.164-.348.014-.03.026-.059.042-.089h0a12.417,12.417,0,0,1,14.589-6.3l-.084,6.664,2.787-5.5a12.349,12.349,0,0,1,5.922,13.389h.014c-.019.089-.047.174-.068.261-.038.164-.08.326-.125.488-.059.207-.125.411-.193.615-.052.152-.1.307-.16.456-.084.219-.174.434-.275.648-.056.125-.106.253-.174.376q-.239.481-.523.941c-.064.106-.138.207-.206.314-.132.206-.266.409-.411.608-.089.122-.185.239-.279.359-.136.174-.275.348-.42.507-.1.117-.207.232-.315.348-.152.16-.308.315-.47.469-.106.1-.214.206-.326.3-.183.162-.374.317-.568.469-.1.077-.192.157-.293.23q-.441.327-.911.615c-.059.035-.122.064-.174.1-.261.155-.523.3-.8.435-.117.057-.239.108-.359.162-.225.1-.451.2-.683.287-.134.051-.272.1-.409.145-.228.078-.46.15-.7.214-.139.038-.277.077-.418.11-.254.061-.514.111-.775.155a.088.088,0,0,0-.05.01q.258,4.605.458,9.216a12.419,12.419,0,0,1,17.244-5.391l-2.2,6.018,4.518-4.339a12.391,12.391,0,0,1,4.006,8.58,12.16,12.16,0,0,1-.315,3.423,12.421,12.421,0,0,1-22.847,3.384c0,.312.023.625.031.937.082,3.226.185,7.239-1.423,10.823a21.742,21.742,0,0,1-4.576,6.171c-1.127,1.151-2.3,2.264-3.494,3.342a12.425,12.425,0,0,1-4.487,3.731q-2.952,2.275-6.114,4.26l-1.28.826c-1.183.733-2.4,1.486-3.585,2.264.209-.021.416-.044.629-.052a12.431,12.431,0,0,1,12.234,8.087l-7.765,6.321,8.535-1.98a12.431,12.431,0,0,1-17.815,11.191c.192.24.385.479.577.718.381.476.761.948,1.132,1.416,5.051,6.4,6.459,12.473,3.956,17.1l-3.041-1.644c2.439-4.508-1.219-10.277-3.628-13.318-.364-.46-.737-.923-1.113-1.393-3.228-4.006-6.885-8.556-6.793-14.131C723.372,179.932,731.54,174.868,738.1,170.806Z" transform="translate(-619.076 -98.18)"/><ellipse class="b" cx="79.338" cy="3.658" rx="79.338" ry="3.658" transform="translate(0 115.164)"/><path class="c" d="M938.136,672.811c.523-.96-.07-2.135-.745-2.992s-1.5-1.742-1.482-2.837c.024-1.568,1.688-2.492,3.018-3.323a14.775,14.775,0,0,0,2.709-2.179,3.968,3.968,0,0,0,.834-1.115,4.549,4.549,0,0,0,.249-1.982q-.087-3.355-.331-6.7" transform="translate(-794.702 -555.353)"/><path class="d" d="M964.441,639.943a2.449,2.449,0,0,0-1.219-2l-.547,1.083.016-1.31a2.444,2.444,0,1,0,1.742,2.229Z" transform="translate(-814.227 -543.734)"/><path class="d" d="M940.749,729.146a2.439,2.439,0,1,1,.117-1.968l-1.526,1.242,1.679-.39A2.438,2.438,0,0,1,940.749,729.146Z" transform="translate(-794.895 -616.391)"/><path class="d" d="M943.539,695.533a2.439,2.439,0,0,1-2.554-2.329,2.4,2.4,0,0,1,.211-1.113,2.449,2.449,0,0,1,1.568-1.355l-.012,1.009.554-1.1h0a2.445,2.445,0,1,1,.228,4.886Z" transform="translate(-798.892 -587.531)"/><path class="d" d="M977.61,672.863a2.441,2.441,0,1,1,1.08-4.567l-.432,1.184.888-.853a2.439,2.439,0,0,1,.791,1.688,2.382,2.382,0,0,1-.063.672A2.438,2.438,0,0,1,977.61,672.863Z" transform="translate(-827.029 -568.817)"/><path class="e" d="M964.241,646.912c-.564.063-1.113.239-1.679.274a1.827,1.827,0,0,1-1.547-.542,7.741,7.741,0,0,1-.453-.794,1.742,1.742,0,0,0-.615-.58,2.439,2.439,0,1,0,4.57,1.623C964.424,646.9,964.332,646.9,964.241,646.912Z" transform="translate(-814.357 -550.06)"/><path class="e" d="M977.583,679.484A2.439,2.439,0,0,1,975.257,676a1.81,1.81,0,0,1,.491.493,7.892,7.892,0,0,0,.484.808,1.993,1.993,0,0,0,1.622.566c.59-.028,1.158-.193,1.742-.247.08,0,.164-.014.246-.016A2.438,2.438,0,0,1,977.583,679.484Z" transform="translate(-827.001 -575.437)"/><path class="e" d="M943.539,702.392a2.439,2.439,0,0,1-2.554-2.329,2.4,2.4,0,0,1,.211-1.113,2.006,2.006,0,0,1,.523.5c.19.268.308.577.522.824a2.258,2.258,0,0,0,1.731.606c.625-.016,1.188-.162,1.791-.207A2.449,2.449,0,0,1,943.539,702.392Z" transform="translate(-798.892 -594.39)"/><path class="e" d="M940.436,736.5a2.443,2.443,0,0,1-4.457-2,2.539,2.539,0,0,1,.537.479,9.646,9.646,0,0,0,.655.871,3.042,3.042,0,0,0,2.024.711A10.5,10.5,0,0,0,940.436,736.5Z" transform="translate(-794.583 -623.748)"/><path class="f" d="M927.54,761.7a7.06,7.06,0,0,0,2.51-.474c.582-.415,2.961-.909,3.113-.244s2.9,3.309.721,3.32a18.816,18.816,0,0,1-5.642-.7C927.662,763.261,927.54,761.7,927.54,761.7Z" transform="translate(-787.791 -645.352)"/><path class="g" d="M933.922,768.988a18.6,18.6,0,0,1-5.642-.7c-.441-.268-.618-1.235-.676-1.681h-.064s.122,1.555.7,1.916,3.463.711,5.642.7c.629,0,.847-.23.834-.561C934.631,768.859,934.39,768.984,933.922,768.988Z" transform="translate(-787.791 -650.265)"/><path class="c" d="M266.575,497.905c-1.265-2.341.174-5.208,1.818-7.295s3.658-4.257,3.614-6.917c-.063-3.822-4.118-6.077-7.357-8.1a35.934,35.934,0,0,1-6.607-5.311,9.649,9.649,0,0,1-2.031-2.719,11.036,11.036,0,0,1-.608-4.83q.209-8.186.808-16.341" transform="translate(-232.713 -385.82)"/><path class="d" d="M224.729,417.768a5.959,5.959,0,0,1,2.975-4.877l1.334,2.639-.04-3.194a5.96,5.96,0,1,1-4.269,5.438Z" transform="translate(-207.389 -357.496)"/><path class="d" d="M282.658,635.121a5.957,5.957,0,0,0,11.25-2.439,5.88,5.88,0,0,0-.388-2.418,5.96,5.96,0,0,0-11.147.064l3.722,3.027L282,632.4A5.893,5.893,0,0,0,282.658,635.121Z" transform="translate(-254.69 -534.516)"/><path class="d" d="M275.767,553.336a5.96,5.96,0,0,0,1.89-11.691l.031,2.454-1.341-2.67h-.016a5.961,5.961,0,1,0-.556,11.909Z" transform="translate(-244.857 -464.3)"/><path class="d" d="M192.645,498.064a5.96,5.96,0,1,0-2.634-11.147l1.045,2.886-2.158-2.085a5.933,5.933,0,0,0-1.933,4.114,5.812,5.812,0,0,0,.152,1.641A5.959,5.959,0,0,0,192.645,498.064Z" transform="translate(-176.203 -418.655)"/><path class="e" d="M226.131,434.806c1.376.152,2.714.578,4.093.664a4.45,4.45,0,0,0,3.769-1.317,18.582,18.582,0,0,0,1.1-1.94,4.229,4.229,0,0,1,1.5-1.413,5.96,5.96,0,1,1-11.147,3.956C225.682,434.766,225.908,434.782,226.131,434.806Z" transform="translate(-207.99 -372.946)"/><path class="e" d="M193.431,514.25a5.964,5.964,0,0,0,5.67-8.5,4.408,4.408,0,0,0-1.2,1.2,19.318,19.318,0,0,1-1.181,1.97,4.878,4.878,0,0,1-3.952,1.383c-1.439-.064-2.827-.475-4.259-.606-.2-.017-.4-.031-.6-.037a5.959,5.959,0,0,0,5.521,4.591Z" transform="translate(-176.989 -434.841)"/><path class="e" d="M276.979,570.04a5.959,5.959,0,0,0,5.717-8.39,4.819,4.819,0,0,0-1.259,1.219,20.443,20.443,0,0,1-1.294,2.008,5.509,5.509,0,0,1-4.219,1.479c-1.475-.031-2.9-.394-4.363-.507A5.964,5.964,0,0,0,276.979,570.04Z" transform="translate(-246.069 -481.004)"/><path class="e" d="M285.78,653.216a5.957,5.957,0,0,0,11.25-2.439,5.879,5.879,0,0,0-.388-2.418,5.967,5.967,0,0,0-1.306,1.165,22.91,22.91,0,0,1-1.6,2.118,7.515,7.515,0,0,1-4.936,1.742A25.577,25.577,0,0,1,285.78,653.216Z" transform="translate(-257.812 -552.611)"/><path class="h" d="M223.939,535.122l-22.992,4.7-.523-.052-20.2-2.038v-25.6l24.733-4.18,17.94,2.09.005.113,0,.056Z" transform="translate(-148.829 -419.557)"/><path class="e" d="M319.734,545.569l-22.992,4.7-.523-.052V523.97l22.474-3.37Z" transform="translate(-244.625 -430.004)"/><path class="i" d="M222.9,510.209l-.007.005-22.469,3.309-20.2-1.393,24.733-4.18,17.94,2.09.005.113Z" transform="translate(-148.829 -419.557)"/><path class="b" d="M368.939,541.122l-22.992,4.7-.523-.052-20.2-2.038v-25.6l24.733-4.18,17.94,2.09.005.113,0,.056Z" transform="translate(-268.574 -424.512)"/><path class="e" d="M464.734,551.569l-22.992,4.7-.523-.052V529.97l22.474-3.37Z" transform="translate(-364.369 -434.958)"/><path class="i" d="M367.9,516.209l-.007.005-22.469,3.309-20.2-1.393,24.733-4.18,17.94,2.09.005.113Z" transform="translate(-268.574 -424.512)"/><path class="b" d="M277.939,397.122l-22.992,4.7-.523-.052-20.2-2.038v-25.6l24.733-4.18,17.94,2.09.005.113,0,.056Z" transform="translate(-193.424 -305.594)"/><path class="e" d="M373.734,407.569l-22.992,4.7-.522-.052V385.97l22.474-3.37Z" transform="translate(-289.219 -316.04)"/><path class="i" d="M276.9,372.209l-.007.005-22.469,3.309-20.2-1.393,24.733-4.18,17.94,2.09.005.113Z" transform="translate(-193.424 -305.594)"/><path class="b" d="M452.037,464.872l-12,2.456-.273-.028-10.545-1.064V452.872l12.908-2.182,9.364,1.092,0,.059v.028Z" transform="translate(-354.459 -372.27)"/><path class="e" d="M502.033,470.33l-12,2.456-.273-.028v-13.7l11.731-1.759Z" transform="translate(-404.454 -377.729)"/><path class="i" d="M451.5,451.869l0,0L439.765,453.6l-10.545-.728,12.908-2.182,9.364,1.092,0,.059Z" transform="translate(-354.459 -372.27)"/><path class="b" d="M267.037,315.872l-12,2.454-.273-.026-10.545-1.064V303.872l12.908-2.182,9.364,1.092,0,.059v.028Z" transform="translate(-201.682 -249.223)"/><path class="e" d="M317.033,321.33l-12,2.454-.273-.026v-13.7l11.731-1.759Z" transform="translate(-251.677 -254.682)"/><path class="i" d="M266.5,302.869l0,0L254.765,304.6l-10.545-.728,12.908-2.182,9.364,1.092,0,.059Z" transform="translate(-201.682 -249.223)"/><path class="h" d="M388.037,312.872l-12,2.454-.273-.026-10.545-1.064V300.872l12.908-2.182,9.364,1.092,0,.059v.028Z" transform="translate(-301.606 -246.746)"/><path class="e" d="M438.033,318.33l-12,2.454-.273-.026v-13.7l11.731-1.759Z" transform="translate(-351.602 -252.204)"/><path class="i" d="M387.5,299.869l0,0L375.765,301.6l-10.545-.728,12.908-2.182,9.364,1.092,0,.059Z" transform="translate(-301.606 -246.746)"/><path class="b" d="M424.037,235.872l-12,2.454-.273-.026-10.545-1.064V223.872l12.908-2.182,9.364,1.092,0,.059v.028Z" transform="translate(-331.336 -183.157)"/><path class="e" d="M474.033,241.33l-12,2.454-.273-.026v-13.7l11.731-1.759Z" transform="translate(-381.331 -188.616)"/><path class="i" d="M423.5,222.869l0,0L411.765,224.6l-10.545-.728,12.908-2.182,9.364,1.092,0,.059Z" transform="translate(-331.336 -183.157)"/><path class="j" d="M697.471,227.645c-.127,1.132-.991,2.045-1.312,3.135a5.209,5.209,0,0,0,1.491,4.7,10.41,10.41,0,0,0,7.249,3.438,3.12,3.12,0,0,0,1.2-.131,2.6,2.6,0,0,0,.911-.624,5.825,5.825,0,0,0,1.5-3.259,17.432,17.432,0,0,0,.042-3.642,2.061,2.061,0,0,0-.136-.735,1.868,1.868,0,0,0-.472-.58,10.975,10.975,0,0,0-2.029-1.475,2.279,2.279,0,0,1-.85-.65,2.125,2.125,0,0,1-.263-.779l-.225-1.143a2.24,2.24,0,0,0-.329-.927,2.28,2.28,0,0,0-1.817-.632l-2.439-.1a11.663,11.663,0,0,0-2.494-.1c-.7.138-.462.775-.336,1.353A9.791,9.791,0,0,1,697.471,227.645Z" transform="translate(-596.598 -202.249)"/><path class="e" d="M697.471,227.645c-.127,1.132-.991,2.045-1.312,3.135a5.209,5.209,0,0,0,1.491,4.7,10.41,10.41,0,0,0,7.249,3.438,3.12,3.12,0,0,0,1.2-.131,2.6,2.6,0,0,0,.911-.624,5.825,5.825,0,0,0,1.5-3.259,17.432,17.432,0,0,0,.042-3.642,2.061,2.061,0,0,0-.136-.735,1.868,1.868,0,0,0-.472-.58,10.975,10.975,0,0,0-2.029-1.475,2.279,2.279,0,0,1-.85-.65,2.125,2.125,0,0,1-.263-.779l-.225-1.143a2.24,2.24,0,0,0-.329-.927,2.28,2.28,0,0,0-1.817-.632l-2.439-.1a11.663,11.663,0,0,0-2.494-.1c-.7.138-.462.775-.336,1.353A9.791,9.791,0,0,1,697.471,227.645Z" transform="translate(-596.598 -202.249)"/><path class="k" d="M733.27,510.617l-1.035,11.342c-.27,2.975-.545,5.962-1.075,8.9-.174,1.012-.4,2.019-.651,3.017a64.191,64.191,0,0,0-2.064,8.321c-.01.082-.019.174-.028.249a7.462,7.462,0,0,1-.348,1.846c-.174.434-.42.829-.6,1.258a8.241,8.241,0,0,0-.448,2.733,11.778,11.778,0,0,0-4.057-1.393,3,3,0,0,1-1.916-.7,2.736,2.736,0,0,1-.375-2.2q.411-3.553.819-7.1a18.509,18.509,0,0,1,.523-3.017c.094-.329.207-.653.322-.977.159-.446.319-.892.439-1.35a16.242,16.242,0,0,0,.345-2.235c.28-2.383.618-4.76.914-7.141l.016-.125a73.037,73.037,0,0,0,.684-10.871c-.014-.538-.037-1.076-.071-1.616-.049-.782-.12-1.2.523-1.686a12.183,12.183,0,0,1,2.477-1.272c.441-.192,5.293-1.916,5.4-1.536a9.458,9.458,0,0,1,.348,2.477,27.553,27.553,0,0,1-.143,3.078Z" transform="translate(-616.91 -434.228)"/><path class="e" d="M739.24,611.625c-.174,1.012-.4,2.019-.651,3.017a64.216,64.216,0,0,0-2.064,8.32c-.01.082-.019.174-.028.249-2.163-3.09-3.985-6.413-6.1-9.536.159-.446.319-.892.439-1.35a16.243,16.243,0,0,0,.362-2.249c.28-2.383.618-4.76.914-7.141l.016-.125a7.4,7.4,0,0,0,.522,1.465c1.418,2.881,4.786,4.337,6.434,7.094Q739.17,611.5,739.24,611.625Z" transform="translate(-624.989 -514.995)"/><path class="k" d="M680.324,441.494a53.573,53.573,0,0,0,.81,6.882l.761,4.7a24.1,24.1,0,0,0,2.071,7.514,34.677,34.677,0,0,0,3.416,4.75c2.923,3.808,5.119,8.122,7.89,12.041.806,1.139,1.958,2.372,3.332,2.134a5.389,5.389,0,0,0,2.264-1.486,14.085,14.085,0,0,0,2.5-2.04c.658-.857.787-2.278-.1-2.888a4.814,4.814,0,0,0-1.021-.418,5.524,5.524,0,0,1-2.844-3.24,30.862,30.862,0,0,0-1.672-4.1c-1.648-2.757-5.018-4.213-6.436-7.1a12.807,12.807,0,0,1-.93-5.272l-.155-4.583a3.339,3.339,0,0,1,.174-1.481c.542-1.219,2.179-1.334,3.506-1.489a11.974,11.974,0,0,0,4.3-1.355,4.456,4.456,0,0,0,1.916-1.705,5.48,5.48,0,0,0,.467-2.308l.46-8.307a5.239,5.239,0,0,0-.174-2.123c-.632-1.683-2.757-2.233-4.553-2.153-3.341.15-6.424,1.587-9.58,2.559a24.485,24.485,0,0,1-2.374.618,19.249,19.249,0,0,0-2.236.31c-1.2.4-1.169,3.027-1.338,4.114A34.529,34.529,0,0,0,680.324,441.494Z" transform="translate(-583.627 -370.193)"/><path class="l" d="M779.566,702.86a2.129,2.129,0,0,1,.467,1.144,39.042,39.042,0,0,1,.662,6.917,1.145,1.145,0,0,0,.124.627.8.8,0,0,0,.326.261c.852.406,1.839-.16,2.55-.782a6.575,6.575,0,0,0,2.5-4.445,10.218,10.218,0,0,1,.047-1.348,5.611,5.611,0,0,1,.838-1.806,15.333,15.333,0,0,0,1.393-3.1c.129-.408.216-.92-.1-1.2a1.118,1.118,0,0,0-.378-.2l-3.849-1.428c-.334-.124-1.164,2.007-1.294,2.24a1.763,1.763,0,0,1-1.289,1.024c-.646.132-1.444-.059-2.061.27C778.455,701.585,778.976,702.266,779.566,702.86Z" transform="translate(-665.042 -593.184)"/><path class="l" d="M727.9,732.724a1.174,1.174,0,0,0-.293-.371,1.311,1.311,0,0,0-.59-.2,2.3,2.3,0,0,0-2.106.338c-.474.51-.392,1.341-.787,1.916a5.973,5.973,0,0,0-.4.522,1.96,1.96,0,0,0-.174.937c-.021.887-.042,1.777.021,2.661a3.713,3.713,0,0,0,.639,2.1c.745.934,2.09,1.068,3.282,1.127l.967.051a1.917,1.917,0,0,0,.791-.073,1.3,1.3,0,0,0,.683-.751c.5-1.251-.293-2.6-.784-3.851C728.573,735.688,728.674,734.088,727.9,732.724Z" transform="translate(-619.307 -621.733)"/><path class="b" d="M687.065,175.286a.79.79,0,0,1,.054-.373c.141-.249.51-.174.789-.111a18.413,18.413,0,0,0,3.456.092c1.155.066,2.454.643,2.686,1.775a8.4,8.4,0,0,0,2.13-2.188,2.625,2.625,0,0,0,.556-1.6,3.148,3.148,0,0,0-1.393-1.975l-1.916-1.568a2.911,2.911,0,0,0-.86-.547,4.281,4.281,0,0,0-1.393-.078c-1.393,0-2.888-.636-4.13,0a4.408,4.408,0,0,0-1.287,1.17l-1.712,2.027a1.082,1.082,0,0,0-.275.465,2.048,2.048,0,0,0,.124.74c.08.453-.115.937.035,1.373.249.721,1.127.824,1.663,1.238.2.153.512.678.751.671C686.76,176.386,687.053,175.62,687.065,175.286Z" transform="translate(-586.47 -156.273)"/><circle class="j" cx="5.487" cy="5.487" r="5.487" transform="translate(98.014 14.019)"/><path class="b" d="M664.2,251.562a2.658,2.658,0,0,0-2.58-1.78.775.775,0,0,1-.477-.061.66.66,0,0,1-.2-.244,9.706,9.706,0,0,1-.8-1.892c-.087-.291-.207-.634-.5-.709a.673.673,0,0,0-.638.279,6.1,6.1,0,0,1-.456.573c-.7.617-1.916.054-2.646.62-.12.092-.219.211-.348.3a1.584,1.584,0,0,1-.4.174A38.556,38.556,0,0,0,651,250.444a39.08,39.08,0,0,0,2.128,8.665c.543,1.306,1.158,2.587,1.594,3.933a30.541,30.541,0,0,1,1.019,9.313,19.534,19.534,0,0,1-.7,6.368,6.16,6.16,0,0,0-.392,1.393,1.449,1.449,0,0,0,.491,1.3,1.657,1.657,0,0,0,.758.267,9.846,9.846,0,0,0,3.6-.418,96.9,96.9,0,0,1,9.646-1.568l5.417-.7a3.169,3.169,0,0,0,1.122-.291,2.145,2.145,0,0,0,.469-2.98c-.294-.455-.711-.827-.96-1.308a1.215,1.215,0,0,1,.159-1.489c.871-.679.61-1.939.651-3.039q.174-4.619-.047-9.231a18.06,18.06,0,0,1-.031-1.916,16.894,16.894,0,0,1,.6-3.2l1.646-6.479a3.379,3.379,0,0,0-2.033-1.306c-.779-.2-1.592-.253-2.36-.491-1.568-.488-2.975-1.724-4.617-1.609a.845.845,0,0,0-.359.087c-.369.211-.312.744-.334,1.169a3.234,3.234,0,0,1-1.508,2.28,27.245,27.245,0,0,0-2.339,1.582A1.045,1.045,0,0,0,664.2,251.562Z" transform="translate(-559.419 -220.051)"/><path class="j" d="M588.174,305.169a6.438,6.438,0,0,1-1.153.594,3.832,3.832,0,0,0-1.106.536,1.753,1.753,0,0,0-.385.476,2.113,2.113,0,0,0,1.947,3.147,4.246,4.246,0,0,0,1.44-.43l3.87-1.684a3.04,3.04,0,0,0,1.672-1.259.3.3,0,0,0,.038-.2.329.329,0,0,0-.16-.174,8.669,8.669,0,0,1-2.252-2.125c-.158-.216-.348-.725-.578-.855C590.689,302.739,588.83,304.744,588.174,305.169Z" transform="translate(-505.127 -267.511)"/><path class="j" d="M795.729,307l1.426,1.63c.307.348.613.7.892,1.073a12.485,12.485,0,0,1,1.634,3.078,5.381,5.381,0,0,1,.46,2.545,6.269,6.269,0,0,1-.357,1.294,16.012,16.012,0,0,1-.97,2.334,13.3,13.3,0,0,1-1.085,1.632,38.155,38.155,0,0,1-3.618,4.137,4.652,4.652,0,0,0-.9,1.916,8.009,8.009,0,0,1-2.224,3.031,6.132,6.132,0,0,1-.956.822,3.1,3.1,0,0,1-1.742.495,1.916,1.916,0,0,1-.782-.162,2.023,2.023,0,0,1-.995-1.684,3.606,3.606,0,0,1,.3-1.8c.819-1.813,2.921-2.6,4.407-3.922a14.385,14.385,0,0,0,2.2-2.714,9.416,9.416,0,0,0,1.109-1.946c.331-.887.2-1.935.493-2.834.122-.381.348-.725.472-1.1a1.306,1.306,0,0,0-.066-1.151,1.664,1.664,0,0,0-.646-.474c-.949-.481-2.012-1.1-2.193-2.151A2.3,2.3,0,0,1,793,309.4a6.794,6.794,0,0,1,1.2-1.254C794.614,307.772,795.313,307.359,795.729,307Z" transform="translate(-671.311 -270.709)"/><path class="j" d="M565.48,321.073a2.639,2.639,0,0,0-1.075-1.28,1.979,1.979,0,0,0-1.568,0,5.942,5.942,0,0,0-1.372.829l-1.23.908a3.026,3.026,0,0,0-.73.674,2.806,2.806,0,0,0-.38,1.045,7.59,7.59,0,0,0-.193,2.58,7.339,7.339,0,0,0,1.951,3.658,3.258,3.258,0,0,0,2.16,1.353.991.991,0,0,0,.954-.481,1.188,1.188,0,0,0,.085-.428,9.546,9.546,0,0,0-1.1-4.466,2.763,2.763,0,0,1-.348-1.2.325.325,0,0,1,.052-.2.338.338,0,0,1,.209-.1c.883-.174,2.405.512,3.024-.469C566.316,322.842,565.766,321.649,565.48,321.073Z" transform="translate(-483.35 -281.14)"/><path class="b" d="M685.422,165.376a.811.811,0,0,1,.056-.373c.141-.251.51-.174.789-.111a18.413,18.413,0,0,0,3.456.092c1.155.066,2.452.643,2.686,1.775a8.452,8.452,0,0,0,2.13-2.188,2.633,2.633,0,0,0,.556-1.6,3.146,3.146,0,0,0-1.393-1.973l-1.916-1.568a2.9,2.9,0,0,0-.859-.547,4.284,4.284,0,0,0-1.393-.078c-1.393,0-2.888-.636-4.13,0a4.408,4.408,0,0,0-1.287,1.17L682.4,162a1.086,1.086,0,0,0-.273.465,2.047,2.047,0,0,0,.124.74c.08.453-.115.937.035,1.371.249.723,1.127.826,1.663,1.24.2.153.512.678.751.671C685.113,166.476,685.406,165.71,685.422,165.376Z" transform="translate(-585.116 -148.089)"/><path class="b" d="M620.266,275.565a2.275,2.275,0,0,0-.575.535c-.2.3-.242.7-.414,1.01-.369.686-1.235.932-1.773,1.494a.556.556,0,0,0-.174.293.646.646,0,0,0,.145.422l2.6,4.09c.871.077,1.7-.467,2.564-.394a2.586,2.586,0,0,0,.965.042,2.8,2.8,0,0,0,.618-.378c.523-.327,1.205-.366,1.639-.8a2.192,2.192,0,0,0,.465-1.65,6.5,6.5,0,0,0-.155-1.515c-.383-1.568-1.583-2.776-2.336-4.166-.367-.678-.566-1.073-1.341-.608S621,275.028,620.266,275.565Z" transform="translate(-531.613 -243.243)"/><path class="b" d="M794.421,265.788a6.107,6.107,0,0,1,1.31,1.146c.4.51.62,1.137,1,1.66a18.134,18.134,0,0,0,1.289,1.366,10.407,10.407,0,0,1,1.487,2.423,36.335,36.335,0,0,1-3.365,3.8,1.078,1.078,0,0,1-.512.334.82.82,0,0,1-.721-.294c-.188-.2-.32-.439-.5-.643a2.569,2.569,0,0,0-1.59-.768,10.925,10.925,0,0,0-1.8-.026.7.7,0,0,1-.385-.064.635.635,0,0,1-.209-.24,5.99,5.99,0,0,1-.23-4.072l.57-3.135a7.042,7.042,0,0,1,.475-1.742c.216-.462.7-1.245,1.292-1.106S793.917,265.426,794.421,265.788Z" transform="translate(-674.169 -235.534)"/><path class="h" d="M297.037,238.872l-12,2.454-.273-.026-10.545-1.064V226.872l12.908-2.182,9.364,1.092,0,.059v.028Z" transform="translate(-226.457 -185.635)"/><path class="e" d="M347.033,244.33l-12,2.454-.273-.026v-13.7l11.731-1.759Z" transform="translate(-276.452 -191.094)"/><path class="i" d="M296.5,225.869l0,0L284.765,227.6l-10.545-.728,12.908-2.182,9.364,1.092,0,.059Z" transform="translate(-226.457 -185.635)"/><path class="b" d="M333.037,162.872l-12,2.456-.273-.028-10.545-1.064V150.872l12.908-2.182,9.364,1.092,0,.059v.028Z" transform="translate(-256.186 -122.872)"/><path class="e" d="M383.033,168.33l-12,2.456-.273-.028v-13.7l11.731-1.759Z" transform="translate(-306.181 -128.331)"/><path class="i" d="M332.5,149.869l0,0L320.765,151.6l-10.545-.728,12.908-2.182,9.364,1.092,0,.059Z" transform="translate(-256.186 -122.872)"/></g></svg>