<svg xmlns="http://www.w3.org/2000/svg" width="179.647" height="108.505" viewBox="0 0 179.647 108.505"><defs><style>.a,.c{fill:#2e5aa9;}.a,.d,.e,.n{opacity:0.1;}.b,.i{fill:#3f3d56;}.f{fill:#d0d2d5;}.g{fill:#444053;}.h{fill:#fff;}.i{opacity:0.2;}.j{fill:#efb7b9;}.k{fill:#454b69;}.l{fill:#464353;}.m{fill:#a1616a;}.n{fill:none;stroke:#000;stroke-miterlimit:10;}</style></defs><g transform="translate(0 0.355)"><path class="a" d="M204.683,260.137a29.4,29.4,0,0,1-2.551,4.9,21.209,21.209,0,0,1-1.545,2.124l-.017.02H27.8l.031-.022c.155-.121,1.068-.86,2.487-2.124,1.018-.908,2.3-2.086,3.731-3.5,11.736-11.543,34.279-38.865,15.5-63.894C32.1,174.37,50.892,170.146,63.288,169.655a35.484,35.484,0,0,1,13.971,2.284,124.005,124.005,0,0,0,29.83,7.042q.672.076,1.356.146a130.617,130.617,0,0,0,21.73.393h0c.213-.011.428-.026.644-.042a129.3,129.3,0,0,0,21.254-3.29c.452-.11.9-.215,1.343-.311,23.261-5.382,44.705,12.961,39.345,33.691-1.984,7.666-1.48,15.84,5.13,22.45C208.7,242.814,207.387,253.441,204.683,260.137Z" transform="translate(-26.929 -159.289)"/><ellipse class="b" cx="2.184" cy="1.668" rx="2.184" ry="1.668" transform="matrix(0.488, -0.873, 0.873, 0.488, 137.028, 43.044)"/><ellipse class="b" cx="2.184" cy="1.668" rx="2.184" ry="1.668" transform="matrix(0.488, -0.873, 0.873, 0.488, 138.33, 40.714)"/><ellipse class="b" cx="2.184" cy="1.668" rx="2.184" ry="1.668" transform="matrix(0.488, -0.873, 0.873, 0.488, 139.634, 38.384)"/><ellipse class="b" cx="2.184" cy="1.668" rx="2.184" ry="1.668" transform="matrix(0.488, -0.873, 0.873, 0.488, 140.936, 36.052)"/><ellipse class="b" cx="2.184" cy="1.668" rx="2.184" ry="1.668" transform="matrix(0.488, -0.873, 0.873, 0.488, 142.237, 33.723)"/><ellipse class="b" cx="2.184" cy="1.668" rx="2.184" ry="1.668" transform="matrix(0.488, -0.873, 0.873, 0.488, 143.541, 31.393)"/><ellipse class="b" cx="2.184" cy="1.668" rx="2.184" ry="1.668" transform="matrix(0.488, -0.873, 0.873, 0.488, 144.844, 29.063)"/><path class="c" d="M950.057,116.26a8.147,8.147,0,0,0,.989-.494L947.571,113l4.118,2.344a8.008,8.008,0,0,0,3.223-5.452l-7.162-.224,7.224-.9A7.992,7.992,0,1,0,939.1,110.13a8.033,8.033,0,0,0-1.506.827l3.527,5.357-4.3-4.738a7.994,7.994,0,0,0-2.539,7.179,7.991,7.991,0,1,0,10.966,6.13,7.989,7.989,0,0,0,4.819-8.625Z" transform="translate(-788.332 -101.19)"/><path class="d" d="M935.189,182.793a7.971,7.971,0,0,0-.911,5.147,7.991,7.991,0,1,0,10.966,6.13C946.834,193.407,935.627,182.016,935.189,182.793Z" transform="translate(-788.332 -170.375)"/><path class="b" d="M990.277,631.77h1.883a3.886,3.886,0,0,1,3.887,3.887v5.769H986.39v-5.769A3.887,3.887,0,0,1,990.277,631.77Z" transform="translate(-833.046 -533.855)"/><path class="d" d="M990.277,631.77h1.883a3.886,3.886,0,0,1,3.887,3.887v5.769H986.39v-5.769A3.887,3.887,0,0,1,990.277,631.77Z" transform="translate(-833.046 -533.855)"/><circle class="b" cx="0.773" cy="0.773" r="0.773" transform="translate(157.014 98.494)"/><circle class="b" cx="0.773" cy="0.773" r="0.773" transform="translate(157.014 97.529)"/><circle class="b" cx="0.773" cy="0.773" r="0.773" transform="translate(157.014 96.562)"/><circle class="b" cx="0.773" cy="0.773" r="0.773" transform="translate(157.014 95.597)"/><circle class="b" cx="0.773" cy="0.773" r="0.773" transform="translate(157.014 94.631)"/><circle class="b" cx="0.773" cy="0.773" r="0.773" transform="translate(157.014 93.666)"/><circle class="b" cx="0.773" cy="0.773" r="0.773" transform="translate(157.014 92.701)"/><circle class="b" cx="0.773" cy="0.773" r="0.773" transform="translate(158.172 93.086)"/><circle class="b" cx="0.773" cy="0.773" r="0.773" transform="translate(158.945 92.701)"/><circle class="b" cx="0.773" cy="0.773" r="0.773" transform="translate(159.718 92.313)"/><circle class="b" cx="0.773" cy="0.773" r="0.773" transform="translate(157.014 91.735)"/><circle class="b" cx="0.773" cy="0.773" r="0.773" transform="translate(157.014 90.77)"/><circle class="b" cx="0.773" cy="0.773" r="0.773" transform="translate(157.014 89.803)"/><circle class="b" cx="0.773" cy="0.773" r="0.773" transform="translate(157.014 88.837)"/><path class="c" d="M1022.509,648.719q-.287.042-.578.061a4.44,4.44,0,0,0,.5-.51,3.262,3.262,0,0,0-.466-.906,1.608,1.608,0,0,1-.622.2c-.191.028-.384.048-.577.061a10.3,10.3,0,0,0,.739-.777,3.28,3.28,0,1,0,1.077,2.427,3.2,3.2,0,0,0-.05-.564Z" transform="translate(-861.52 -561.599)"/><path class="c" d="M1057.6,686.141a1.521,1.521,0,0,1-.65.218c-.191.028-.384.048-.577.061a5.667,5.667,0,0,0,.572-.594,2,2,0,0,0-.495-.065,1.934,1.934,0,1,0,1.149.381Z" transform="translate(-894.032 -595.183)"/><circle class="b" cx="0.773" cy="0.773" r="0.773" transform="translate(155.854 93.086)"/><circle class="b" cx="0.773" cy="0.773" r="0.773" transform="translate(155.082 92.701)"/><circle class="b" cx="0.773" cy="0.773" r="0.773" transform="translate(154.311 92.313)"/><path class="c" d="M995.754,686.141a1.52,1.52,0,0,0,.65.218c.191.028.384.048.577.061a5.647,5.647,0,0,1-.572-.594,2,2,0,0,1,.494-.065,1.934,1.934,0,1,1-1.149.381Z" transform="translate(-843.745 -595.183)"/><path class="b" d="M990.277,635.5h1.883a3.886,3.886,0,0,1,3.887,3.886v5.11a.659.659,0,0,1-.659.659h-8.337a.659.659,0,0,1-.659-.659v-5.11A3.886,3.886,0,0,1,990.277,635.5Z" transform="translate(-833.046 -537.006)"/><g class="e" transform="translate(154.548 84.439)"><path d="M1056.79,664.88a2.531,2.531,0,0,1-.25.236,2.476,2.476,0,0,0,.264-.023C1056.8,665.021,1056.8,664.95,1056.79,664.88Z" transform="translate(-1050.291 -661.988)"/><path d="M1049.09,655.444c.193-.012.385-.033.577-.061a1.812,1.812,0,0,0,.5-.137,3.506,3.506,0,0,0-.271-.446,1.166,1.166,0,0,1-.311.132A4.579,4.579,0,0,1,1049.09,655.444Z" transform="translate(-1043.999 -653.475)"/><path d="M1016.68,649.9a3.277,3.277,0,0,1,5.052-2.761l.05-.053a3.28,3.28,0,1,0-4.325,4.933A3.265,3.265,0,0,1,1016.68,649.9Z" transform="translate(-1016.34 -646.275)"/></g><g class="e" transform="translate(160.493 90.577)"><path d="M1066.48,688.85c.193-.014.385-.034.577-.062a1.52,1.52,0,0,0,.65-.216,1.926,1.926,0,0,1,.777,1.368,1.8,1.8,0,0,0,.011-.205,1.926,1.926,0,0,0-.777-1.555,1.52,1.52,0,0,1-.65.218l-.155.019A3.826,3.826,0,0,1,1066.48,688.85Z" transform="translate(-1064.63 -687.804)"/><path d="M1056.511,686.146a.885.885,0,0,1,.193.014c.1-.107.2-.222.3-.334a1.993,1.993,0,0,0-.494-.065,1.931,1.931,0,0,0-1.931,1.931,1.286,1.286,0,0,0,.01.193A1.932,1.932,0,0,1,1056.511,686.146Z" transform="translate(-1054.58 -685.76)"/></g><g class="e" transform="translate(151.214 90.577)"><path d="M996.9,688.85c-.193-.014-.386-.034-.577-.062a1.519,1.519,0,0,1-.65-.216,1.926,1.926,0,0,0-.777,1.368,1.814,1.814,0,0,1-.011-.205,1.926,1.926,0,0,1,.777-1.555,1.519,1.519,0,0,0,.65.218l.155.019A3.968,3.968,0,0,0,996.9,688.85Z" transform="translate(-994.89 -687.804)"/><path d="M1004.664,686.146a.885.885,0,0,0-.193.014c-.1-.107-.2-.222-.3-.334a1.993,1.993,0,0,1,.494-.065,1.931,1.931,0,0,1,1.931,1.931,1.3,1.3,0,0,1-.009.193A1.932,1.932,0,0,0,1004.664,686.146Z" transform="translate(-1002.727 -685.76)"/></g><path class="b" d="M35.886,539H50.739a3.887,3.887,0,0,1,3.886,3.886v18.731H32V542.886A3.887,3.887,0,0,1,35.886,539Z" transform="translate(-27.025 -455.507)"/><path class="d" d="M35.886,539H50.739a3.887,3.887,0,0,1,3.886,3.886v18.731H32V542.886A3.887,3.887,0,0,1,35.886,539Z" transform="translate(-27.025 -455.507)"/><circle class="b" cx="1.81" cy="1.81" r="1.81" transform="translate(13.576 84.844)"/><circle class="b" cx="1.81" cy="1.81" r="1.81" transform="translate(13.576 82.582)"/><circle class="b" cx="1.81" cy="1.81" r="1.81" transform="translate(13.576 80.318)"/><circle class="b" cx="1.81" cy="1.81" r="1.81" transform="translate(13.576 78.056)"/><circle class="b" cx="1.81" cy="1.81" r="1.81" transform="translate(13.576 75.793)"/><circle class="b" cx="1.81" cy="1.81" r="1.81" transform="translate(13.576 73.531)"/><circle class="b" cx="1.81" cy="1.81" r="1.81" transform="translate(13.576 71.269)"/><circle class="b" cx="1.81" cy="1.81" r="1.81" transform="translate(16.291 72.174)"/><circle class="b" cx="1.81" cy="1.81" r="1.81" transform="translate(18.1 71.269)"/><circle class="b" cx="1.81" cy="1.81" r="1.81" transform="translate(19.911 70.363)"/><circle class="b" cx="1.81" cy="1.81" r="1.81" transform="translate(13.576 69.005)"/><circle class="b" cx="1.81" cy="1.81" r="1.81" transform="translate(13.576 66.743)"/><circle class="b" cx="1.81" cy="1.81" r="1.81" transform="translate(13.576 64.48)"/><circle class="b" cx="1.81" cy="1.81" r="1.81" transform="translate(13.576 62.218)"/><path class="c" d="M86.7,442.821q-.673.1-1.352.143a10.538,10.538,0,0,0,1.164-1.2,7.672,7.672,0,0,0-1.079-2.124,3.689,3.689,0,0,1-1.449.466c-.448.065-.9.113-1.352.145a24.4,24.4,0,0,0,1.73-1.8,7.709,7.709,0,1,0,2.408,4.362Z" transform="translate(-63.808 -384.631)"/><path class="c" d="M169.088,530.451a3.563,3.563,0,0,1-1.522.507c-.449.067-.9.113-1.352.145a12.728,12.728,0,0,0,1.34-1.39,4.528,4.528,0,1,0,1.534.738Z" transform="translate(-140.151 -463.266)"/><circle class="b" cx="1.81" cy="1.81" r="1.81" transform="translate(10.86 72.174)"/><circle class="b" cx="1.81" cy="1.81" r="1.81" transform="translate(9.051 71.269)"/><circle class="b" cx="1.81" cy="1.81" r="1.81" transform="translate(7.241 70.363)"/><path class="c" d="M24.043,530.451a3.563,3.563,0,0,0,1.524.507c.448.067.9.113,1.351.145a12.727,12.727,0,0,1-1.34-1.39,4.528,4.528,0,1,1-1.534.738Z" transform="translate(-22.208 -463.266)"/><path class="b" d="M35.886,547.69H50.739a3.887,3.887,0,0,1,3.886,3.887v18.081a.659.659,0,0,1-.659.659h-21.3a.659.659,0,0,1-.662-.659V551.577A3.887,3.887,0,0,1,35.886,547.69Z" transform="translate(-27.025 -462.846)"/><g class="e" transform="translate(7.8 51.909)"><path d="M167.145,480.61a5.847,5.847,0,0,1-.585.553c.207-.014.415-.033.622-.053C167.174,480.943,167.163,480.775,167.145,480.61Z" transform="translate(-151.918 -473.834)"/><path d="M149.1,458.543c.452-.031.9-.078,1.351-.145a4.307,4.307,0,0,0,1.178-.311A7.855,7.855,0,0,0,151,457.04a2.671,2.671,0,0,1-.724.311A10.769,10.769,0,0,1,149.1,458.543Z" transform="translate(-137.172 -453.929)"/><path d="M73.171,445.525a7.678,7.678,0,0,1,11.838-6.469c.039-.04.078-.086.117-.124a7.685,7.685,0,1,0-10.132,11.559A7.65,7.65,0,0,1,73.171,445.525Z" transform="translate(-72.374 -437.025)"/></g><g class="e" transform="translate(21.718 66.294)"><path d="M189.85,536.846q.678-.043,1.352-.145a3.556,3.556,0,0,0,1.522-.507,4.517,4.517,0,0,1,1.813,3.2,4.738,4.738,0,0,0,.025-.477,4.508,4.508,0,0,0-1.833-3.632,3.562,3.562,0,0,1-1.522.507c-.12.017-.238.031-.356.045A8.96,8.96,0,0,1,189.85,536.846Z" transform="translate(-185.505 -534.399)"/><path d="M166.424,530.461a4.359,4.359,0,0,1,.454.031c.236-.252.466-.519.7-.777a4.508,4.508,0,0,0-5.682,4.37c0,.155.008.311.022.452A4.525,4.525,0,0,1,166.424,530.461Z" transform="translate(-161.9 -529.56)"/></g><g class="e" transform="translate(0 66.294)"><path d="M26.907,536.846q-.678-.043-1.351-.145a3.521,3.521,0,0,1-1.524-.507,4.518,4.518,0,0,0-1.808,3.2,4.734,4.734,0,0,1-.025-.477,4.508,4.508,0,0,1,1.834-3.632,3.562,3.562,0,0,0,1.523.507c.118.017.236.031.354.045a9.087,9.087,0,0,0,.995,1Z" transform="translate(-22.2 -534.399)"/><path d="M45.018,530.461a4.358,4.358,0,0,0-.454.031c-.236-.252-.466-.519-.7-.777a4.508,4.508,0,0,1,5.682,4.37,3.054,3.054,0,0,1-.022.452A4.525,4.525,0,0,0,45.018,530.461Z" transform="translate(-40.493 -529.56)"/></g><path class="f" d="M515.295,620.131l-30.315-.389.089-.777,1.466-12.825h26.622l1.959,12.825.149.972Z" transform="translate(-409.585 -512.21)"/><path class="d" d="M515.265,689.612H500.137l-15.157-.194.089-.777h30.047Z" transform="translate(-409.585 -581.884)"/><rect class="f" width="40.225" height="0.972" transform="translate(70.342 106.95)"/><path class="g" d="M342.672,197.993a2.531,2.531,0,0,0-2.517-2.543H227.818a2.531,2.531,0,0,0-2.518,2.543v68.091H342.672Z" transform="translate(-193.726 -181.096)"/><path class="f" d="M225.3,645.45v7.977a2.517,2.517,0,0,0,2.518,2.525H340.155a2.517,2.517,0,0,0,2.517-2.517V645.45Z" transform="translate(-193.726 -561.14)"/><rect class="a" width="108.239" height="61.212" transform="translate(36.432 18.629)"/><path class="c" d="M592.2,664.82a2.626,2.626,0,0,0,2.065-1h0a2.821,2.821,0,0,0,.2-.3l-1.44-.236,1.555.011a2.616,2.616,0,0,0,.05-2.078l-2.088,1.088,1.926-1.415a2.623,2.623,0,1,0-4.333,2.923h0A2.622,2.622,0,0,0,592.2,664.82Z" transform="translate(-501.353 -573.041)"/><path class="d" d="M601.23,611.76l12.093,12.146-1.855-12.146Z" transform="translate(-507.763 -516.956)"/><rect class="h" width="83.56" height="44.37" transform="translate(39.445 26.964)"/><rect class="a" width="23.306" height="1.208" transform="translate(44.105 38.531)"/><rect class="a" width="2.245" height="6.388" transform="translate(46.178 32.143)"/><rect class="a" width="2.245" height="6.388" transform="translate(49.458 32.143)"/><rect class="a" width="2.245" height="6.388" transform="translate(52.738 32.143)"/><rect class="a" width="2.245" height="6.388" transform="translate(56.018 32.143)"/><rect class="a" width="2.245" height="6.388" transform="translate(59.298 32.143)"/><rect class="a" width="2.245" height="6.388" transform="translate(62.579 32.143)"/><rect class="a" width="2.245" height="0.69" transform="translate(46.178 33.352)"/><rect class="a" width="2.245" height="0.69" transform="translate(49.458 33.352)"/><rect class="a" width="2.245" height="0.69" transform="translate(52.738 33.352)"/><rect class="a" width="2.245" height="0.69" transform="translate(56.018 33.352)"/><rect class="a" width="2.245" height="0.69" transform="translate(59.298 33.352)"/><rect class="a" width="2.245" height="0.69" transform="translate(62.579 33.352)"/><rect class="a" width="2.245" height="0.69" transform="translate(46.178 36.46)"/><rect class="a" width="2.245" height="0.69" transform="translate(49.458 36.46)"/><rect class="a" width="2.245" height="0.69" transform="translate(52.738 36.46)"/><rect class="a" width="2.245" height="0.69" transform="translate(56.018 36.46)"/><rect class="a" width="2.245" height="0.69" transform="translate(59.298 36.46)"/><rect class="a" width="2.245" height="0.69" transform="translate(62.579 36.46)"/><rect class="a" width="23.306" height="1.208" transform="translate(95.208 41.638)"/><rect class="a" width="2.245" height="6.388" transform="translate(97.28 35.25)"/><rect class="a" width="2.245" height="6.388" transform="translate(100.561 35.25)"/><rect class="a" width="2.245" height="6.388" transform="translate(103.841 35.25)"/><rect class="a" width="2.245" height="6.388" transform="translate(107.121 35.25)"/><rect class="a" width="2.245" height="6.388" transform="translate(110.401 35.25)"/><rect class="a" width="2.245" height="6.388" transform="translate(113.681 35.25)"/><rect class="a" width="2.245" height="0.69" transform="translate(97.28 36.46)"/><rect class="a" width="2.245" height="0.69" transform="translate(100.561 36.46)"/><rect class="a" width="2.245" height="0.69" transform="translate(103.841 36.46)"/><rect class="a" width="2.245" height="0.69" transform="translate(107.121 36.46)"/><rect class="a" width="2.245" height="0.69" transform="translate(110.401 36.46)"/><rect class="a" width="2.245" height="0.69" transform="translate(113.681 36.46)"/><rect class="a" width="2.245" height="0.69" transform="translate(97.28 39.568)"/><rect class="a" width="2.245" height="0.69" transform="translate(100.561 39.568)"/><rect class="a" width="2.245" height="0.69" transform="translate(103.841 39.568)"/><rect class="a" width="2.245" height="0.69" transform="translate(107.121 39.568)"/><rect class="a" width="2.245" height="0.69" transform="translate(110.401 39.568)"/><rect class="a" width="2.245" height="0.69" transform="translate(113.681 39.568)"/><rect class="a" width="23.306" height="1.208" transform="translate(95.208 50.443)"/><rect class="a" width="2.245" height="6.388" transform="translate(97.28 44.056)"/><rect class="a" width="2.245" height="6.388" transform="translate(100.561 44.056)"/><rect class="a" width="2.245" height="6.388" transform="translate(103.841 44.056)"/><rect class="a" width="2.245" height="6.388" transform="translate(107.121 44.056)"/><rect class="a" width="2.245" height="6.388" transform="translate(110.401 44.056)"/><rect class="a" width="2.245" height="6.388" transform="translate(113.681 44.056)"/><rect class="a" width="2.245" height="0.69" transform="translate(97.28 45.264)"/><rect class="a" width="2.245" height="0.69" transform="translate(100.561 45.264)"/><rect class="a" width="2.245" height="0.69" transform="translate(103.841 45.264)"/><rect class="a" width="2.245" height="0.69" transform="translate(107.121 45.264)"/><rect class="a" width="2.245" height="0.69" transform="translate(110.401 45.264)"/><rect class="a" width="2.245" height="0.69" transform="translate(113.681 45.264)"/><rect class="a" width="2.245" height="0.69" transform="translate(97.28 48.371)"/><rect class="a" width="2.245" height="0.69" transform="translate(100.561 48.371)"/><rect class="a" width="2.245" height="0.69" transform="translate(103.841 48.371)"/><rect class="a" width="2.245" height="0.69" transform="translate(107.121 48.371)"/><rect class="a" width="2.245" height="0.69" transform="translate(110.401 48.371)"/><rect class="a" width="2.245" height="0.69" transform="translate(113.681 48.371)"/><path class="a" d="M390.715,385.03a6.153,6.153,0,0,1-.476-.7l3.356-.55-3.636.03a6.13,6.13,0,0,1-.117-4.847l4.869,2.526-4.49-3.3a6.117,6.117,0,1,1,10.1,6.84,6.118,6.118,0,0,1,.7,1.113l-4.353,2.262,4.644-1.555a6.114,6.114,0,0,1-.986,5.743,6.117,6.117,0,1,1-9.615,0,6.117,6.117,0,0,1,0-7.563Z" transform="translate(-332.315 -332.837)"/><path class="a" d="M401.668,462.69a6.091,6.091,0,0,1-1.309,3.781,6.117,6.117,0,1,1-9.615,0C389.925,465.43,401.668,462,401.668,462.69Z" transform="translate(-332.344 -406.715)"/><path class="i" d="M422.685,552.183c.011.017.019.034.03.051h-2.077c.011-.017.019-.034.03-.051a2.021,2.021,0,0,1-.267-1.023,2.106,2.106,0,0,1,.126-.72h0c.115.019.258.039.423.056a7.283,7.283,0,0,0,1.449,0c.137-.014.281-.034.428-.056a.109.109,0,0,1,0,.011,2.074,2.074,0,0,1,.123.709A2.021,2.021,0,0,1,422.685,552.183Z" transform="translate(-358.496 -480.9)"/><path class="a" d="M298.221,439.253H286.67c-.026-.067-.05-.137-.07-.205a6.08,6.08,0,0,1,.135-4,6.116,6.116,0,0,1-2.232-7.227,6.337,6.337,0,0,1-.662-.529l3.044-1.517-3.459,1.1a6.124,6.124,0,0,1-1.542-4.6l5.4.975-5.264-1.828a6.117,6.117,0,1,1,11.672,3.558,6.23,6.23,0,0,1,1,.86l-3.495,3.448,3.978-2.86a6.119,6.119,0,0,1,.752,5.78A6.119,6.119,0,0,1,298.221,439.253Z" transform="translate(-241.495 -367.915)"/><path class="a" d="M322.471,501.761H310.921c-.026-.067-.05-.137-.07-.205a6.08,6.08,0,0,1,.135-4c-1.088-.754,9.119-7.495,9.328-6.84a6.1,6.1,0,0,1-.135,4A6.119,6.119,0,0,1,322.471,501.761Z" transform="translate(-265.746 -430.424)"/><path class="a" d="M620.481,458.43A6.088,6.088,0,0,1,617.418,461a6.31,6.31,0,0,1,.026,1.317l-4.9-.294,4.785,1.046a6.132,6.132,0,0,1-2.361,3.644H608.3v.173H601.51c.014-.059.028-.117.044-.173a6.139,6.139,0,0,1,3.731-4.152,6.122,6.122,0,0,1,3.887-6.492,6.118,6.118,0,0,1-.051-.844l3.164,1.244-3.128-1.838a6.132,6.132,0,0,1,2.38-4.219l2.882,4.664-2.159-5.13a6.116,6.116,0,0,1,8.221,8.485Z" transform="translate(-511.451 -395.381)"/><path class="a" d="M616.6,535.891a6.031,6.031,0,0,1-1.631,1.8H608.3v.173H601.51c.014-.059.028-.117.044-.173a6.139,6.139,0,0,1,3.731-4.152c-.057-.446,1.261-.385,3.016-.09C611.732,534.019,616.832,535.5,616.6,535.891Z" transform="translate(-511.451 -466.349)"/><path class="j" d="M504.265,443.594s.832,4.535-1.034,6.013,1.576,10.35,7.294,9.317,8.034-8.479,8.034-8.479-5.718-1.181-3.6-7.195Z" transform="translate(-428.02 -390.374)"/><path class="d" d="M504.265,443.594s.832,4.535-1.034,6.013,1.576,10.35,7.294,9.317,8.034-8.479,8.034-8.479-5.718-1.181-3.6-7.195Z" transform="translate(-428.02 -390.374)"/><circle class="j" cx="9.463" cy="9.463" r="9.463" transform="translate(71.835 37.621)"/><path class="c" d="M475.427,484.957v6.433H444.18V485.25a3.966,3.966,0,0,1,2.419-3.65l.9-.381c2.267-.965,5.02-2.164,5.92-2.663a1.481,1.481,0,0,0,.277-.179c.493-.493.395.148.395.148s-.014.121-.023.333c-.053,1.447.155,7.14,6.825,6.666,6.508-.466,6.794-4.857,6.735-6.148a3.217,3.217,0,0,0-.031-.358,8.912,8.912,0,0,1,1.318.429,27.44,27.44,0,0,1,3.907,1.691c.168.117.372.241.592.364a3.943,3.943,0,0,1,2.021,3.454Z" transform="translate(-378.579 -419.883)"/><path class="d" d="M519.053,479.473c-.55,2.553-2.279,7.335-8.515,7.462-6.64.131-7.022-6.473-6.982-8.347a1.438,1.438,0,0,0,.278-.18c.493-.493.395.148.395.148s-.838,7.541,6.8,7,6.7-6.506,6.7-6.506A7.8,7.8,0,0,1,519.053,479.473Z" transform="translate(-428.723 -419.908)"/><path class="k" d="M469.7,324.924a1.636,1.636,0,0,1,1.71.622,3.057,3.057,0,0,1,.437,1.623c.412.087.644-.379.681-.729a18.964,18.964,0,0,1,.644-4.271,5.109,5.109,0,0,1,3.143-3.249,3.631,3.631,0,0,1,1.71-.163c.34.058.662.176,1,.232,1.177.194,2.459-.364,3.565.025a2.809,2.809,0,0,1,1.455,1.374,3,3,0,0,0,.566.822,3.952,3.952,0,0,0,1.878.662,2.426,2.426,0,0,1,1.7.878,2.29,2.29,0,0,1-.019,1.52,3.713,3.713,0,0,0,.384,2.347c.124.236.376.5.673.428a.594.594,0,0,0,.322-.261c.777-1.088.752-2.5,1.721-3.471.325-.325.743-.58,1.059-.911a2.049,2.049,0,0,0,.549-1.866,6.154,6.154,0,0,0-1.255-2.021,7.929,7.929,0,0,1-1.345-2.79.5.5,0,0,1,0-.364.975.975,0,0,1,.344-.281,1.3,1.3,0,0,0,.446-1.66,2.74,2.74,0,0,0-1.545-1.234,10.288,10.288,0,0,0-2.124-.466,1.154,1.154,0,0,1-1.181-.583c-.065-.169-.065-.353-.132-.522a1.2,1.2,0,0,0-.9-.634,2.643,2.643,0,0,0-1.216.086,1.9,1.9,0,0,1-1.357.1c-.205-.117-.32-.328-.541-.423-.448-.191-.92.194-1.244.513a3.061,3.061,0,0,1-1.124.754,1.669,1.669,0,0,1-1.39-.092,4.381,4.381,0,0,1-.714-.766,2.684,2.684,0,0,0-1.688-.692,5.965,5.965,0,0,0-1.906.208,11.542,11.542,0,0,0-3.35,1.4,3.6,3.6,0,0,0-1.284,1.194,2.71,2.71,0,0,0-.289,1.231,4.448,4.448,0,0,0,1.555,3.688,2.19,2.19,0,0,0-1.11,1.66,9.106,9.106,0,0,0-.431,3.109,6.83,6.83,0,0,1,.118,1.615,3.492,3.492,0,0,0-.106.777A.743.743,0,0,0,469.7,324.924Z" transform="translate(-399.602 -277.372)"/><g class="e" transform="translate(69.472 35.516)"><path d="M596.217,378.18a2.228,2.228,0,0,1-.409.6c-.311.331-.734.586-1.059.913-.969.97-.948,2.386-1.721,3.471a.591.591,0,0,1-.322.26c-.3.076-.549-.191-.673-.427a3.777,3.777,0,0,1-.337-.909q-.025.118-.047.238a3.712,3.712,0,0,0,.384,2.347c.124.236.376.5.673.428a.594.594,0,0,0,.322-.261c.777-1.088.752-2.5,1.721-3.471.325-.325.743-.58,1.059-.911a2.049,2.049,0,0,0,.549-1.865A2.245,2.245,0,0,0,596.217,378.18Z" transform="translate(-572.553 -370.936)"/><path d="M605.656,333.564a.955.955,0,0,0-.344.28.5.5,0,0,0,0,.364,7.6,7.6,0,0,0,.344,1.034h0a1.3,1.3,0,0,0,.44-1.677,1.7,1.7,0,0,0-.156-.264A1.3,1.3,0,0,1,605.656,333.564Z" transform="translate(-584.105 -333.033)"/><path d="M470.64,334.207a4.221,4.221,0,0,1-1.485-2.627,3.741,3.741,0,0,0-.068.622,4.731,4.731,0,0,0,.746,2.8A1.591,1.591,0,0,1,470.64,334.207Z" transform="translate(-469.081 -331.58)"/><path d="M488.344,363.9a2.29,2.29,0,0,0,.019-1.52,2.417,2.417,0,0,0-1.7-.878,3.941,3.941,0,0,1-1.878-.662,3,3,0,0,1-.566-.822,2.787,2.787,0,0,0-1.455-1.374c-1.105-.389-2.388.169-3.565-.025-.34-.056-.662-.174-1-.232a3.632,3.632,0,0,0-1.71.155,5.1,5.1,0,0,0-3.143,3.249,18.813,18.813,0,0,0-.644,4.27c-.037.35-.269.816-.681.729a3.086,3.086,0,0,0-.437-1.623,1.624,1.624,0,0,0-1.71-.622.824.824,0,0,1-.479-.311,2.613,2.613,0,0,1-.009.622,3.488,3.488,0,0,0-.106.777.743.743,0,0,0,.591.588,1.636,1.636,0,0,1,1.71.622,3.058,3.058,0,0,1,.437,1.623c.412.087.644-.379.681-.729a18.962,18.962,0,0,1,.644-4.27,5.109,5.109,0,0,1,3.143-3.249,3.632,3.632,0,0,1,1.71-.163c.34.058.662.176,1,.232,1.177.194,2.459-.364,3.565.025a2.81,2.81,0,0,1,1.455,1.374,3,3,0,0,0,.566.822,3.952,3.952,0,0,0,1.878.662,2.494,2.494,0,0,1,1.662.826C488.333,363.967,488.338,363.933,488.344,363.9Z" transform="translate(-469.248 -354.184)"/><path d="M469.248,382.672a4.372,4.372,0,0,0-.075-1.262,5.627,5.627,0,0,0-.044,1.323c.009.113.025.225.04.339C469.189,382.938,469.223,382.806,469.248,382.672Z" transform="translate(-469.105 -373.663)"/></g><rect class="h" width="13.991" height="9.708" transform="translate(127.279 61.68)"/><path class="a" d="M893.588,532.733a1.727,1.727,0,0,1-.872.732,1.771,1.771,0,0,1,.008.375l-1.4-.084,1.362.3a1.752,1.752,0,0,1-.672,1.035h-1.893v.05H888.19a.075.075,0,0,1,.012-.05,1.706,1.706,0,0,1,.19-.449,4.981,4.981,0,0,0,1.976-2.579,1.555,1.555,0,0,1-.014-.239l.9.354-.891-.522a1.738,1.738,0,0,1,.679-1.2l.819,1.328-.614-1.461a1.741,1.741,0,0,1,2.332,2.414Z" transform="translate(-753.564 -463.727)"/><path class="a" d="M892.482,554.766a1.709,1.709,0,0,1-.466.51h-1.9v.05H888.19a.075.075,0,0,1,.012-.05,1.705,1.705,0,0,1,.19-.449,1.732,1.732,0,0,1,.87-.732c-.016-.126.359-.109.858-.025A7.576,7.576,0,0,1,892.482,554.766Z" transform="translate(-753.564 -483.909)"/><path class="a" d="M843.1,532.733a1.727,1.727,0,0,0,.872.732,1.78,1.78,0,0,0-.008.375l1.4-.084-1.362.3a1.752,1.752,0,0,0,.672,1.035h1.9v.05h1.932a.291.291,0,0,0-.012-.05,1.82,1.82,0,0,0-.19-.449,4.969,4.969,0,0,1-1.977-2.579,1.8,1.8,0,0,0,.016-.239l-.9.354.889-.522a1.739,1.739,0,0,0-.679-1.2l-.819,1.328.614-1.461a1.741,1.741,0,0,0-2.332,2.414Z" transform="translate(-715.293 -463.727)"/><path class="a" d="M851.446,554.766a1.711,1.711,0,0,0,.466.51h1.9v.05h1.932a.292.292,0,0,0-.012-.05,1.818,1.818,0,0,0-.19-.449,1.74,1.74,0,0,0-.872-.732c.016-.126-.359-.109-.858-.025A7.528,7.528,0,0,0,851.446,554.766Z" transform="translate(-722.53 -483.909)"/><rect class="l" width="3.126" height="3.482" transform="translate(132.531 63.819)"/><rect class="d" width="3.126" height="3.482" transform="translate(132.531 63.819)"/><path class="m" d="M843.594,453.771l-.064.9h.892l.056-1.2Z" transform="translate(-712.395 -383.282)"/><path class="m" d="M873.445,453.771l-.135.9h.818l.051-1.2Z" transform="translate(-737.546 -383.282)"/><path class="m" d="M878.929,524.174a1.45,1.45,0,0,1-.14.57,1.075,1.075,0,0,0,1.822.131s-.365-.311-.28-.659S878.929,524.174,878.929,524.174Z" transform="translate(-745.617 -458.612)"/><path class="d" d="M878.929,524.174a1.45,1.45,0,0,1-.14.57,1.075,1.075,0,0,0,1.822.131s-.365-.311-.28-.659S878.929,524.174,878.929,524.174Z" transform="translate(-745.617 -458.612)"/><circle class="m" cx="1.564" cy="1.564" r="1.564" transform="translate(132.529 62.838)"/><path class="c" d="M868.439,527.779a.775.775,0,0,1-.754-.609,3.982,3.982,0,0,1-.41.311c-.064.022-.69.376-.808.4a.667.667,0,0,0-.311.155,1.357,1.357,0,0,0-.518,1.014c-.022.7-.107,2.071-.107,2.071l.033.5v.323a1.135,1.135,0,0,0,.933-.155s0-.118.065-.155.075-.194.064-.26a2.538,2.538,0,0,1,0-.291.209.209,0,0,0,.087.129.663.663,0,0,1,.022.27c-.033.064-.065.215-.033.247a.156.156,0,0,1-.022.183,1.072,1.072,0,0,0-.14.271s-.033.193-.065.215a.9.9,0,0,0-.075.249h3.887a3.723,3.723,0,0,1-.155-.6c.011-.1-.1-.5-.022-.6a.827.827,0,0,0,.173-.5l.044.42-.118.933s.721.227.8.086a4.988,4.988,0,0,0,.183-.754s.173-.777.216-.885.14-2.263-.443-2.576a17.44,17.44,0,0,0-1.71-.824A.723.723,0,0,1,868.439,527.779Z" transform="translate(-734.426 -461.247)"/><path class="n" d="M871.428,544.65a.777.777,0,0,0-.134.546,1.511,1.511,0,0,0,.183.541" transform="translate(-739.289 -476.01)"/><path class="n" d="M896.277,545.6a1.635,1.635,0,0,1,.065.243.738.738,0,0,1-.1.609" transform="translate(-760.362 -476.812)"/><path class="l" d="M871.6,503.036a.518.518,0,0,1,.365.037,1.915,1.915,0,0,0,.348.138c.081.017.155.017.246.03a.765.765,0,0,1,.612.6c.07.382-.155.759-.155,1.149a.96.96,0,0,0,.222.611,1.8,1.8,0,0,1,.311.372c.045.1.054.213.1.311a.8.8,0,0,0,.441.376,3.007,3.007,0,0,1,.539.243c.311.207.494.6.855.689a.143.143,0,0,0,.113,0,.14.14,0,0,0,.053-.109.508.508,0,0,0-.145-.418c-.089-.089-.218-.155-.246-.275s.047-.222.087-.331a1.094,1.094,0,0,0-.33-1.023,2.1,2.1,0,0,1-.6-.933,2.449,2.449,0,0,1-.014-.37,2.456,2.456,0,0,0-.131-.748,1.1,1.1,0,0,0-.187-.359c-.078-.093-.177-.165-.258-.255a3.845,3.845,0,0,1-.289-.466,1.4,1.4,0,0,0-1.143-.642,2.356,2.356,0,0,0-1.22.424,1.046,1.046,0,0,0-.345.3c-.156.247-.109.574-.2.854s-.3.487-.378.76a.535.535,0,0,0-.011.247,1.269,1.269,0,0,0,.11.249,1.853,1.853,0,0,1,.138.63,1.242,1.242,0,0,1-.1.765,1.282,1.282,0,0,1-.389.33.757.757,0,0,0,.543.166.958.958,0,0,0,.821-.233.815.815,0,0,0,.124-.567,2.387,2.387,0,0,0-.131-.634,4.838,4.838,0,0,1-.3-.861.812.812,0,0,1,.155-.622c.056-.07.155-.106.2-.18C871.472,503.19,871.455,503.086,871.6,503.036Z" transform="translate(-738.201 -439.703)"/><g class="e" transform="translate(131.802 63.067)"><path d="M871.626,517.128a1.849,1.849,0,0,1,.138.63c0,.068.011.138.012.208a2.15,2.15,0,0,0,0-.457,1.838,1.838,0,0,0-.138-.622,1.4,1.4,0,0,1-.11-.247.526.526,0,0,0-.011.246A1.268,1.268,0,0,0,871.626,517.128Z" transform="translate(-871.277 -515.421)"/><path d="M871.394,527.471a.969.969,0,0,1-.821.235,1.216,1.216,0,0,1-.368-.056c-.059.048-.123.093-.185.137a.757.757,0,0,0,.543.166.958.958,0,0,0,.821-.233.778.778,0,0,0,.127-.53A.6.6,0,0,1,871.394,527.471Z" transform="translate(-870.02 -524.331)"/><path d="M903.839,530.813a.253.253,0,0,0,.019.051c.019-.044.04-.089.058-.134a.644.644,0,0,0,.031-.32.636.636,0,0,1-.02.073C903.886,530.592,903.813,530.7,903.839,530.813Z" transform="translate(-898.577 -527.051)"/><path d="M878.916,509.945a.975.975,0,0,0,0-.322.763.763,0,0,0-.613-.6c-.082-.014-.165-.014-.246-.03a2.027,2.027,0,0,1-.348-.138.518.518,0,0,0-.365-.039c-.14.05-.123.155-.185.258-.045.075-.146.112-.2.18a.8.8,0,0,0-.155.574.7.7,0,0,1,.145-.325c.056-.07.156-.106.2-.18.062-.1.045-.208.185-.258a.518.518,0,0,1,.365.037,1.914,1.914,0,0,0,.348.138c.081.017.155.017.246.03a.765.765,0,0,1,.612.6.6.6,0,0,1,.011.075Z" transform="translate(-875.743 -508.801)"/><path d="M891.9,524.4a.155.155,0,0,1-.114,0c-.361-.086-.547-.482-.855-.689a3.24,3.24,0,0,0-.539-.242.8.8,0,0,1-.441-.375c-.044-.1-.053-.213-.1-.311a1.814,1.814,0,0,0-.311-.372.968.968,0,0,1-.224-.546,1.194,1.194,0,0,0-.014.182.96.96,0,0,0,.233.616,1.8,1.8,0,0,1,.311.372c.045.1.054.213.1.311a.8.8,0,0,0,.441.376,3.013,3.013,0,0,1,.539.242c.311.207.494.6.855.689a.11.11,0,0,0,.166-.109.512.512,0,0,0-.009-.176A.1.1,0,0,1,891.9,524.4Z" transform="translate(-886.303 -519.838)"/></g><rect class="a" width="1.999" height="2.856" transform="translate(128.707 62.394)"/><rect class="a" width="1.427" height="2.04" transform="translate(128.993 62.803)"/><rect class="a" width="3.283" height="1.713" transform="translate(137.272 62.823)"/><rect class="a" width="2.427" height="1.267" transform="translate(137.701 63.047)"/></g></svg>