<?xml version="1.0" encoding="UTF-8" standalone="yes"?>
<svg xmlns="http://www.w3.org/2000/svg" xmlns:xlink="http://www.w3.org/1999/xlink" viewBox="0 0 50 50" version="1.1" width="50" height="50" fill="#000000">
  <g id="surface1">
    <path style=" " d="M 26 2 C 24.535156 2 23.441406 3.136719 23.1875 4.53125 C 19.613281 5.722656 17 9.035156 17 13 L 17 43.0625 C 15.867188 43.296875 15 44.300781 15 45.5 C 15 46.867188 16.132813 48 17.5 48 L 34.5 48 C 35.867188 48 37 46.867188 37 45.5 C 37 44.300781 36.132813 43.296875 35 43.0625 L 35 13 C 35 9.035156 32.386719 5.722656 28.8125 4.53125 C 28.558594 3.136719 27.464844 2 26 2 Z M 26 4 C 26.5625 4 27 4.4375 27 5 C 27 4.972656 26.984375 5.007813 26.96875 5.125 L 26.875 6 L 27.71875 6.21875 C 30.746094 6.988281 33 9.722656 33 13 L 33 43 L 21 43 L 21 45 L 34.5 45 C 34.785156 45 35 45.214844 35 45.5 C 35 45.785156 34.785156 46 34.5 46 L 17.5 46 C 17.214844 46 17 45.785156 17 45.5 C 17 45.214844 17.214844 45 17.5 45 L 19 45 L 19 13 C 19 9.722656 21.253906 6.988281 24.28125 6.21875 L 25.125 6 L 25.03125 5.125 C 25.015625 5.007813 25 4.972656 25 5 C 25 4.4375 25.4375 4 26 4 Z "/>
  </g>
</svg>
