<?xml version="1.0" encoding="UTF-8" standalone="yes"?>
<svg xmlns="http://www.w3.org/2000/svg" xmlns:xlink="http://www.w3.org/1999/xlink" viewBox="0 0 50 50" version="1.1" width="50" height="50" fill="#000000">
  <g id="surface1">
    <path style=" " d="M 25 2 C 22.050781 2 19.972656 2.765625 19.25 3.0625 C 19.191406 3.085938 19.164063 3.078125 19.125 3.09375 C 19.070313 3.109375 19.019531 3.132813 18.96875 3.15625 C 18.902344 3.179688 18.839844 3.210938 18.78125 3.25 C 18.738281 3.269531 18.695313 3.289063 18.65625 3.3125 C 18.4375 3.46875 18.292969 3.703125 18.25 3.96875 C 18.25 3.980469 18.25 3.988281 18.25 4 C 17.640625 5.023438 15.75 8.367188 14.9375 12.46875 C 14.929688 12.53125 14.929688 12.59375 14.9375 12.65625 C 14.9375 13.078125 15 13.640625 15.15625 14.46875 C 15.3125 15.296875 15.554688 16.347656 15.90625 17.59375 C 16.550781 19.882813 17.589844 22.8125 19.125 26 C 16.167969 29.078125 12.40625 31.972656 7.5625 34.28125 C 7.160156 34.484375 6.941406 34.933594 7.03125 35.375 L 9.28125 47.1875 C 9.339844 47.503906 9.550781 47.769531 9.839844 47.90625 C 10.128906 48.042969 10.46875 48.03125 10.75 47.875 C 16.867188 44.390625 21.503906 39.988281 25 35.5 C 28.496094 39.988281 33.140625 44.394531 39.25 47.875 C 39.53125 48.03125 39.871094 48.042969 40.160156 47.90625 C 40.449219 47.769531 40.660156 47.503906 40.71875 47.1875 L 42.96875 35.375 C 43.058594 34.933594 42.839844 34.484375 42.4375 34.28125 C 37.605469 31.976563 33.832031 29.097656 30.875 26.03125 C 32.4375 22.796875 33.480469 19.839844 34.125 17.53125 C 34.46875 16.304688 34.691406 15.253906 34.84375 14.4375 C 34.996094 13.621094 35.0625 13.074219 35.0625 12.65625 C 35.070313 12.59375 35.070313 12.53125 35.0625 12.46875 C 34.25 8.367188 32.359375 5.023438 31.75 4 C 31.707031 3.71875 31.550781 3.46875 31.3125 3.3125 C 31.273438 3.277344 31.230469 3.246094 31.1875 3.21875 C 31.175781 3.207031 31.167969 3.199219 31.15625 3.1875 C 31.136719 3.1875 31.113281 3.1875 31.09375 3.1875 C 31.09375 3.1875 30.949219 3.125 30.875 3.09375 C 30.835938 3.082031 30.792969 3.070313 30.75 3.0625 C 30.027344 2.765625 27.949219 2 25 2 Z M 25 4 C 27.199219 4 28.75 4.433594 29.5625 4.71875 C 29.480469 5.417969 29.316406 6.640625 28.78125 8.6875 C 27.601563 8.292969 26.324219 8 25 8 C 23.679688 8 22.398438 8.292969 21.21875 8.6875 C 20.722656 6.789063 20.5 5.46875 20.40625 4.71875 C 21.210938 4.433594 22.777344 4 25 4 Z M 31.125 7.0625 C 31.816406 8.539063 32.617188 10.558594 33.0625 12.71875 C 33.058594 12.855469 33.007813 13.34375 32.875 14.0625 C 32.734375 14.8125 32.515625 15.828125 32.1875 17 C 31.621094 19.023438 30.707031 21.59375 29.40625 24.40625 C 28.164063 22.957031 27.082031 21.488281 26.15625 20.03125 C 28.347656 16.359375 29.566406 13.214844 30.28125 10.71875 C 30.519531 10.46875 30.617188 10.117188 30.53125 9.78125 C 30.796875 8.742188 30.992188 7.835938 31.125 7.0625 Z M 18.84375 7.15625 C 19.003906 7.964844 19.230469 8.921875 19.53125 10 C 19.539063 10.042969 19.550781 10.085938 19.5625 10.125 C 19.582031 10.246094 19.625 10.363281 19.6875 10.46875 C 19.6875 10.480469 19.6875 10.488281 19.6875 10.5 C 20.488281 13.226563 21.777344 16.613281 23.90625 20.15625 C 23.90625 20.167969 23.90625 20.175781 23.90625 20.1875 C 23.914063 20.5625 24.132813 20.898438 24.46875 21.0625 C 25.671875 22.949219 27.117188 24.855469 28.84375 26.71875 C 28.929688 26.859375 29.046875 26.976563 29.1875 27.0625 C 32.191406 30.226563 36 33.238281 40.90625 35.6875 L 39.03125 45.3125 C 30.171875 39.882813 24.640625 32.511719 21.375 26.0625 C 21.359375 25.828125 21.257813 25.605469 21.09375 25.4375 C 21.089844 25.433594 21.066406 25.441406 21.0625 25.4375 C 19.503906 22.25 18.480469 19.324219 17.84375 17.0625 C 17.507813 15.871094 17.269531 14.859375 17.125 14.09375 C 16.988281 13.363281 16.941406 12.855469 16.9375 12.71875 C 17.375 10.59375 18.160156 8.625 18.84375 7.15625 Z M 25 10 C 26.066406 10 27.167969 10.238281 28.21875 10.59375 C 27.523438 12.796875 26.511719 15.378906 25 18.09375 C 23.480469 15.375 22.476563 12.804688 21.78125 10.59375 C 22.832031 10.234375 23.925781 10 25 10 Z M 20.09375 27.90625 C 21.117188 29.835938 22.316406 31.839844 23.75 33.84375 C 20.589844 37.988281 16.410156 42.015625 10.96875 45.34375 L 9.09375 35.6875 C 13.554688 33.460938 17.199219 30.792969 20.09375 27.90625 Z "/>
  </g>
</svg>
