<?xml version="1.0" encoding="UTF-8" standalone="yes"?>
<svg xmlns="http://www.w3.org/2000/svg" xmlns:xlink="http://www.w3.org/1999/xlink" viewBox="0 0 50 50" version="1.1" width="50" height="50" fill="#000000">
  <g id="surface1">
    <path style=" " d="M 7.8125 0 C 7.375 0.0742188 7.039063 0.429688 6.988281 0.871094 C 6.941406 1.3125 7.183594 1.734375 7.59375 1.90625 C 11.652344 3.683594 14.21875 6.542969 14.78125 7.1875 L 13.09375 10.5625 C 12.859375 11.039063 13.039063 11.613281 13.5 11.875 C 13.5 11.875 15.882813 13.175781 19.03125 13.8125 C 19.019531 13.976563 19 14.140625 19 14.3125 C 19 14.421875 18.996094 14.566406 19 14.71875 C 15.425781 16.019531 11.613281 17.0625 8.375 18 C 6.167969 18.640625 4.234375 19.214844 2.78125 19.84375 C 2.054688 20.160156 1.433594 20.472656 0.9375 20.875 C 0.441406 21.277344 0 21.851563 0 22.59375 C 0 23.710938 0.824219 24.535156 1.71875 25.03125 C 2.613281 25.527344 3.699219 25.835938 4.875 26.0625 C 7.113281 26.488281 9.574219 26.550781 11.28125 26.3125 L 10.28125 31.53125 L 1.28125 38.8125 C 0.847656 39.15625 0.78125 39.789063 1.125 40.21875 C 1.46875 40.652344 2.101563 40.71875 2.53125 40.375 L 11.8125 32.875 C 12.003906 32.730469 12.136719 32.519531 12.1875 32.28125 L 13.34375 25.875 C 16.683594 24.933594 19.253906 22.960938 21.03125 20.84375 C 21.066406 20.800781 21.089844 20.761719 21.125 20.71875 C 20.941406 21.09375 20.785156 21.476563 20.625 21.875 C 18.511719 24.058594 16.15625 25.5625 16.15625 25.5625 C 15.96875 25.679688 15.828125 25.855469 15.75 26.0625 C 15.75 26.0625 13.519531 32.191406 13.90625 37.40625 C 13.8125 37.570313 12.847656 39.324219 11.4375 41.625 C 9.960938 44.03125 8.089844 46.863281 6.75 48.34375 C 6.480469 48.605469 6.378906 49 6.488281 49.359375 C 6.601563 49.71875 6.90625 49.988281 7.277344 50.050781 C 7.652344 50.113281 8.027344 49.960938 8.25 49.65625 C 9.808594 47.9375 11.625 45.132813 13.125 42.6875 C 14.625 40.242188 15.78125 38.1875 15.78125 38.1875 C 15.882813 38.007813 15.925781 37.800781 15.90625 37.59375 C 15.460938 33.238281 17.457031 27.398438 17.59375 27 C 17.847656 26.835938 18.542969 26.367188 19.4375 25.65625 C 19.078125 27.222656 18.90625 28.671875 18.90625 29.6875 C 18.90625 31.371094 19.472656 34.417969 20.40625 37.25 C 20.875 38.664063 21.441406 40 22.125 41.0625 C 22.808594 42.125 23.6875 43.09375 25 43.09375 C 26.3125 43.09375 27.191406 42.125 27.875 41.0625 C 28.558594 40 29.125 38.664063 29.59375 37.25 C 30.527344 34.417969 31.09375 31.371094 31.09375 29.6875 C 31.09375 28.664063 30.878906 27.195313 30.5 25.625 C 31.417969 26.359375 32.148438 26.832031 32.40625 27 C 32.542969 27.398438 34.539063 33.238281 34.09375 37.59375 C 34.074219 37.800781 34.117188 38.007813 34.21875 38.1875 C 34.21875 38.1875 35.375 40.242188 36.875 42.6875 C 38.375 45.132813 40.191406 47.9375 41.75 49.65625 C 41.972656 49.960938 42.347656 50.113281 42.722656 50.050781 C 43.09375 49.988281 43.398438 49.71875 43.511719 49.359375 C 43.621094 49 43.519531 48.605469 43.25 48.34375 C 41.910156 46.863281 40.039063 44.03125 38.5625 41.625 C 37.152344 39.324219 36.1875 37.570313 36.09375 37.40625 C 36.480469 32.191406 34.25 26.0625 34.25 26.0625 C 34.171875 25.855469 34.03125 25.679688 33.84375 25.5625 C 33.84375 25.5625 31.417969 24.019531 29.28125 21.78125 C 29.144531 21.441406 28.996094 21.105469 28.84375 20.78125 C 28.859375 20.761719 28.859375 20.738281 28.875 20.71875 C 28.910156 20.761719 28.933594 20.800781 28.96875 20.84375 C 30.746094 22.960938 33.316406 24.933594 36.65625 25.875 L 37.8125 32.28125 C 37.863281 32.519531 37.996094 32.730469 38.1875 32.875 L 47.46875 40.375 C 47.898438 40.71875 48.53125 40.652344 48.875 40.21875 C 49.21875 39.789063 49.152344 39.15625 48.71875 38.8125 L 39.71875 31.53125 L 38.71875 26.3125 C 40.425781 26.550781 42.886719 26.488281 45.125 26.0625 C 46.300781 25.835938 47.386719 25.527344 48.28125 25.03125 C 49.175781 24.535156 50 23.710938 50 22.59375 C 50 21.851563 49.558594 21.277344 49.0625 20.875 C 48.566406 20.472656 47.945313 20.160156 47.21875 19.84375 C 45.765625 19.214844 43.832031 18.640625 41.625 18 C 38.386719 17.0625 34.574219 16.019531 31 14.71875 C 31 14.582031 31 14.4375 31 14.3125 C 31 14.140625 30.980469 13.976563 30.96875 13.8125 C 34.117188 13.175781 36.5 11.875 36.5 11.875 C 36.960938 11.613281 37.140625 11.039063 36.90625 10.5625 L 35.21875 7.1875 C 35.78125 6.542969 38.347656 3.683594 42.40625 1.90625 C 42.875 1.707031 43.121094 1.191406 42.976563 0.703125 C 42.832031 0.214844 42.34375 -0.0898438 41.84375 0 C 41.757813 0.0195313 41.671875 0.0507813 41.59375 0.09375 C 36.527344 2.3125 33.21875 6.375 33.21875 6.375 C 32.976563 6.675781 32.925781 7.089844 33.09375 7.4375 L 34.625 10.53125 C 33.835938 10.910156 32.445313 11.472656 30.53125 11.84375 C 30.214844 11.113281 29.746094 10.527344 29.15625 10.09375 C 28.914063 9.914063 28.644531 9.785156 28.375 9.65625 C 28.742188 9.21875 29 8.6875 29 8.09375 C 29 7.425781 28.914063 6.507813 28.1875 5.78125 C 27.824219 5.417969 27.332031 5.183594 26.75 5.09375 C 26.636719 5.074219 26.53125 5.0625 26.40625 5.0625 C 26.191406 5.0625 25.957031 5.089844 25.71875 5.125 L 25.40625 0 L 24.59375 0 L 24.28125 5.125 C 23.238281 5.078125 22.402344 5.332031 21.84375 5.875 C 21.128906 6.566406 21 7.460938 21 8.09375 C 21 8.691406 21.261719 9.199219 21.625 9.625 C 21.351563 9.753906 21.089844 9.914063 20.84375 10.09375 C 20.253906 10.527344 19.785156 11.113281 19.46875 11.84375 C 17.554688 11.472656 16.164063 10.910156 15.375 10.53125 L 16.90625 7.4375 C 17.074219 7.089844 17.023438 6.675781 16.78125 6.375 C 16.78125 6.375 13.472656 2.3125 8.40625 0.09375 C 8.222656 0.00390625 8.015625 -0.03125 7.8125 0 Z M 25.9375 7 C 26.121094 6.976563 26.261719 6.984375 26.375 7 C 26.601563 7.03125 26.71875 7.125 26.78125 7.1875 C 26.90625 7.3125 27 7.664063 27 8.09375 C 27 8.253906 26.960938 8.414063 26.625 8.625 C 26.289063 8.835938 25.695313 9 25 9 C 24.324219 9 23.753906 8.820313 23.40625 8.59375 C 23.058594 8.367188 23 8.164063 23 8.09375 C 23 7.726563 23.082031 7.445313 23.21875 7.3125 C 23.355469 7.179688 23.691406 6.941406 24.8125 7.15625 C 24.957031 7.1875 25.105469 7.1875 25.25 7.15625 C 25.527344 7.082031 25.753906 7.023438 25.9375 7 Z M 25 11 C 26.28125 11 27.328125 11.246094 27.96875 11.71875 C 28.546875 12.144531 28.898438 12.78125 28.96875 13.9375 C 28.371094 13.695313 27.789063 13.449219 27.21875 13.1875 C 27.0625 13.113281 26.890625 13.082031 26.71875 13.09375 C 26.203125 13.140625 25.808594 13.574219 25.8125 14.09375 C 25.8125 14.980469 26.097656 15.996094 26.625 17.15625 C 26.894531 17.746094 27.226563 18.367188 27.625 19 C 26.847656 20.226563 25.820313 21 25 21 C 24.179688 21 23.152344 20.226563 22.375 19 C 22.773438 18.367188 23.105469 17.746094 23.375 17.15625 C 23.902344 15.996094 24.1875 14.980469 24.1875 14.09375 C 24.191406 13.804688 24.066406 13.53125 23.851563 13.339844 C 23.636719 13.148438 23.347656 13.058594 23.0625 13.09375 C 22.964844 13.109375 22.871094 13.140625 22.78125 13.1875 C 22.210938 13.449219 21.628906 13.695313 21.03125 13.9375 C 21.042969 13.746094 21.035156 13.539063 21.0625 13.375 C 21.066406 13.351563 21.058594 13.332031 21.0625 13.3125 C 21.089844 13.253906 21.109375 13.1875 21.125 13.125 C 21.289063 12.464844 21.605469 12.03125 22.03125 11.71875 C 22.671875 11.246094 23.71875 11 25 11 Z M 21.71875 15.71875 C 21.632813 15.957031 21.683594 16.050781 21.5625 16.3125 C 21.285156 16.921875 20.929688 17.601563 20.46875 18.28125 C 20.421875 18.328125 20.378906 18.382813 20.34375 18.4375 C 20.308594 18.488281 20.285156 18.542969 20.25 18.59375 C 20.023438 18.910156 19.765625 19.214844 19.5 19.53125 C 17.851563 21.496094 15.488281 23.332031 12.375 24.09375 C 12.011719 24.183594 11.632813 24.253906 11.25 24.3125 C 9.957031 24.527344 7.347656 24.496094 5.25 24.09375 C 4.199219 23.894531 3.273438 23.605469 2.6875 23.28125 C 2.136719 22.976563 2.011719 22.761719 2 22.625 C 2.023438 22.601563 2.09375 22.539063 2.21875 22.4375 C 2.46875 22.234375 2.925781 21.964844 3.5625 21.6875 C 4.832031 21.136719 6.746094 20.542969 8.9375 19.90625 C 12.234375 18.949219 16.171875 17.8125 19.9375 16.40625 C 20.292969 16.460938 20.652344 16.316406 20.875 16.03125 C 21.15625 15.921875 21.441406 15.832031 21.71875 15.71875 Z M 28.28125 15.71875 C 28.558594 15.832031 28.84375 15.921875 29.125 16.03125 C 29.355469 16.304688 29.710938 16.433594 30.0625 16.375 C 33.832031 17.78125 37.761719 18.949219 41.0625 19.90625 C 43.253906 20.542969 45.167969 21.136719 46.4375 21.6875 C 47.074219 21.964844 47.53125 22.234375 47.78125 22.4375 C 47.90625 22.539063 47.976563 22.601563 48 22.625 C 47.988281 22.761719 47.863281 22.976563 47.3125 23.28125 C 46.726563 23.605469 45.800781 23.894531 44.75 24.09375 C 42.652344 24.496094 40.042969 24.527344 38.75 24.3125 C 38.421875 24.261719 38.097656 24.199219 37.78125 24.125 C 37.75 24.113281 37.71875 24.101563 37.6875 24.09375 C 34.546875 23.339844 32.160156 21.507813 30.5 19.53125 C 30.207031 19.183594 29.933594 18.847656 29.6875 18.5 C 29.667969 18.46875 29.648438 18.4375 29.625 18.40625 C 29.125 17.683594 28.734375 16.960938 28.4375 16.3125 C 28.316406 16.050781 28.367188 15.957031 28.28125 15.71875 Z M 22.78125 22.3125 C 23.445313 22.734375 24.183594 23 25 23 C 25.792969 23 26.507813 22.746094 27.15625 22.34375 C 28.207031 24.917969 28.90625 28.417969 28.90625 29.6875 C 28.90625 30.804688 28.394531 33.941406 27.53125 36.5625 C 27.097656 37.871094 26.578125 39.070313 26.0625 39.875 C 25.546875 40.679688 25.085938 40.90625 25 40.90625 C 24.914063 40.90625 24.453125 40.679688 23.9375 39.875 C 23.421875 39.070313 22.902344 37.871094 22.46875 36.5625 C 21.605469 33.941406 21.09375 30.804688 21.09375 29.6875 C 21.09375 28.359375 21.722656 24.875 22.78125 22.3125 Z "/>
  </g>
</svg>
