<?xml version="1.0" encoding="UTF-8" standalone="yes"?>
<svg xmlns="http://www.w3.org/2000/svg" xmlns:xlink="http://www.w3.org/1999/xlink" viewBox="0 0 50 50" version="1.1" width="50" height="50" fill="#000000">
  <g id="surface1">
    <path style=" " d="M 34 0 C 25.601563 11 21 36.800781 21 39 C 21 41.199219 22.800781 43 25 43 C 27.199219 43 29 41.199219 29 39 C 29 35 25 23.5 34 0 Z M 26.3125 23.09375 C 25.8125 29.292969 26.386719 33.699219 26.6875 36.5 C 26.789063 37.601563 27 38.398438 27 39 C 27 40.101563 26.101563 41 25 41 C 23.898438 41 23 40.101563 23 39 C 23 37.800781 24.210938 30.992188 26.3125 23.09375 Z M 0.8125 29 C 0.335938 29.089844 -0.0078125 29.511719 0 30 L 0 49 C 0 49.550781 0.449219 50 1 50 L 49 50 C 49.550781 50 50 49.550781 50 49 L 50 30 C 50 29.449219 49.550781 29 49 29 L 33.5 29 C 31.117188 29 29.117188 31.117188 29.5 33.53125 C 29.5 33.542969 29.5 33.550781 29.5 33.5625 C 29.648438 34.695313 29.796875 35.917969 29.90625 36.9375 C 30.019531 37.964844 30.09375 38.867188 30.09375 39 C 30.09375 41.753906 27.847656 44 25.09375 44 C 22.339844 44 20.09375 41.753906 20.09375 39 C 20.09375 38.808594 20.222656 38.011719 20.40625 37.09375 C 20.589844 36.183594 20.816406 35.097656 21.0625 34.0625 C 21.066406 34.050781 21.058594 34.042969 21.0625 34.03125 C 21.703125 31.507813 19.714844 29 17.09375 29 L 1 29 C 0.96875 29 0.9375 29 0.90625 29 C 0.875 29 0.84375 29 0.8125 29 Z M 2 31 L 17.09375 31 C 18.460938 31 19.457031 32.265625 19.125 33.53125 C 19.125 33.542969 19.125 33.550781 19.125 33.5625 C 18.875 34.621094 18.628906 35.730469 18.4375 36.6875 C 18.246094 37.644531 18.09375 38.390625 18.09375 39 C 18.09375 42.84375 21.25 46 25.09375 46 C 28.9375 46 32.09375 42.84375 32.09375 39 C 32.09375 38.535156 32.019531 37.765625 31.90625 36.71875 C 31.792969 35.671875 31.652344 34.4375 31.5 33.28125 C 31.5 33.269531 31.5 33.261719 31.5 33.25 C 31.304688 32.078125 32.292969 31 33.5 31 L 48 31 L 48 48 L 2 48 Z "/>
  </g>
</svg>
