<?xml version="1.0" encoding="iso-8859-1"?>
<!-- Generator: Adobe Illustrator 23.0.4, SVG Export Plug-In . SVG Version: 6.00 Build 0)  -->
<svg version="1.1" id="Layer_1" xmlns="http://www.w3.org/2000/svg" xmlns:xlink="http://www.w3.org/1999/xlink" x="0px" y="0px"
	 viewBox="0 0 589.606 300.472" style="enable-background:new 0 0 589.606 300.472;" xml:space="preserve">
<g>
	<g>
		<g>
			<path style="fill:#EB0028;" d="M82.328,74.907c0.139-0.788,0.418-1.206,0.789-1.206c0.371,0,0.649,0.232,1.252,1.438
				l12.663,26.161l12.617-26.485c0.371-0.742,0.603-1.114,1.021-1.114c0.417,0,0.696,0.464,0.835,1.438l4.221,28.666
				c0.418,2.922,0.882,4.267,2.273,4.685c1.345,0.417,2.273,0.464,2.876,0.464c0.418,0,0.743,0.046,0.743,0.324
				c0,0.371-0.557,0.51-1.207,0.51c-1.159,0-7.561-0.139-9.416-0.278c-1.066-0.093-1.345-0.232-1.345-0.51
				c0-0.232,0.185-0.371,0.51-0.51c0.278-0.093,0.417-0.696,0.232-1.995l-2.783-20.409h-0.185l-10.112,21.058
				c-1.067,2.18-1.299,2.598-1.716,2.598c-0.418,0-0.882-0.928-1.624-2.319c-1.113-2.133-4.777-9.231-5.334-10.529
				c-0.418-0.975-3.201-6.819-4.824-10.298h-0.185l-2.412,18.461c-0.093,0.835-0.139,1.438-0.139,2.18
				c0,0.881,0.603,1.299,1.392,1.484c0.835,0.185,1.484,0.232,1.948,0.232c0.371,0,0.696,0.092,0.696,0.324
				c0,0.418-0.417,0.51-1.113,0.51c-1.949,0-4.036-0.139-4.871-0.139c-0.881,0-3.108,0.139-4.592,0.139
				c-0.464,0-0.835-0.092-0.835-0.51c0-0.232,0.278-0.324,0.742-0.324c0.371,0,0.696,0,1.392-0.139
				c1.298-0.278,1.67-2.087,1.902-3.664L82.328,74.907z"/>
			<path style="fill:#EB0028;" d="M127.937,88.173c0-7.051,0-8.349-0.092-9.833c-0.093-1.577-0.464-2.319-1.995-2.644
				c-0.371-0.092-1.16-0.139-1.809-0.139c-0.51,0-0.789-0.093-0.789-0.418c0-0.324,0.325-0.417,1.021-0.417
				c1.252,0,2.598,0.046,3.757,0.046c1.206,0.046,2.273,0.093,2.922,0.093c1.484,0,10.715,0,11.596-0.047
				c0.882-0.093,1.624-0.185,1.995-0.278c0.232-0.046,0.51-0.185,0.742-0.185c0.232,0,0.278,0.185,0.278,0.417
				c0,0.325-0.232,0.881-0.371,3.015c-0.046,0.464-0.139,2.505-0.232,3.061c-0.046,0.232-0.139,0.51-0.464,0.51
				c-0.324,0-0.417-0.232-0.417-0.649c0-0.325-0.047-1.114-0.278-1.67c-0.325-0.835-0.789-1.392-3.108-1.67
				c-0.789-0.093-5.659-0.186-6.587-0.186c-0.232,0-0.324,0.139-0.324,0.464v11.735c0,0.325,0.046,0.51,0.324,0.51
				c1.021,0,6.355,0,7.422-0.093c1.114-0.092,1.809-0.232,2.227-0.696c0.325-0.371,0.51-0.603,0.742-0.603
				c0.186,0,0.325,0.093,0.325,0.371s-0.185,1.021-0.371,3.386c-0.046,0.928-0.185,2.783-0.185,3.108c0,0.371,0,0.881-0.417,0.881
				c-0.325,0-0.417-0.185-0.417-0.417c-0.046-0.464-0.046-1.067-0.186-1.67c-0.232-0.928-0.881-1.624-2.597-1.809
				c-0.882-0.093-5.474-0.139-6.587-0.139c-0.232,0-0.278,0.185-0.278,0.464v3.664c0,1.577-0.047,5.844,0,7.19
				c0.092,3.2,0.835,3.896,5.566,3.896c1.206,0,3.154,0,4.361-0.557c1.206-0.557,1.762-1.531,2.087-3.432
				c0.093-0.51,0.185-0.696,0.51-0.696c0.371,0,0.371,0.371,0.371,0.835c0,1.066-0.371,4.22-0.603,5.148
				c-0.325,1.206-0.742,1.206-2.505,1.206c-3.479,0-6.03-0.093-8.025-0.139c-1.994-0.092-3.432-0.139-4.824-0.139
				c-0.51,0-1.531,0-2.644,0.046c-1.067,0-2.273,0.092-3.201,0.092c-0.603,0-0.928-0.139-0.928-0.464
				c0-0.232,0.186-0.371,0.742-0.371c0.696,0,1.252-0.093,1.67-0.185c0.928-0.186,1.159-1.207,1.345-2.551
				c0.232-1.948,0.232-5.612,0.232-9.88V88.173z"/>
			<path style="fill:#EB0028;" d="M156.194,88.173c0-7.051,0-8.349-0.092-9.833c-0.093-1.577-0.464-2.319-1.995-2.644
				c-0.371-0.092-1.16-0.139-1.809-0.139c-0.51,0-0.789-0.093-0.789-0.418c0-0.324,0.325-0.417,1.021-0.417
				c2.458,0,5.381,0.139,6.355,0.139c1.577,0,5.103-0.139,6.541-0.139c2.922,0,6.03,0.278,8.535,1.995
				c1.299,0.882,3.155,3.247,3.155,6.354c0,3.433-1.438,6.587-6.123,10.39c4.129,5.195,7.329,9.324,10.066,12.199
				c2.597,2.69,4.499,3.015,5.195,3.154c0.51,0.093,0.928,0.139,1.299,0.139c0.371,0,0.556,0.139,0.556,0.371
				c0,0.371-0.324,0.464-0.881,0.464h-4.406c-2.598,0-3.757-0.232-4.963-0.881c-1.995-1.067-3.757-3.247-6.355-6.818
				c-1.855-2.551-3.989-5.705-4.592-6.401c-0.232-0.278-0.51-0.324-0.835-0.324l-4.035-0.093c-0.232,0-0.371,0.093-0.371,0.371
				v0.649c0,4.314,0,7.978,0.232,9.926c0.139,1.345,0.418,2.365,1.809,2.551c0.696,0.092,1.716,0.185,2.273,0.185
				c0.371,0,0.556,0.139,0.556,0.371c0,0.325-0.324,0.464-0.928,0.464c-2.69,0-6.123-0.139-6.818-0.139
				c-0.882,0-3.804,0.139-5.659,0.139c-0.603,0-0.928-0.139-0.928-0.464c0-0.232,0.186-0.371,0.742-0.371
				c0.696,0,1.252-0.093,1.67-0.185c0.928-0.186,1.159-1.207,1.345-2.551c0.232-1.948,0.232-5.612,0.232-9.88V88.173z
				 M161.667,91.837c0,0.51,0.093,0.696,0.417,0.835c0.974,0.324,2.366,0.464,3.525,0.464c1.856,0,2.458-0.186,3.294-0.789
				c1.391-1.021,2.737-3.154,2.737-6.958c0-6.586-4.361-8.488-7.097-8.488c-1.159,0-1.994,0.046-2.458,0.186
				c-0.324,0.092-0.417,0.278-0.417,0.649V91.837z"/>
			<path style="fill:#EB0028;" d="M193.117,105.381c-4.545-3.989-5.751-9.184-5.751-13.683c0-3.155,0.974-8.628,5.427-12.709
				c3.339-3.062,7.746-4.917,14.657-4.917c2.876,0,4.592,0.185,6.726,0.464c1.763,0.232,3.247,0.649,4.639,0.789
				c0.51,0.046,0.696,0.278,0.696,0.557c0,0.371-0.139,0.928-0.232,2.551c-0.093,1.531-0.046,4.082-0.139,5.01
				c-0.046,0.696-0.139,1.067-0.556,1.067c-0.371,0-0.464-0.371-0.464-1.021c-0.046-1.438-0.649-3.062-1.809-4.267
				c-1.531-1.623-5.149-2.876-9.416-2.876c-4.036,0-6.68,1.021-8.721,2.876c-3.386,3.107-4.268,7.514-4.268,12.013
				c0,11.04,8.396,16.513,14.611,16.513c4.129,0,6.633-0.464,8.489-2.598c0.789-0.881,1.391-2.226,1.577-3.061
				c0.139-0.742,0.232-0.928,0.603-0.928c0.325,0,0.418,0.325,0.418,0.696c0,0.557-0.557,4.592-1.021,6.17
				c-0.232,0.788-0.418,1.02-1.207,1.345c-1.855,0.742-5.381,1.067-8.349,1.067C202.673,110.437,197.338,109.045,193.117,105.381z"
				/>
			<path style="fill:#EB0028;" d="M252.269,89.472c0.138,0,0.278-0.093,0.278-0.325v-0.974c0-7.051,0-8.349-0.093-9.833
				c-0.093-1.577-0.464-2.319-1.995-2.644c-0.371-0.092-1.159-0.139-1.809-0.139c-0.51,0-0.789-0.093-0.789-0.418
				c0-0.324,0.325-0.417,0.974-0.417c2.505,0,5.427,0.139,6.68,0.139c1.114,0,4.036-0.139,5.844-0.139
				c0.65,0,0.974,0.093,0.974,0.417c0,0.325-0.278,0.418-0.835,0.418c-0.371,0-0.789,0.046-1.345,0.139
				c-1.253,0.232-1.624,1.021-1.717,2.644c-0.093,1.484-0.093,2.783-0.093,9.833v8.164c0,4.267,0,7.932,0.232,9.926
				c0.139,1.298,0.417,2.319,1.809,2.505c0.65,0.092,1.67,0.185,2.365,0.185c0.51,0,0.743,0.139,0.743,0.371
				c0,0.325-0.371,0.464-0.928,0.464c-3.015,0-5.937-0.139-7.237-0.139c-1.067,0-3.989,0.139-5.798,0.139
				c-0.65,0-0.974-0.139-0.974-0.464c0-0.232,0.186-0.371,0.743-0.371c0.695,0,1.252-0.093,1.669-0.185
				c0.928-0.186,1.16-1.207,1.345-2.551c0.232-1.948,0.232-5.612,0.232-9.88v-4.082c0-0.185-0.139-0.278-0.278-0.278h-17.72
				c-0.138,0-0.278,0.046-0.278,0.278v4.082c0,4.267,0,7.932,0.231,9.926c0.139,1.298,0.418,2.319,1.81,2.505
				c0.649,0.092,1.669,0.185,2.365,0.185c0.51,0,0.742,0.139,0.742,0.371c0,0.325-0.371,0.464-0.928,0.464
				c-3.015,0-5.937-0.139-7.236-0.139c-1.067,0-3.989,0.139-5.844,0.139c-0.603,0-0.928-0.139-0.928-0.464
				c0-0.232,0.185-0.371,0.742-0.371c0.696,0,1.253-0.093,1.67-0.185c0.928-0.186,1.159-1.207,1.345-2.551
				c0.232-1.948,0.232-5.612,0.232-9.88v-8.164c0-7.051,0-8.349-0.093-9.833c-0.093-1.577-0.464-2.319-1.995-2.644
				c-0.371-0.092-1.16-0.139-1.81-0.139c-0.509,0-0.788-0.093-0.788-0.418c0-0.324,0.324-0.417,0.974-0.417
				c2.505,0,5.427,0.139,6.68,0.139c1.112,0,4.035-0.139,5.844-0.139c0.65,0,0.974,0.093,0.974,0.417
				c0,0.325-0.279,0.418-0.835,0.418c-0.372,0-0.789,0.046-1.346,0.139c-1.252,0.232-1.623,1.021-1.716,2.644
				c-0.093,1.484-0.093,2.783-0.093,9.833v0.974c0,0.232,0.139,0.325,0.278,0.325H252.269z"/>
			<path style="fill:#EB0028;" d="M276.854,97.681c-0.233,0-0.324,0.093-0.417,0.371l-2.505,6.633
				c-0.464,1.159-0.696,2.273-0.696,2.83c0,0.835,0.417,1.438,1.855,1.438h0.696c0.557,0,0.696,0.092,0.696,0.371
				c0,0.371-0.279,0.464-0.789,0.464c-1.484,0-3.479-0.139-4.917-0.139c-0.51,0-3.062,0.139-5.474,0.139
				c-0.603,0-0.881-0.092-0.881-0.464c0-0.278,0.186-0.371,0.557-0.371c0.417,0,1.067-0.047,1.438-0.093
				c2.134-0.278,3.015-1.855,3.943-4.174l11.642-29.129c0.557-1.345,0.836-1.856,1.3-1.856c0.417,0,0.695,0.418,1.159,1.484
				c1.114,2.551,8.535,21.476,11.504,28.526c1.763,4.174,3.108,4.824,4.082,5.056c0.696,0.139,1.391,0.185,1.948,0.185
				c0.371,0,0.603,0.046,0.603,0.371c0,0.371-0.417,0.464-2.134,0.464c-1.669,0-5.056,0-8.767-0.092
				c-0.835-0.046-1.391-0.046-1.391-0.371c0-0.278,0.185-0.371,0.649-0.417c0.326-0.093,0.65-0.51,0.418-1.067l-3.711-9.833
				c-0.093-0.232-0.232-0.325-0.464-0.325H276.854z M286.317,95.362c0.231,0,0.278-0.139,0.231-0.278l-4.174-11.457
				c-0.047-0.185-0.093-0.417-0.232-0.417s-0.231,0.232-0.278,0.417l-4.268,11.41c-0.046,0.185,0,0.325,0.186,0.325H286.317z"/>
			<path style="fill:#EB0028;" d="M312.752,103.479c0.093,3.618,0.696,4.824,1.624,5.148c0.789,0.278,1.67,0.325,2.412,0.325
				c0.51,0,0.789,0.092,0.789,0.371c0,0.371-0.418,0.464-1.067,0.464c-3.015,0-4.87-0.139-5.753-0.139
				c-0.417,0-2.597,0.139-5.009,0.139c-0.603,0-1.021-0.046-1.021-0.464c0-0.278,0.278-0.371,0.742-0.371
				c0.603,0,1.438-0.047,2.088-0.232c1.205-0.371,1.391-1.716,1.438-5.752l0.417-27.459c0-0.928,0.139-1.577,0.603-1.577
				c0.51,0,0.928,0.603,1.716,1.438c0.557,0.603,7.608,8.164,14.38,14.889c3.155,3.155,9.416,9.834,10.206,10.576h0.231
				l-0.464-20.826c-0.046-2.83-0.464-3.711-1.577-4.174c-0.695-0.278-1.809-0.278-2.458-0.278c-0.557,0-0.742-0.139-0.742-0.418
				c0-0.371,0.51-0.417,1.205-0.417c2.413,0,4.639,0.139,5.613,0.139c0.51,0,2.272-0.139,4.546-0.139
				c0.603,0,1.067,0.046,1.067,0.417c0,0.278-0.279,0.418-0.836,0.418c-0.464,0-0.835,0-1.391,0.139
				c-1.298,0.371-1.669,1.345-1.716,3.943l-0.51,29.268c0,1.021-0.186,1.438-0.603,1.438c-0.51,0-1.067-0.51-1.577-1.021
				c-2.922-2.783-8.86-8.859-13.683-13.637c-5.056-5.009-10.206-10.807-11.04-11.688h-0.139L312.752,103.479z"/>
			<path style="fill:#EB0028;" d="M360.443,77.319l-6.911,0.185c-2.69,0.093-3.803,0.325-4.5,1.345
				c-0.464,0.696-0.695,1.252-0.788,1.623c-0.093,0.371-0.232,0.557-0.51,0.557c-0.325,0-0.417-0.232-0.417-0.742
				c0-0.742,0.881-4.963,0.974-5.334c0.138-0.603,0.278-0.881,0.557-0.881c0.371,0,0.835,0.464,1.995,0.557
				c1.345,0.139,3.107,0.232,4.638,0.232h18.369c1.484,0,2.505-0.139,3.201-0.232c0.695-0.139,1.066-0.232,1.252-0.232
				c0.324,0,0.371,0.278,0.371,0.974c0,0.974-0.138,4.174-0.138,5.38c-0.046,0.464-0.139,0.742-0.418,0.742
				c-0.371,0-0.464-0.232-0.51-0.928l-0.045-0.51c-0.093-1.206-1.346-2.505-5.474-2.598l-5.846-0.139v19.017
				c0,4.267,0,7.932,0.232,9.926c0.139,1.298,0.417,2.319,1.809,2.505c0.65,0.092,1.67,0.185,2.367,0.185
				c0.509,0,0.742,0.139,0.742,0.371c0,0.325-0.371,0.464-0.881,0.464c-3.062,0-5.984-0.139-7.282-0.139
				c-1.067,0-3.989,0.139-5.846,0.139c-0.602,0-0.928-0.139-0.928-0.464c0-0.232,0.186-0.371,0.743-0.371
				c0.695,0,1.252-0.093,1.669-0.185c0.928-0.186,1.207-1.207,1.346-2.551c0.231-1.948,0.231-5.612,0.231-9.88V77.319z"/>
			<path style="fill:#EB0028;" d="M386.15,88.173c0-7.051,0-8.349-0.093-9.833c-0.093-1.577-0.464-2.319-1.995-2.644
				c-0.371-0.092-1.16-0.139-1.809-0.139c-0.51,0-0.789-0.093-0.789-0.418c0-0.324,0.324-0.417,1.021-0.417
				c2.458,0,5.381,0.139,6.355,0.139c1.577,0,5.103-0.139,6.541-0.139c2.922,0,6.03,0.278,8.535,1.995
				c1.298,0.882,3.153,3.247,3.153,6.354c0,3.433-1.438,6.587-6.122,10.39c4.128,5.195,7.329,9.324,10.065,12.199
				c2.598,2.69,4.499,3.015,5.196,3.154c0.51,0.093,0.928,0.139,1.298,0.139c0.372,0,0.557,0.139,0.557,0.371
				c0,0.371-0.324,0.464-0.881,0.464h-4.407c-2.598,0-3.758-0.232-4.963-0.881c-1.995-1.067-3.758-3.247-6.355-6.818
				c-1.856-2.551-3.989-5.705-4.592-6.401c-0.232-0.278-0.51-0.324-0.835-0.324l-4.036-0.093c-0.232,0-0.371,0.093-0.371,0.371
				v0.649c0,4.314,0,7.978,0.231,9.926c0.139,1.345,0.417,2.365,1.809,2.551c0.696,0.092,1.717,0.185,2.274,0.185
				c0.371,0,0.557,0.139,0.557,0.371c0,0.325-0.325,0.464-0.928,0.464c-2.691,0-6.123-0.139-6.82-0.139
				c-0.881,0-3.803,0.139-5.658,0.139c-0.603,0-0.928-0.139-0.928-0.464c0-0.232,0.185-0.371,0.742-0.371
				c0.696,0,1.253-0.093,1.67-0.185c0.928-0.186,1.159-1.207,1.345-2.551c0.232-1.948,0.232-5.612,0.232-9.88V88.173z
				 M391.623,91.837c0,0.51,0.092,0.696,0.417,0.835c0.974,0.324,2.365,0.464,3.525,0.464c1.855,0,2.458-0.186,3.293-0.789
				c1.391-1.021,2.736-3.154,2.736-6.958c0-6.586-4.36-8.488-7.096-8.488c-1.16,0-1.995,0.046-2.458,0.186
				c-0.325,0.092-0.417,0.278-0.417,0.649V91.837z"/>
			<path style="fill:#EB0028;" d="M428.915,97.681c-0.232,0-0.324,0.093-0.417,0.371l-2.505,6.633
				c-0.464,1.159-0.696,2.273-0.696,2.83c0,0.835,0.417,1.438,1.855,1.438h0.696c0.557,0,0.696,0.092,0.696,0.371
				c0,0.371-0.279,0.464-0.789,0.464c-1.484,0-3.479-0.139-4.917-0.139c-0.51,0-3.062,0.139-5.474,0.139
				c-0.603,0-0.881-0.092-0.881-0.464c0-0.278,0.186-0.371,0.557-0.371c0.417,0,1.067-0.047,1.438-0.093
				c2.134-0.278,3.015-1.855,3.943-4.174l11.642-29.129c0.557-1.345,0.836-1.856,1.3-1.856c0.417,0,0.695,0.418,1.159,1.484
				c1.114,2.551,8.535,21.476,11.504,28.526c1.763,4.174,3.108,4.824,4.082,5.056c0.696,0.139,1.391,0.185,1.948,0.185
				c0.371,0,0.603,0.046,0.603,0.371c0,0.371-0.417,0.464-2.134,0.464c-1.669,0-5.056,0-8.767-0.092
				c-0.835-0.046-1.391-0.046-1.391-0.371c0-0.278,0.185-0.371,0.649-0.417c0.325-0.093,0.65-0.51,0.418-1.067l-3.711-9.833
				c-0.093-0.232-0.232-0.325-0.464-0.325H428.915z M438.378,95.362c0.231,0,0.278-0.139,0.231-0.278l-4.174-11.457
				c-0.047-0.185-0.093-0.417-0.232-0.417s-0.231,0.232-0.278,0.417l-4.268,11.41c-0.046,0.185,0,0.325,0.186,0.325H438.378z"/>
			<path style="fill:#EB0028;" d="M457.766,88.173c0-7.051,0-8.349-0.093-9.833c-0.093-1.577-0.464-2.319-1.995-2.644
				c-0.371-0.092-1.16-0.139-1.809-0.139c-0.51,0-0.789-0.093-0.789-0.418c0-0.324,0.324-0.417,1.021-0.417
				c2.458,0,5.381,0.139,6.68,0.139c1.438,0,4.36-0.139,7.143-0.139c5.798,0,13.545,0,18.601,5.288
				c2.319,2.412,4.498,6.262,4.498,11.781c0,5.845-2.458,10.298-5.055,12.941c-2.134,2.18-6.958,5.473-15.54,5.473
				c-1.67,0-3.572-0.139-5.334-0.278c-1.763-0.139-3.386-0.278-4.546-0.278c-0.51,0-1.531,0-2.644,0.046
				c-1.066,0-2.272,0.092-3.2,0.092c-0.603,0-0.928-0.139-0.928-0.464c0-0.232,0.185-0.371,0.742-0.371
				c0.696,0,1.253-0.093,1.67-0.185c0.928-0.186,1.159-1.207,1.345-2.551c0.232-1.948,0.232-5.612,0.232-9.88V88.173z
				 M463.564,93.275c0,4.917,0.047,8.488,0.093,9.369c0.046,1.16,0.138,3.015,0.51,3.525c0.602,0.882,2.412,1.856,6.076,1.856
				c4.732,0,7.885-0.928,10.669-3.34c2.969-2.551,3.896-6.772,3.896-11.549c0-5.891-2.458-9.694-4.453-11.596
				c-4.267-4.082-9.556-4.639-13.173-4.639c-0.929,0-2.644,0.139-3.015,0.325c-0.417,0.185-0.557,0.417-0.557,0.928
				c-0.047,1.577-0.047,5.613-0.047,9.277V93.275z"/>
			<path style="fill:#EB0028;" d="M497.166,88.173c0-7.051,0-8.349-0.093-9.833c-0.093-1.577-0.464-2.319-1.995-2.644
				c-0.371-0.092-1.16-0.139-1.809-0.139c-0.51,0-0.789-0.093-0.789-0.418c0-0.324,0.324-0.417,1.021-0.417
				c1.252,0,2.598,0.046,3.757,0.046c1.207,0.046,2.274,0.093,2.923,0.093c1.484,0,10.715,0,11.596-0.047
				c0.881-0.093,1.624-0.185,1.995-0.278c0.232-0.046,0.51-0.185,0.743-0.185c0.231,0,0.278,0.185,0.278,0.417
				c0,0.325-0.233,0.881-0.371,3.015c-0.047,0.464-0.14,2.505-0.232,3.061c-0.047,0.232-0.138,0.51-0.464,0.51
				c-0.324,0-0.417-0.232-0.417-0.649c0-0.325-0.047-1.114-0.278-1.67c-0.326-0.835-0.789-1.392-3.108-1.67
				c-0.789-0.093-5.66-0.186-6.587-0.186c-0.231,0-0.324,0.139-0.324,0.464v11.735c0,0.325,0.047,0.51,0.324,0.51
				c1.021,0,6.355,0,7.422-0.093c1.114-0.092,1.809-0.232,2.227-0.696c0.324-0.371,0.51-0.603,0.742-0.603
				c0.186,0,0.326,0.093,0.326,0.371s-0.186,1.021-0.372,3.386c-0.047,0.928-0.185,2.783-0.185,3.108c0,0.371,0,0.881-0.418,0.881
				c-0.324,0-0.417-0.185-0.417-0.417c-0.046-0.464-0.046-1.067-0.185-1.67c-0.232-0.928-0.882-1.624-2.598-1.809
				c-0.881-0.093-5.474-0.139-6.587-0.139c-0.231,0-0.278,0.185-0.278,0.464v3.664c0,1.577-0.047,5.844,0,7.19
				c0.093,3.2,0.835,3.896,5.567,3.896c1.205,0,3.153,0,4.36-0.557c1.205-0.557,1.762-1.531,2.088-3.432
				c0.092-0.51,0.185-0.696,0.509-0.696c0.372,0,0.372,0.371,0.372,0.835c0,1.066-0.372,4.22-0.603,5.148
				c-0.324,1.206-0.743,1.206-2.505,1.206c-3.479,0-6.03-0.093-8.025-0.139c-1.995-0.092-3.432-0.139-4.824-0.139
				c-0.51,0-1.531,0-2.644,0.046c-1.066,0-2.272,0.092-3.2,0.092c-0.603,0-0.928-0.139-0.928-0.464c0-0.232,0.185-0.371,0.742-0.371
				c0.696,0,1.253-0.093,1.67-0.185c0.928-0.186,1.159-1.207,1.345-2.551c0.232-1.948,0.232-5.612,0.232-9.88V88.173z"/>
		</g>
	</g>
	<g>
		<path style="fill:#EB0028;" d="M171.331,196.735v-45.477c0-11.764-5.895-17.645-17.685-17.645c-6.614,0-11.863,1.745-15.745,5.236
			c-3.882,3.491-5.823,8.248-5.823,14.273v43.613h-9.491v-45.477c0-11.764-6.039-17.645-18.116-17.645
			c-6.902,0-12.272,2.44-16.103,7.317c-3.452,4.399-5.177,9.946-5.177,16.641v39.164h-9.489v-70.312h9.489v7.046
			c5.559-5.752,13.132-8.627,22.718-8.627c10.448,0,18.021,3.691,22.72,11.072c5.078-7.381,13.323-11.072,24.731-11.072
			c18.307,0,27.463,8.34,27.463,25.019v46.875H171.331z"/>
		<path style="fill:#EB0028;" d="M260.947,188.108c-6.951,6.808-16.319,10.209-28.109,10.209c-11.791,0-21.09-3.402-27.895-10.209
			c-6.809-6.805-10.209-15.623-10.209-26.457c0-10.831,3.45-19.674,10.352-26.529c6.901-6.852,16.247-10.281,28.037-10.281
			c11.791,0,21.113,3.429,27.967,10.281c6.852,6.855,10.281,15.698,10.281,26.529C271.371,172.484,267.896,181.303,260.947,188.108z
			 M254.26,141.267c-5.082-5.103-12.175-7.654-21.281-7.654c-9.011,0-16.057,2.577-21.137,7.726
			c-5.082,5.149-7.62,11.92-7.62,20.312c0,8.297,2.563,15.022,7.692,20.17c5.127,5.149,12.151,7.725,21.065,7.725
			c8.915,0,15.961-2.575,21.137-7.725c5.177-5.149,7.766-11.873,7.766-20.17C261.882,153.163,259.34,146.369,254.26,141.267z"/>
		<path style="fill:#EB0028;" d="M340.784,196.735v-45.477c0-5.738-1.869-10.112-5.607-13.125c-3.738-3.013-8.915-4.52-15.53-4.52
			c-7.764,0-13.853,2.201-18.26,6.6c-4.411,4.399-6.614,10.187-6.614,17.358v39.164h-9.489v-70.312h9.489v7.477
			c5.846-6.039,14.091-9.058,24.731-9.058c8.723,0,15.864,2.013,21.424,6.039c6.231,4.507,9.347,10.834,9.347,18.98v46.875H340.784z
			"/>
		<path style="fill:#EB0028;" d="M373.676,165.102c1.243,16.298,10.473,24.444,27.689,24.444c13.389,0,22.236-5.464,26.541-16.392
			h9.755c-3.164,9.875-8.196,16.632-15.098,20.274c-6.136,3.26-13.324,4.889-21.568,4.889c-12.175,0-21.473-3.402-27.893-10.209
			c-5.945-6.327-8.915-15.098-8.915-26.313c0-10.64,3.353-19.458,10.065-26.457c6.708-6.996,15.864-10.496,27.463-10.496
			c11.31,0,20.394,3.091,27.247,9.274c6.852,6.183,10.281,14.547,10.281,25.091v5.896H373.676z M421.684,140.757
			c-4.903-4.763-11.584-7.144-20.041-7.144c-7.593,0-13.888,2.001-18.886,6.003c-4.996,4.002-8.025,9.67-9.081,17.003h55.214
			C428.313,150.141,425.912,144.855,421.684,140.757z"/>
		<path style="fill:#EB0028;" d="M480.391,226.772c-8.724,0-15.914-1.678-21.568-5.033c-6.999-4.219-10.784-11.503-11.36-21.855
			h9.491c0.574,6.421,2.707,11.047,6.399,13.876c3.688,2.826,9.464,4.242,17.325,4.242c17.159,0,25.738-6.952,25.738-20.849v-4.835
			c-6.039,6.23-14.285,9.346-24.731,9.346c-9.298,0-16.679-2.253-22.144-6.758c-5.751-4.792-8.627-11.55-8.627-20.273v-48.064h9.491
			v47.92c0,12.271,7.093,18.404,21.281,18.404c8.242,0,14.474-2.394,18.692-7.189c4.026-4.408,6.039-13.985,6.039-22.037v-37.098
			h9.491v70.729C515.906,216.945,504.065,226.772,480.391,226.772z"/>
	</g>
</g>
</svg>
