<svg xmlns="http://www.w3.org/2000/svg" xmlns:xlink="http://www.w3.org/1999/xlink" width="153.638" height="128.086" viewBox="0 0 153.638 128.086"><defs><style>.a{fill:#fff;}.b,.t,.u,.v,.w{opacity:0.5;}.c{fill:url(#a);}.d{fill:#f2f2f2;}.e{fill:#e0e0e0;}.f,.i,.o{fill:#2e5aa9;}.f,.m{opacity:0.7;}.g{fill:#f5f5f5;}.h{clip-path:url(#d);}.i,.k{opacity:0.4;}.j{fill:url(#e);}.k{fill:#bdbdbd;}.l{fill:url(#h);}.m,.p{fill:#3ad29f;}.n{fill:url(#i);}.q,.v{fill:#f55f44;}.r,.u{fill:#fdd835;}.s,.w{fill:#47e6b1;}.t{fill:#4d8af0;}.x{fill:url(#k);}.y{fill:url(#l);}.z{opacity:0.2;}</style><linearGradient id="a" x1="0.5" y1="1" x2="0.5" gradientUnits="objectBoundingBox"><stop offset="0" stop-color="gray" stop-opacity="0.251"/><stop offset="0.54" stop-color="gray" stop-opacity="0.122"/><stop offset="1" stop-color="gray" stop-opacity="0.102"/></linearGradient><clipPath id="d"><rect class="a" width="25.201" height="16.988"/></clipPath><linearGradient id="e" x1="0.5" x2="0.5" y2="0" xlink:href="#a"/><linearGradient id="h" x1="0.511" y1="1.102" x2="0.511" y2="-0.241" xlink:href="#a"/><linearGradient id="i" x1="0.572" y1="0.676" x2="0.572" y2="0.102" xlink:href="#a"/><linearGradient id="k" x1="0.5" x2="0.5" y2="0" xlink:href="#a"/><linearGradient id="l" x1="0.5" x2="0.5" y2="0.001" xlink:href="#a"/></defs><g transform="translate(0 -0.072)"><g class="b" transform="translate(27.259 14.47)"><rect class="c" width="78.596" height="105.613"/></g><rect class="d" width="76.14" height="101.928" transform="translate(28.283 15.902)"/><rect class="e" width="26.198" height="0.818" transform="translate(34.219 20.201)"/><rect class="f" width="26.198" height="0.818" transform="translate(34.219 23.884)"/><rect class="e" width="26.198" height="0.818" transform="translate(64.306 20.201)"/><rect class="e" width="26.198" height="0.818" transform="translate(68.399 43.534)"/><rect class="e" width="26.198" height="0.818" transform="translate(69.013 45.785)"/><rect class="e" width="26.198" height="0.818" transform="translate(70.241 48.036)"/><rect class="e" width="26.198" height="0.818" transform="translate(68.399 79.761)"/><rect class="e" width="26.198" height="0.818" transform="translate(69.013 82.013)"/><rect class="e" width="26.198" height="0.818" transform="translate(70.241 84.264)"/><g class="b" transform="translate(34.423 35.142)"><rect class="c" width="27.836" height="28.245"/></g><rect class="g" width="27.396" height="27.017" transform="translate(34.599 35.757)"/><g class="b" transform="translate(35.564 37.393)"><rect class="c" width="25.552" height="17.602"/></g><rect class="a" width="25.201" height="16.988" transform="translate(35.74 37.597)"/><g class="h" transform="translate(35.74 37.597)"><path class="i" d="M196.748,250.887l6.345-9.826,2.661,4.3,5.73-5.935,4.913,5.935,4.3-8.8,11.053,17.6-35.818-1.228Z" transform="translate(-198.883 -234.512)"/><circle class="i" cx="1.842" cy="1.842" r="1.842" transform="translate(0.934 0.614)"/></g><g class="b" transform="translate(34.423 71.369)"><rect class="j" width="27.836" height="28.245"/></g><rect class="g" width="27.396" height="27.017" transform="translate(34.599 71.983)"/><g class="b" transform="translate(35.564 73.621)"><rect class="c" width="25.552" height="17.602"/></g><rect class="a" width="25.201" height="16.988" transform="translate(35.74 73.826)"/><g class="h" transform="translate(35.74 73.826)"><path class="k" d="M196.748,467.377l6.345-9.824,2.661,4.3,5.73-5.935,4.913,5.935,4.3-8.8,11.053,17.6-35.818-1.228Z" transform="translate(-198.883 -451.003)"/><circle class="k" cx="1.842" cy="1.842" r="1.842" transform="translate(0.934 0.614)"/></g><g class="b" transform="translate(38.799 9.251)"><rect class="l" width="105.613" height="78.596" transform="translate(0 103.587) rotate(-78.76)"/></g><rect class="a" width="101.928" height="76.14" transform="translate(40.24 110.829) rotate(-78.76)"/><rect class="e" width="54.035" height="0.818" transform="translate(64.618 16.549) rotate(11.24)"/><rect class="e" width="54.035" height="0.818" transform="translate(49.537 92.435) rotate(11.24)"/><rect class="e" width="41.754" height="0.818" transform="translate(48.62 97.053) rotate(11.24)"/><rect class="f" width="15.556" height="0.818" transform="translate(47.703 101.669) rotate(11.24)"/><rect class="f" width="27.017" height="0.818" transform="translate(63.702 21.169) rotate(11.24)"/><rect class="e" width="48.713" height="0.818" transform="translate(62.784 25.785) rotate(11.24)"/><rect class="m" width="11.871" height="0.818" transform="translate(61.867 30.403) rotate(11.24)"/><rect class="e" width="54.035" height="0.818" transform="translate(60.948 35.019) rotate(11.24)"/><g class="b" transform="translate(60.194 54.522)"><rect class="n" width="27.836" height="48.508" transform="translate(0 27.303) rotate(-78.76)"/></g><rect class="a" width="47.895" height="27.222" transform="translate(65.89 54.783) rotate(11.24)"/><rect class="e" width="54.035" height="0.818" transform="translate(60.031 39.637) rotate(11.24)"/><rect class="o" width="5.935" height="19.853" transform="translate(70.091 59.374) rotate(11.24)"/><rect class="p" width="5.935" height="13.303" transform="translate(79.253 67.874) rotate(11.24)"/><rect class="q" width="5.935" height="7.164" transform="translate(88.495 75.969) rotate(11.24)"/><rect class="r" width="5.935" height="14.532" transform="translate(100.37 70.817) rotate(11.24)"/><g class="b" transform="translate(20.097 108.007)"><rect class="s" width="0.614" height="3.479" transform="translate(1.431)"/><rect class="s" width="0.614" height="3.479" transform="translate(3.479 1.432) rotate(90)"/></g><path class="t" d="M687.027,68.684a.751.751,0,0,1-.418-.909.359.359,0,0,0,.017-.084h0a.377.377,0,0,0-.669-.249h0a.363.363,0,0,0-.042.074.751.751,0,0,1-.909.418.361.361,0,0,0-.084-.017h0a.377.377,0,0,0-.249.669h0a.36.36,0,0,0,.074.042.751.751,0,0,1,.418.909.365.365,0,0,0-.017.084h0a.377.377,0,0,0,.669.249h0a.366.366,0,0,0,.042-.074.751.751,0,0,1,.909-.418.361.361,0,0,0,.084.017h0a.377.377,0,0,0,.249-.669h0A.363.363,0,0,0,687.027,68.684Z" transform="translate(-593.568 -67.23)"/><path class="u" d="M273.917,172.524a.751.751,0,0,1-.418-.909.363.363,0,0,0,.017-.084h0a.376.376,0,0,0-.669-.249h0a.36.36,0,0,0-.042.074.751.751,0,0,1-.909.418.361.361,0,0,0-.084-.017h0a.377.377,0,0,0-.249.669h0a.362.362,0,0,0,.074.042.751.751,0,0,1,.418.909.362.362,0,0,0-.017.084h0a.377.377,0,0,0,.669.249h0a.363.363,0,0,0,.042-.074.751.751,0,0,1,.909-.418.36.36,0,0,0,.084.017h0a.377.377,0,0,0,.249-.669h0A.362.362,0,0,0,273.917,172.524Z" transform="translate(-249.586 -153.694)"/><path class="u" d="M241.217,477.584a.751.751,0,0,1-.418-.909.36.36,0,0,0,.017-.084h0a.377.377,0,0,0-.669-.249h0a.363.363,0,0,0-.042.074.751.751,0,0,1-.909.418.361.361,0,0,0-.084-.017h0a.377.377,0,0,0-.249.669h0a.359.359,0,0,0,.074.042.751.751,0,0,1,.418.909.361.361,0,0,0-.017.084h0a.376.376,0,0,0,.669.249h0a.361.361,0,0,0,.042-.074.751.751,0,0,1,.909-.418.361.361,0,0,0,.084.017h0a.377.377,0,0,0,.249-.669h0a.363.363,0,0,0-.074-.042Z" transform="translate(-222.358 -407.706)"/><circle class="v" cx="1.228" cy="1.228" r="1.228" transform="translate(55.3 3.621)"/><circle class="v" cx="1.228" cy="1.228" r="1.228" transform="translate(0 51.955)"/><circle class="v" cx="1.228" cy="1.228" r="1.228" transform="translate(143.31 18.973)"/><circle class="t" cx="1.228" cy="1.228" r="1.228" transform="translate(136.351 55.609)"/><circle class="w" cx="1.228" cy="1.228" r="1.228" transform="translate(5.077 23.133)"/><circle class="w" cx="1.228" cy="1.228" r="1.228" transform="translate(141.558 107.156)"/><circle class="w" cx="1.228" cy="1.228" r="1.228" transform="translate(151.182 70.949)"/><rect class="c" width="31.205" height="25.614" transform="translate(91.101 100.638)"/><path class="x" d="M711.1,580.859a9.128,9.128,0,0,1,18.256,0V586.7h2.555v-5.842a11.684,11.684,0,0,0-23.368,0V586.7H711.1Z" transform="translate(-613.558 -485.121)"/><path class="g" d="M713.793,582.437a8.763,8.763,0,0,1,17.527,0v5.609h2.453v-5.609a11.217,11.217,0,0,0-22.433,0v5.609h2.453Z" transform="translate(-615.889 -486.824)"/><rect class="o" width="30.495" height="24.888" transform="translate(91.419 100.872)"/><rect class="g" width="30.495" height="24.888" transform="translate(91.419 100.872)"/><rect class="o" width="30.495" height="15.072" transform="translate(91.419 105.779)"/><path class="y" d="M769.481,715.862a2.236,2.236,0,1,0-3.862,1.531v4.771a1.626,1.626,0,0,0,3.253,0V717.4A2.226,2.226,0,0,0,769.481,715.862Z" transform="translate(-660.578 -605.398)"/><path class="z" d="M770.705,719.775a1.928,1.928,0,1,0-3.33,1.32v4.113a1.4,1.4,0,1,0,2.8,0v-4.113A1.918,1.918,0,0,0,770.705,719.775Z" transform="translate(-662.111 -608.912)"/></g></svg>