<svg xmlns="http://www.w3.org/2000/svg" xmlns:xlink="http://www.w3.org/1999/xlink" width="165.581" height="130.857" viewBox="0 0 165.581 130.857"><defs><style>.a,.d,.e{fill:#2e5aa9;}.a,.k{opacity:0.1;}.b{fill:#ebecf0;}.c{fill:#f8f9fa;}.d{opacity:0.5;}.f,.g{fill:none;stroke:#535461;stroke-miterlimit:10;}.g{stroke-width:2px;}.h{opacity:0.25;}.i{fill:#dbaca2;}.j{fill:#e8c2b8;}.l{fill:url(#a);}.m{fill:#ffd5d8;}.n{fill:#ff7c5e;}.o{opacity:0.05;}.p{fill:#85596b;}</style><linearGradient id="a" x1="0.5" y1="1" x2="0.5" gradientUnits="objectBoundingBox"><stop offset="0" stop-color="gray" stop-opacity="0.251"/><stop offset="0.54" stop-color="gray" stop-opacity="0.122"/><stop offset="1" stop-color="gray" stop-opacity="0.102"/></linearGradient></defs><g transform="translate(-0.003 0.006)"><path class="a" d="M364.023,120.437c-6.472,4.808-7.029,14.253-5.917,22.24.373,2.674.841,5.522-.288,7.974-1.381,3-4.808,4.533-8.083,4.951a19.352,19.352,0,0,1-16.343-5.919c-3.541-3.809-5.421-8.948-9.068-12.655-6.108-6.2-15.767-7.114-24.433-6.335-6.132.55-12.953,1.579-17.9-2.081-3.483-2.576-5.168-7-5.576-11.314-.194-2.083-.157-4.268-1.1-6.133a9.959,9.959,0,0,0-2.37-2.852c-8.5-7.535-21.6-8.3-29.67-16.289-5.449-5.4-7.7-13.394-7.58-21.061s2.379-15.13,4.855-22.4c1.756-5.159,3.869-10.6,8.323-13.742,4.7-3.319,11.222-3.261,16.5-.949s9.482,6.569,12.942,11.18c4.324,5.764,7.964,12.467,14.229,16.027,4.274,2.432,9.266,3.092,14.057,4.155,8.008,1.775,15.693,4.753,23.31,7.8,7.292,2.915,14.614,5.933,21.12,10.337,4.6,3.112,7.818,7.361,12.014,10.863,2.735,2.282,6.033,3.6,8.5,6.23,3.032,3.237,5.311,8.055,3.132,12.373C372.607,116.941,367.456,117.884,364.023,120.437Z" transform="translate(-209.954 -32.23)"/><rect class="b" width="43.442" height="1.402" transform="translate(82.845 27.427)"/><rect class="c" width="43.442" height="23.069" transform="translate(82.845 28.829)"/><path class="d" d="M833.888,261.183a6.8,6.8,0,0,0-1.848.757,2.777,2.777,0,0,1-2.259.252,2.2,2.2,0,0,0-1.662-.014c-.658.349-.733,1.283-1.693.988-.332-.1-.47.418-.142.52a1.489,1.489,0,0,0,1.591-.44c.291-.343.414-.678.94-.691a4.421,4.421,0,0,1,1.184.257c1.549.379,2.6-.851,4.031-1.109C834.372,261.64,834.226,261.122,833.888,261.183Z" transform="translate(-707.892 -225.325)"/><path class="e" d="M636.117,273.116a19.091,19.091,0,0,0-4.464-.107,10.349,10.349,0,0,0-3.688,1.358,7.13,7.13,0,0,1-3.7,1.244,33.307,33.307,0,0,1-3.915-.835,4.175,4.175,0,0,0-3.289.824,3.8,3.8,0,0,1-1.951.808c-.667.055-1.338-.022-2.006-.03a5.057,5.057,0,0,0-3.154.982c-.869.626-1.619,1.41-2.536,1.966a3.036,3.036,0,0,1-3.425-.125c-1.032-.626-1.98-1.446-3.245-1.5-.346-.016-.346.525,0,.539,1.2.052,2.116.923,3.1,1.5a3.544,3.544,0,0,0,2.843.506c2.019-.6,3.145-2.791,5.228-3.242,1.363-.294,2.791.2,4.139-.232a6.141,6.141,0,0,0,1.566-.915,3.23,3.23,0,0,1,1.858-.626,22.812,22.812,0,0,1,3.889.8,5.719,5.719,0,0,0,3.5-.486,21.208,21.208,0,0,1,4.116-1.879,15.945,15.945,0,0,1,5.148-.019C636.466,273.691,636.463,273.152,636.117,273.116Z" transform="translate(-517.613 -235.225)"/><circle class="e" cx="1.078" cy="1.078" r="1.078" transform="translate(117.449 36.805)"/><circle class="c" cx="0.323" cy="0.323" r="0.323" transform="translate(83.445 27.751)"/><circle class="c" cx="0.323" cy="0.323" r="0.323" transform="translate(84.307 27.751)"/><circle class="c" cx="0.323" cy="0.323" r="0.323" transform="translate(85.17 27.751)"/><path class="e" d="M72.508,578.494s-7.764,12.129,17.687,12.337c0,0,.374-10.553-7.945-14.9a7.464,7.464,0,0,0-9.623,2.384Z" transform="translate(-71.39 -490.059)"/><path class="f" d="M78.88,595.61s13.036,2.569,17.629,12.541" transform="translate(-77.705 -507.378)"/><path class="g" d="M119.524,454.12s-8.37-10.816-7.606-21.479a20.774,20.774,0,0,0-3.165-12.719,34.847,34.847,0,0,0-3.933-5.012" transform="translate(-99.582 -354.98)"/><path class="e" d="M77.151,361.524c.584,1.5-.432,6.9-.432,6.9s-4.406-3.287-4.99-4.785a2.912,2.912,0,1,1,5.422-2.114Z" transform="translate(-71.475 -308.314)"/><path class="e" d="M126.007,394.525c-.323,1.576-4.113,5.557-4.113,5.557s-1.914-5.153-1.591-6.735a2.912,2.912,0,1,1,5.7,1.17Z" transform="translate(-112.609 -334.772)"/><path class="e" d="M156.784,478.627c-1.074,1.2-6.354,2.721-6.354,2.721s.949-5.414,2.022-6.611a2.911,2.911,0,1,1,4.332,3.891Z" transform="translate(-138.048 -404.621)"/><path class="e" d="M170.024,555.437c-.857,1.361-5.8,3.759-5.8,3.759s.02-5.5.877-6.857a2.911,2.911,0,1,1,4.928,3.1Z" transform="translate(-149.679 -469.736)"/><path class="e" d="M85.4,435.134c1.482.626,6.909-.247,6.909-.247s-3.161-4.5-4.642-5.125a2.915,2.915,0,1,0-2.266,5.372Z" transform="translate(-81.699 -367.311)"/><path class="e" d="M93.554,521.141c1.6.157,6.517-2.3,6.517-2.3s-4.365-3.339-5.966-3.493a2.912,2.912,0,1,0-.551,5.795Z" transform="translate(-87.793 -439.666)"/><path class="e" d="M120.966,604.619c1.552.421,6.813-1.17,6.813-1.17s-3.739-4.03-5.291-4.45a2.911,2.911,0,1,0-1.522,5.62Z" transform="translate(-111.385 -510.151)"/><path class="h" d="M77.151,361.524c.584,1.5-.432,6.9-.432,6.9s-4.406-3.287-4.99-4.785a2.912,2.912,0,1,1,5.422-2.114Z" transform="translate(-71.475 -308.314)"/><path class="h" d="M126.007,394.525c-.323,1.576-4.113,5.557-4.113,5.557s-1.914-5.153-1.591-6.735a2.912,2.912,0,1,1,5.7,1.17Z" transform="translate(-112.609 -334.772)"/><path class="h" d="M156.784,478.627c-1.074,1.2-6.354,2.721-6.354,2.721s.949-5.414,2.022-6.611a2.911,2.911,0,1,1,4.332,3.891Z" transform="translate(-138.048 -404.621)"/><path class="h" d="M170.024,555.437c-.857,1.361-5.8,3.759-5.8,3.759s.02-5.5.877-6.857a2.911,2.911,0,1,1,4.928,3.1Z" transform="translate(-149.679 -469.736)"/><path class="h" d="M85.4,435.134c1.482.626,6.909-.247,6.909-.247s-3.161-4.5-4.642-5.125a2.915,2.915,0,1,0-2.266,5.372Z" transform="translate(-81.699 -367.311)"/><path class="h" d="M93.554,521.141c1.6.157,6.517-2.3,6.517-2.3s-4.365-3.339-5.966-3.493a2.912,2.912,0,1,0-.551,5.795Z" transform="translate(-87.793 -439.666)"/><path class="h" d="M120.966,604.619c1.552.421,6.813-1.17,6.813-1.17s-3.739-4.03-5.291-4.45a2.911,2.911,0,1,0-1.522,5.62Z" transform="translate(-111.385 -510.151)"/><path class="a" d="M192.854,532.6c-2.976-.066-6.172.083-8.537,1.253-4.385,2.164-3.795,6.555-6.655,9.6-2.415,2.572-7.031,3.908-11.507,4.76-7.292,1.389-14.94,1.909-22.182,3.4-4.27.88-8.508,2.16-11.433,4.349s-4.238,5.455-2.26,8.046c1.829,2.395,5.859,3.676,9.529,4.916s7.557,2.868,8.578,5.453c.569,1.439.146,2.991.81,4.412,1.309,2.8,6.213,4.127,10.619,4.843,3.519.572,7.1.993,10.7,1.253a40.129,40.129,0,0,0,8.653-.089c2.448-.357,4.714-1.1,7.062-1.665,14.917-3.632,32.073-.49,47.287-3.566a23.914,23.914,0,0,0,7.591-2.62,13.9,13.9,0,0,0,3.7-3.377,17.237,17.237,0,0,0,3.95-10.168c.063-2.111-.313-4.245.265-6.324.606-2.164,2.224-4.155,3.085-6.284,1.566-3.869.47-8.144-2.94-11.491a10.962,10.962,0,0,0-4.354-2.706,23.4,23.4,0,0,0-4.437-.783,76.1,76.1,0,0,0-12.779-.661c-3.035.185-6.006.731-9.051.83-4.273.139-7.62-.846-11.493-1.771A69.845,69.845,0,0,0,192.854,532.6Z" transform="translate(-120.257 -454.226)"/><path class="i" d="M120.14,290.275v41.891l55.738-10.827-1.065-32.129Z" transform="translate(-101.321 -243.919)"/><path class="j" d="M217.51,328.433v13.845L158.577,359.5l-.6-.312L111.36,335V277.754l57.69-1.864.356,31.774-2.309.711-.888-29.719-50.767,1.76-.354,43.046,44.2,19.349.034-.008Z" transform="translate(-93.916 -232.685)"/><path class="k" d="M468.525,611.37v13.845l-58.933,17.219-.6-.312,1.345-16.383Z" transform="translate(-344.931 -515.622)"/><path class="b" d="M231.64,503.888s-28.533,2.847-31.3,6.971-.024,9.183-.024,9.183l44.111,19.171,59.82-15.443s-1.6-10.829-6.567-12.071-44.559-9.762-44.559-9.762S237.142,500.96,231.64,503.888Z" transform="translate(-179.094 -428.244)"/><path class="c" d="M206.83,510.666l45,15.532s48-14.553,54.8-13.183c0,0-33.575-12.018-46.986-11.494a218.289,218.289,0,0,0-21.878,2.171S208.074,506.674,206.83,510.666Z" transform="translate(-185.615 -428.011)"/><path class="l" d="M381.438,425.5h0l.011-.016v-.009l.008-.016v-.124h0v-.241l-.013-.039h0l-.016-.044V425l-.013-.031v-.017l-.013-.03-.008-.019-.013-.03-.009-.02-.014-.03-.009-.019-.017-.033-.009-.017-.023-.045h0l-.028-.053-.009-.017-.02-.038-.011-.02-.02-.034-.013-.022-.02-.034-.034-.052-.022-.034-.014-.022-.023-.038-.013-.02-.031-.05v-.009L381,424.2l-.012-.017-.028-.042-.016-.022-.027-.038-.016-.024-.027-.038-.017-.025-.028-.031-.017-.024-.03-.041-.016-.02-.039-.053v-.008l-.045-.063-.016-.022-.03-.041-.02-.027-.028-.038-.02-.027-.028-.038-.02-.025-.03-.039-.02-.025-.031-.041-.019-.024-.038-.047-.013-.016h0c-.141-.178-.287-.357-.432-.529a4.856,4.856,0,0,0-3.3-1.712c-.13-.011-.266-.025-.4-.042h-.058l-.1-.014h-.049l-.157-.022h0l-.149-.023-.052-.009-.1-.019-.063-.013-.1-.019-.067-.014-.091-.02-.069-.016-.091-.022-.07-.017-.089-.023-.07-.019-.089-.025h0a3.241,3.241,0,0,0-1.879-1.441,1.412,1.412,0,0,0-.575.03l-.033-.036-.047-.053-.063-.08-.041-.053-.066-.092-.033-.045q-.049-.07-.092-.144a1.4,1.4,0,0,0-.288-.092,25.9,25.9,0,0,0,4.086-.963.872.872,0,0,0,.183-.1l.028-.009c1.161-.423,2.586-4.542,1.583-5.118s-2.533-5.325-3.43-7.757a4.371,4.371,0,0,0-3.483-2.691s-3.746-2.9-5.435-2.586-1.953-2.216-2.111-2.321a.191.191,0,0,1-.045-.055c-.407-.637-3.645-1.488-5.391-1.908a16.4,16.4,0,0,0-5.389-2.594,3.69,3.69,0,0,0-3.22.642c-3.458.175-4.009,2.788-4.009,2.788a2.592,2.592,0,0,0,.182,1.043,4.206,4.206,0,0,1-.559-.03,15.8,15.8,0,0,0,.713-2.243,4.517,4.517,0,0,1,3.759-2.379,5.026,5.026,0,0,0,2.587-.675,1.962,1.962,0,0,0,.7-1.161.416.416,0,0,0-.025-.3.423.423,0,0,0-.171-.138,6.8,6.8,0,0,0-3.1-.39,21.907,21.907,0,0,1-5.031-.94,3.524,3.524,0,0,0-2.133-.1,5.771,5.771,0,0,0-1.587,1.28c-2.1,1.851-5.584,1.583-7.45,3.67a2.033,2.033,0,0,0-.6,1.77c.064.257.207.493.252.755a2.386,2.386,0,0,1-.453,1.474,1.676,1.676,0,0,0-.235,1.493c.356.717,1.441.664,2,1.233.262.265.388.644.661.9a2.161,2.161,0,0,0,1.7.313c.233-.022.583-.086.711-.291a4.061,4.061,0,0,0,6.392-1.1,5.732,5.732,0,0,1,3.6.974,2.559,2.559,0,0,0,.843,1.19c.37.29.81.645,1.253,1.026-1.123.3-2.121.486-2.121.486s-4.432,1.425-4.432,2.374a1.174,1.174,0,0,0,.157.487,1.941,1.941,0,0,0-.186.753,5.706,5.706,0,0,1-2.708-.977s-.144-.039-.367-.083c-.3-.381-1.172-1.438-1.691-1.4-.346.028-.47.833-.514,1.554a.673.673,0,0,0-.119.135c-.528.791.423,2.374,1.056,2.639s4.116.157,6.49,1.9c1.052.772,2.861.921,4.542.849-1.69,1.193-4.056,3.027-4.385,4.165a7.2,7.2,0,0,0-.373,2.121c-1.034,1.367-2.6,4.254,1.27,5.638,3.189,1.139,11.834.993,17.994.714a31.066,31.066,0,0,1,6.226,1.5,11.885,11.885,0,0,1,3.325.9,5.389,5.389,0,0,0,2.691.423s3.377.581,4.116,1.319,2-1.267.423-2.216c-.617-.37-1.536-.979-2.428-1.646,1.145.135,2.155.282,2.8.432l.064.014h.487l.017-.008h.011l.016-.011h.008l.02-.017h0Zm-14.577-5.059s-.445-.1-1.109-.258l-1.319-.533s2.251-.708,4.335-1.609a4.159,4.159,0,0,1,1.253.659.356.356,0,0,0,.218.114,6.638,6.638,0,0,0-2.968,1.847A2.629,2.629,0,0,1,366.861,420.44Zm-15.935-12.718,1.3-.6c.283.241.587.47.885.692-.714.042-1.674.089-2.76.119C350.685,407.818,350.926,407.723,350.926,407.723Z" transform="translate(-290.988 -332.852)"/><path class="m" d="M370.989,495.792s-1.137-1.544-1.756-1.5-.517,2.634-.517,2.634Z" transform="translate(-322.141 -421.93)"/><path class="n" d="M384.274,503.533s-12.088.982-14.361-1.085c0,0-2.118-.569-2.634.207s.413,2.324,1.034,2.583,4.03.157,6.354,1.859,8.42.313,8.42.313l2.531-.982Z" transform="translate(-320.807 -428.637)"/><path class="o" d="M384.274,503.533s-12.088.982-14.361-1.085c0,0-2.118-.569-2.634.207s.413,2.324,1.034,2.583,4.03.157,6.354,1.859,8.42.313,8.42.313l2.531-.982Z" transform="translate(-320.807 -428.637)"/><path class="m" d="M434.7,543.615s-2.583-1.859-7.9.47-18.6,3.565-18.6,3.565-4.442,4.442.626,6.251,24.174.313,24.174.313,7.8.517,10.227,1.085c1.469.345.313-1.319-.838-2.684a4.744,4.744,0,0,0-3.233-1.676c-1.525-.13-3.641-.609-4.609-2.2,0,0-1.859-.93-4.649,1.859l-2.691-1.093s7.386-2.324,7.645-3.875S434.7,543.615,434.7,543.615Z" transform="translate(-353.93 -462.934)"/><path class="o" d="M434.7,543.615s-2.583-1.859-7.9.47-18.6,3.565-18.6,3.565-4.442,4.442.626,6.251,24.174.313,24.174.313,7.8.517,10.227,1.085c1.287.3.556-.94-.413-2.164a5.933,5.933,0,0,0-3.978-2.227c-1.488-.169-3.386-.687-4.287-2.169,0,0-1.859-.93-4.648,1.859l-2.692-1.093s7.386-2.324,7.645-3.875S434.7,543.615,434.7,543.615Z" transform="translate(-353.93 -462.934)"/><path class="m" d="M441.1,487.054s-3.255-5.168-10.951-.672l-9.867,5.482s-5.482,3.461-5.992,5.217-1.292,4.752,4.082,5.889,17.874,2.583,20.508,3.875a11.873,11.873,0,0,1,3.255.879,5.354,5.354,0,0,0,2.634.413s3.306.569,4.03,1.292,1.962-1.24.413-2.169-5.062-3.41-5.012-4.385a3.524,3.524,0,0,0-2.382-2.91c-1.193-.21-2.738,1.549-2.738,1.549a5.26,5.26,0,0,1-3.151-.47,67.8,67.8,0,0,1-6.716-1.807c-.62-.412-4.855-2.014-4.855-2.014s10.024-.1,12.965-2.789a2.938,2.938,0,0,1,2.066-.569C439.391,493.872,443.988,492.117,441.1,487.054Z" transform="translate(-360.272 -413.708)"/><path class="m" d="M391.521,436.8s2.944,2.066,5.217,0,.984,6.354.984,6.354a5.961,5.961,0,0,0-7.851-1.446Z" transform="translate(-339.987 -373.169)"/><path class="o" d="M391.521,436.8s2.944,2.066,5.217,0,.984,6.354.984,6.354a5.961,5.961,0,0,0-7.851-1.446Z" transform="translate(-339.987 -373.169)"/><path class="c" d="M313.187,433.935s3.1-2.634,4.855-2.686c.523-.016,1.128-.548,1.723-1.287a6.613,6.613,0,0,1,6.389-2.349,8.76,8.76,0,0,0,3.721-.19c5.424-1.344,2.738-4.7,2.738-4.7l-1.7-1.446s-2.324-1.6-3.2-1.5-3.151,2.428-3.41,2.169-3.41-2.583-3.926-3.2-4.652-2.634-3.618-3.2,6.249-2.686,5.215-3.1-6.613-1.034-8.782,1.549S312.1,432.436,313.187,433.935Z" transform="translate(-274.257 -352.582)"/><path class="o" d="M313.187,433.935s3.1-2.634,4.855-2.686c.523-.016,1.128-.548,1.723-1.287a6.613,6.613,0,0,1,6.389-2.349,8.76,8.76,0,0,0,3.721-.19c5.424-1.344,2.738-4.7,2.738-4.7l-1.7-1.446s-2.324-1.6-3.2-1.5-3.151,2.428-3.41,2.169-3.41-2.583-3.926-3.2-4.652-2.634-3.618-3.2,6.249-2.686,5.215-3.1-6.613-1.034-8.782,1.549S312.1,432.436,313.187,433.935Z" transform="translate(-274.257 -352.582)"/><path class="c" d="M314.5,431.659s3.1-2.634,4.855-2.686c.523-.016,1.128-.548,1.723-1.287a6.613,6.613,0,0,1,6.381-2.351,8.76,8.76,0,0,0,3.721-.19c5.424-1.344,2.738-4.7,2.738-4.7l-1.7-1.446s-2.324-1.6-3.2-1.5-3.151,2.428-3.41,2.169-3.41-2.583-3.926-3.2-4.644-2.633-3.613-3.2,6.251-2.686,5.217-3.1-6.613-1.034-8.782,1.549S313.419,430.16,314.5,431.659Z" transform="translate(-275.367 -350.667)"/><path class="m" d="M417.887,423.154s.827-3.927,6.871-2.376a19.1,19.1,0,0,1,9.04,4.907l-5.482,2.531-6.716-2.273S417.837,425.989,417.887,423.154Z" transform="translate(-363.616 -359.623)"/><path class="o" d="M438.184,424.09s5.812,1.253,6.36,2.116a.187.187,0,0,0,.045.053c.157.1.414,2.583,2.066,2.273s5.325,2.531,5.325,2.531a4.292,4.292,0,0,1,3.41,2.634c.879,2.376,2.376,7.026,3.358,7.593s-.414,4.6-1.549,5.012-5.217,1.4-5.579.879-3.513-1.085-3.306-2.738,1.446-3.2.47-4.185-1.6-3.565-3.048-4.082-4.03-.672-5.579.362a7.226,7.226,0,0,1-3.421,1.079s-3.2-1.859-3.72-3.151c-.348-.871-2.08-2.327-3.173-3.184a2.506,2.506,0,0,1-.957-1.879,19.718,19.718,0,0,1,.049-3.458,38.7,38.7,0,0,1,3.048-3.255Z" transform="translate(-372.856 -361.541)"/><path class="n" d="M439.571,423.494s5.812,1.253,6.36,2.116a.187.187,0,0,0,.045.053c.157.1.414,2.583,2.066,2.273s5.325,2.531,5.325,2.531a4.292,4.292,0,0,1,3.41,2.634c.879,2.376,2.376,7.026,3.358,7.593s-.414,4.6-1.549,5.012-5.217,1.4-5.579.879-3.513-1.085-3.306-2.738,1.446-3.2.47-4.185-1.6-3.565-3.048-4.082-4.03-.672-5.579.362a8.77,8.77,0,0,1-3.59,1.214s-3.021-1.989-3.538-3.28c-.348-.871-2.08-2.327-3.173-3.184a2.506,2.506,0,0,1-.957-1.879,19.715,19.715,0,0,1,.048-3.458,38.7,38.7,0,0,1,3.048-3.255Z" transform="translate(-374.037 -361.043)"/><path class="m" d="M402.23,502.54c-.052.052-.93,1.344.1,2.066a2.313,2.313,0,0,0,2.014.356Z" transform="translate(-350.076 -428.885)"/><path class="k" d="M408.211,418.87A3.968,3.968,0,0,1,412.6,416.8c2.99.724,7.335,3.358,8.368,5.992s-3.915,5.84-3.915,5.84l-5.889,2.738s-1.807.724-2.324.47-3,1.961-3,1.961-2.789-2.686-2.789-3.616,4.34-2.335,4.34-2.335,5.169-.982,5.114-1.962c0,0,.879-1.034.413-1.344s-5.45-1.782-5.45-1.782S407.287,419.491,408.211,418.87Z" transform="translate(-351.103 -356.476)"/><path class="n" d="M407.219,417.88a3.968,3.968,0,0,1,4.385-2.066c2.99.724,7.335,3.358,8.368,5.992s-3.914,5.839-3.914,5.839l-5.889,2.738s-1.807.724-2.324.47-3,1.961-3,1.961-2.789-2.686-2.789-3.616,4.34-2.335,4.34-2.335,5.169-.982,5.114-1.962c0,0,.879-1.034.413-1.344s-5.45-1.782-5.45-1.782S406.3,418.5,407.219,417.88Z" transform="translate(-350.268 -355.641)"/><path class="k" d="M392.83,440.159a6.445,6.445,0,0,1,2.758-.913c.284-.547-.46-1.142-.46-1.8a2.679,2.679,0,0,0-.413-1.24c-.739-.268-.232-.955-.232-.955Z" transform="translate(-342.483 -372.134)"/><circle class="m" cx="3.978" cy="3.978" r="3.978" transform="translate(45.128 61.826)"/><path class="p" d="M339.973,402.582a5.972,5.972,0,0,1,3.162-1.017,9.655,9.655,0,0,0,2.08-.3,7.544,7.544,0,0,0,1.118-.495,3.634,3.634,0,0,0,1.3-.929,9.693,9.693,0,0,0,.814-2.37,4.423,4.423,0,0,1,3.685-2.329,4.945,4.945,0,0,0,2.534-.661,1.922,1.922,0,0,0,.688-1.135.409.409,0,0,0-.025-.291.417.417,0,0,0-.168-.135,6.678,6.678,0,0,0-3.031-.382,21.431,21.431,0,0,1-4.926-.921,3.45,3.45,0,0,0-2.088-.1,5.666,5.666,0,0,0-1.554,1.253c-2.055,1.814-5.466,1.551-7.294,3.593a1.987,1.987,0,0,0-.586,1.732c.064.252.2.482.247.739a2.328,2.328,0,0,1-.443,1.443,1.648,1.648,0,0,0-.23,1.461c.349.7,1.41.65,1.962,1.206.257.258.379.626.647.877a2.143,2.143,0,0,0,1.665.313c.313-.03.825-.133.736-.553C340.195,403.21,339.7,403.049,339.973,402.582Z" transform="translate(-293.848 -335.146)"/><path class="c" d="M357,469.906s2.713-2.036,4.417-1.369,2.169,1.034,3.255.626,1.549.827,1.549.827l-6.76,1.951Z" transform="translate(-312.265 -400.094)"/><path class="o" d="M333.63,480.143s1.24-3.2,2.738-3.823" transform="translate(-292.555 -406.771)"/><path class="o" d="M323.4,473.543s1.24-3.2,2.738-3.823" transform="translate(-283.928 -401.205)"/><path class="o" d="M508.76,479.893s4.385-2.118,7.335-1.911,3.461-1.652,3.461-1.652" transform="translate(-440.256 -406.78)"/><path class="e" d="M383.1,815.443a2.494,2.494,0,0,1-.814-1.228,1.094,1.094,0,0,1,.569-1.253,1.584,1.584,0,0,1,1.5.528,1.986,1.986,0,0,0,1.461.7,2.226,2.226,0,0,1-.688-2.083.87.87,0,0,1,.191-.423c.29-.313.816-.177,1.162.067a4.367,4.367,0,0,1,1.417,3.626,6.9,6.9,0,0,0,.02-1.494,1.535,1.535,0,0,1,.561-1.322,1.69,1.69,0,0,1,.855-.2,1.765,1.765,0,0,1,1.388.395,1.377,1.377,0,0,1-.055,1.7,5.42,5.42,0,0,1-1.436,1.151,3.186,3.186,0,0,0-1.026.979.965.965,0,0,0-.077.175h-3.109A8.668,8.668,0,0,1,383.1,815.443Z" transform="translate(-333.565 -689.461)"/><path class="e" d="M843.346,734.294a1.543,1.543,0,0,1-.506-.765.688.688,0,0,1,.354-.783c.324-.124.672.1.94.329a1.25,1.25,0,0,0,.908.438,1.383,1.383,0,0,1-.428-1.3.54.54,0,0,1,.119-.263c.18-.193.508-.11.724.042a2.69,2.69,0,0,1,.882,2.254,4.27,4.27,0,0,0,.013-.929.947.947,0,0,1,.349-.821,1.052,1.052,0,0,1,.533-.125,1.1,1.1,0,0,1,.863.246.855.855,0,0,1-.034,1.059,3.366,3.366,0,0,1-.893.716,1.981,1.981,0,0,0-.637.609.6.6,0,0,0-.047.108h-1.944A5.388,5.388,0,0,1,843.346,734.294Z" transform="translate(-721.998 -622.275)"/></g></svg>